<svg xmlns="http://www.w3.org/2000/svg" xmlns:xlink="http://www.w3.org/1999/xlink" xml:space="preserve" width="1061.116" height="486.912" viewBox="0 0 280.754 128.829"><defs><linearGradient id="a"><stop offset="0" style="stop-color:#992305;stop-opacity:1"/><stop offset=".711" style="stop-color:#e9821b;stop-opacity:1"/><stop offset="1" style="stop-color:#c93603;stop-opacity:1"/></linearGradient><linearGradient xlink:href="#a" id="b" x1=".186" x2="249.471" y1="64.615" y2="64.615" gradientUnits="userSpaceOnUse"/></defs><g style="display:inline;opacity:1"><path d="M29.138.2c-.168-.003-.307.14-.466.198s-.342.03-.488-.02c-.147-.049-.258-.12-.389-.153a.56.56 0 0 0-.383.032c-.102.057-.156.165-.267.2s-.282-.001-.419-.002q-.207-.001-.313.11c-.07.074-.104.187-.18.232-.075.045-.19.022-.318-.033C25.788.708 25.65.62 25.5.575s-.306-.05-.477-.06-.356-.027-.549-.007-.394.078-.445.208.048.335.109.567c.06.231.083.491.077.696a1 1 0 0 1-.145.533c-.107.18-.287.392-.455.672s-.323.627-.43.981c-.107.355-.166.716-.241 1.214s-.165 1.131-.116 1.673c.05.542.24.993.485 1.362.246.37.549.66.684.92.136.262.106.495.051.701s-.135.385-.126.64c.008.255.106.587.256.77s.353.218.499.393.234.49.29.782c.057.291.081.558.157.68.075.122.2.1.299.383s.17.87.223 1.247c.053.376.087.542.302.684.215.141.61.259.933.326.321.067.57.084.641.175s-.033.256-.32.46c-.286.204-.755.446-1.14.7-.386.253-.69.518-.94.673-.251.154-.45.198-.65.214-.202.015-.406.002-.568.048-.161.045-.27.14-.617.403-.345.262-.778.58-1.12.948-.342.367-.454.65-.611.909-.158.259-.352.471-.474.683-.12.212-.169.423-.192.713-.024.29-.024.66-.075.911a.8.8 0 0 1-.334.527c-.177.14-.428.282-.62.434-.194.152-.329.311-.48.476s-.317.334-.45.494c-.135.159-.235.308-.3.438s-.094.242-.16.39-.17.332-.142.457.186.19.285.383.138.513.092.703-.18.25-.204.335c-.025.085.058.195.025.324-.033.13-.184.277-.339.384s-.316.172-.59.301c-.272.129-.657.32-1.042.505-.386.185-.774.362-1.222.64s-.956.656-1.315 1.054c-.36.398-.568.815-.739 1.107-.17.292-.302.459-.43.655-.127.196-.25.42-.268.896-.018.475.07 1.2.196 1.596.124.395.285.46.382.587s.13.313.043.45c-.088.136-.298.223-.5.356a1.9 1.9 0 0 0-.536.522c-.14.21-.225.454-.259.747-.033.293-.016.636-.014.98.001.344-.014.688-.04.885s-.064.246-.19.26-.34-.005-.512.06c-.171.064-.299.214-.427.373-.128.16-.257.328-.314.552-.057.223-.041.502-.004.802s.097.623-.018.812c-.116.188-.405.243-.6.291s-.293.087-.412.248c-.119.16-.258.442-.432.785s-.382.75-.65 1.01c-.27.258-.599.368-.806.638s-.293.7-.537.877-.646.102-.976.214-.588.413-.966.913c-.378.501-.877 1.203-1.432 1.798-.555.596-1.165 1.084-1.57 1.562-.404.477-.603.943-.658 1.35-.055.406.033.754.05 1.194.016.441-.038.976-.027 1.327.01.35.088.515.078.706-.01.192-.109.41-.118.815-.009.406.071 1 .281 1.561s.5 1.011 1.074 1.343c.573.332 1.08.371 1.559.203s.685-.5.827-.758c.103-.19.162-.324.192-.31q.015.008.02.076c.015.18-.012.696-.022 1.22s-.001 1.055-.002 1.576c0 .521-.01 1.017-.024 1.475-.014.457-.032.865-.076 1.072s-.114.212-.23.197-.277-.052-.402-.046-.215.054-.302.278c-.088.225-.173.627-.221.897s-.057.41-.092.544-.094.264-.335.27c-.242.008-.664-.108-.991-.167a2.5 2.5 0 0 0-.754-.038c-.198.023-.363.07-.47.274-.108.205-.158.566-.179.947s-.014.782-.081 1.01-.207.283-.36.361a.77.77 0 0 0-.428.478c-.106.297-.151.79-.123 1.165.028.376.13.636.339.796s.524.22.788.295q.395.113.638.286c.162.116.273.256.468.287.194.031.47-.047.77-.04.298.008.618.102.901.175.284.074.532.128.792.175s.531.087.77.117c.237.03.441.05.605.07s.288.04.338.209.027.487.035.84c.008.351.048.737-.003.931s-.196.198-.446-.028c-.25-.225-.606-.678-.838-.928s-.338-.295-.646-.316-.818-.02-1.135.103-.443.368-.533.584-.143.404-.103.82c.04.417.173 1.064.386 1.71s.506 1.29.613 1.882c.108.593.03 1.133.047 1.59.016.458.126.833.182 1.377.055.545.055 1.258-.011 2.104s-.199 1.826-.288 3.242c-.09 1.416-.137 3.27-.178 6.526s-.077 7.91-.109 11.522-.06 6.18-.112 8.56-.13 4.571-.187 6.349a331 331 0 0 0-.111 3.896c-.014.755-.004.899.414 1.837.417.938 1.242 2.67 1.714 3.548.473.878.594.904.707.89.114-.013.22-.065.765-.968.546-.903 1.53-2.654 2.036-3.582.506-.929.532-1.033.5-2.044-.03-1.01-.12-2.928-.14-3.885-.02-.958.03-.955.41-.727s1.09.681 2.001.955c.912.274 2.024.369 3.15.478 1.124.11 2.256.233 3.19.157.933-.077 1.663-.353 2.282-.54.619-.189 1.126-.287 1.788-.398.661-.11 1.477-.231 2.32-.35s1.714-.234 2.478-.422c.763-.187 1.43-.396 1.836-.597s.47-.16.567-.458c.038-.117-.008-.225-.086-.453-.089-.26-.274-.734-.332-.907-.108-.324-.099-.494-.037-.565.062-.072.175-.046.338-.002.163.043.375.103.444.253.07.15-.003.39-.06.785a10 10 0 0 0-.093 1.396c.005.452.058.809-.184 1.183-.24.374-.775.766-1.492 1.085-.717.32-1.615.568-2.282.756-.667.187-1.103.314-1.337.562s-.267.617-.284 1.022-.016.846.158 1.224c.173.378.52.694 1.208 1.186.689.492 1.719 1.161 2.563 1.537a5.7 5.7 0 0 0 2.068.493c.566.037 1.039.03 1.597-.013.559-.042 1.204-.12 1.959-.218.755-.1 1.62-.22 2.483-.499.863-.278 1.723-.714 2.368-1.334s1.074-1.425 1.408-1.824c.333-.4.57-.394.998-.35.427.044 1.044.126 1.615.099a3.7 3.7 0 0 0 1.543-.4c.45-.234.824-.565 1.012-.857.187-.292.187-.546.132-.987s-.166-1.069-.306-1.493-.312-.645-.447-.835-.234-.35-.396-.411c-.163-.06-.389-.022-.493.072-.105.093-.089.242-.24.195-.152-.047-.472-.29-.742-.538s-.49-.5-.628-.815-.193-.69-.276-1.014c-.082-.326-.193-.601-.132-.734.06-.132.292-.12.427-.166.136-.045.176-.146.144-.736a48 48 0 0 0-.235-2.506c-.1-.836-.195-1.428-.504-2.337-.309-.908-.831-2.132-.956-2.943s.148-1.208.39-1.488c.241-.281.452-.445.456-1.049s-.199-1.649-.647-2.946-1.142-2.85-1.505-3.703c-.362-.854-.393-1.01-.086-1.102s.955-.122 1.278-.136.323-.015.906.84c.583.854 1.749 2.563 2.866 4.062a60 60 0 0 0 3.25 3.992 48 48 0 0 0 3.265 3.37c1.134 1.052 2.338 2.042 3.668 2.904a23 23 0 0 0 4.26 2.157c1.477.563 2.978.957 4.825 1.218 1.848.26 4.042.39 5.866.343s3.278-.27 5.272-.836c1.994-.567 4.527-1.48 7.028-2.34 2.5-.862 4.967-1.673 7.148-2.316s4.075-1.118 5.474-1.407 2.304-.39 3.116-.343 1.534.242 1.963.569.565.787.427 1.546c-.139.758-.552 1.814-.74 2.777-.19.962-.155 1.831.205 2.517.361.686 1.047 1.19 2.002 1.589.955.4 2.179.696 4.065.707s4.436-.261 6.899-.754 4.841-1.206 7.575-2.106 5.824-1.986 8.421-3.019c2.597-1.032 4.7-2.01 5.791-2.524 1.092-.513 1.172-.56 1.19-.447s-.024.39-.098.639c-.074.25-.179.473-.078.65.1.176.406.305 1.046.602s1.612.762 2.542 1.498c.93.737 1.819 1.745 2.526 2.711.706.967 1.231 1.891 1.65 2.944.42 1.052.732 2.232.994 2.935s.473.93.664 1.018.362.04.51-.182c.147-.221.27-.615.068-1.656-.204-1.04-.734-2.728-.985-3.76-.25-1.032-.222-1.408-.132-1.769.09-.36.243-.704.55-.975.309-.271.772-.468 1.022-.68.25-.21.288-.436.294-.67s-.018-.48-.131-.649c-.114-.168-.316-.261-.467-.18-.152.08-.254.335-.543.17-.29-.164-.766-.75-1.18-1.272s-.764-.982-1.11-1.557c-.344-.575-.683-1.265-.86-1.806-.178-.542-.194-.936-.075-1.19.12-.256.372-.373.655-.516.283-.142 1.623-.66 1.775-.745 1.166-.663 4.437-2.62 4.92-2.953 1.175-.808 3.644-2.3 4.948-2.963.91-.462.426-.413 1.875.25 1.334.585 2.755 1.21 3.366 1.502s1.285.753 1.788 1.078c.504.324 1.073.546 1.753 1.095.68.55 1.686 1.514 2.17 1.9.674.538.897.916 1.242 1.115s.753.215.915.1c.161-.115.185-.485.067-.898-.119-.413-.602-.71-1.126-1.452-.278-.392-1.65-1.626-2.597-3.041-.785-1.176-.864-2.29-.698-2.971.212-.87 1.042-1.695 2.479-2.178 1.104-.372 2.691-.823 3.13-1.11.581-.381.873-.541 1.313-.64.431-.098 1.063-.292 1.692-.53.628-.24 1.076-.645 1.47-.912s.732-.396 1.145-.418c.412-.022.897.061 1.244-.06.347-.12.556-.446.687-.739.132-.293.186-.554.508-.817a3.34 3.34 0 0 1 1.689-.701c.847-.105 1.752-.281 3.255.251.861.305 1.931.685 2.879.715 1.59.05 3.421-1.364 5.197-1.537 2.834-.277 5.508-.931 7.485-.985s3.035-.382 4.173-.332 2.345.116 3.267.153c.923.037 1.562.044 1.942-.06.38-.106.5-.324.532-.547a.595.595 0 0 0-.273-.613c-.245-.166-.678-.271-1.103-.427a4.4 4.4 0 0 1-1.267-.7c-.425-.337-.857-.805-.993-1.091-.137-.287.023-.392.346-.49a6 6 0 0 1 1.431-.21c.62-.024 1.372.02 1.912.033s.867.127 2.446.281c1.578.154 4.43.875 6.331 1.171 1.9.296 2.87.144 5.977.965 3.156.833 8.42 2.508 11.477 3.575s3.884 1.62 5.013 2.022c1.13.403 2.563.656 3.764.883s2.169.427 3.31.811c1.14.385 2.454.954 3.301 1.256.848.302 1.23.338 1.444.28.215-.06.261-.212.271-.406s-.017-.433-.403-.73c-.386-.295-1.13-.65-2.265-1.262-1.134-.612-2.658-1.481-3.784-2.105-1.127-.624-1.856-1.002-2.875-1.43-1.02-.429-2.329-.909-3.975-1.563-1.647-.655-3.631-1.485-6.795-2.628s-7.508-2.598-10.176-3.462c-2.667-.863-3.658-1.136-4.791-1.4-1.134-.265-2.41-.521-4.74-.983-2.332-.463-5.719-1.13-8.269-1.648s-4.262-.885-5.58-1.097c-1.318-.213-2.24-.27-2.62-.581s.072-.346.434-2.908c.107-.762.196-1.786.159-2.392-.05-.825-1.271-1.004-1.165-2.597.025-.363.294-.868.74-1.83.11-.237-.102-1.31.9-1.49 1.04-.186 1.88-.32 2.934-.829.562-.27.709-.888 1.72-.93.518-.022 1.446.626 2.02.534.472-.076.888-.147.905-.551.012-.279.153-.647-.36-1.196-.513-.55-1.593-1.497-2.068-2.137s-.346-.97-.07-1.148.696-.202 1.1-.238.79-.083 1.225.01c.436.092.92.324 1.276.404s.582.008.558-.262-.296-.739-.652-1.222c-.357-.482-.797-.979-1.047-1.289s-.308-.433-.218-.608c.089-.175.326-.4.761-.64.436-.238 1.07-.489 1.55-.512.478-.023.803.181 1.39.256.587.074 1.436.019 2.574-.304s2.565-.912 3.58-1.08 1.62.085 2.178.243c.557.159 1.067.222 1.42.205.353-.016.548-.113.565-.252s-.146-.32-.528-.661c-.381-.34-.982-.839-1.088-1.312-.107-.472.282-.919.9-1.237.62-.319 1.468-.509 2.568-.804s2.45-.694 4.115-.955c1.665-.26 3.644-.381 5.587-.416s3.85.018 5.629.146c1.779.129 3.43.332 4.312.37.882.04.995-.087.537-.388-.457-.3-1.485-.774-2.57-1.234s-2.225-.907-3.737-1.3-3.394-.732-5.15-.956c-1.756-.225-3.384-.335-4.629-.349s-2.104.069-2.904.047a9.6 9.6 0 0 1-1.985-.262c-.442-.113-.586-.212-.606-.375s.08-.388-.11-.556-.674-.279-1.23-.33a9.7 9.7 0 0 0-1.906.038c-.722.078-1.536.224-2.396.44-.861.216-1.768.5-2.386.77s-.947.523-1.328.62-.814.036-1.206-.105c-.39-.142-.74-.364-1.444-.493-.705-.13-1.766-.167-2.435-.09-.669.076-.946.266-1.187.352s-.45.064-.834-.082c-.386-.146-.95-.419-1.695-.49-.745-.07-1.672.06-2.735.52s-2.262 1.25-3.285 2.11a15.6 15.6 0 0 0-2.67 2.897c-.799 1.107-1.547 2.39-2.134 3.287s-1.011 1.407-1.554 2.204-1.204 1.88-1.92 2.97c-.718 1.09-1.492 2.185-2.531 3.662s-2.346 3.337-3.336 4.672a55 55 0 0 1-2.334 2.942c-.67.797-1.338 1.58-1.922 2.312-.585.73-1.087 1.409-1.471 1.765-.384.357-.65.392-1.477.317s-2.217-.26-3.392-.315-2.135.021-2.659.01c-.523-.01-.609-.108-.483-.325.125-.217.463-.554.732-.864.27-.31.473-.592.393-.95s-.442-.791-1.308-1.183-2.237-.742-3.495-1.005-2.404-.438-4.306-.71c-1.902-.274-4.56-.644-6.534-.918-1.974-.275-3.263-.453-4.551-.854-1.289-.402-2.575-1.026-3.68-1.561-1.106-.535-2.03-.98-3.445-2.382-1.415-1.4-3.32-3.758-4.723-5.382s-2.302-2.515-3.317-3.405-2.145-1.777-3.148-2.595-1.88-1.568-2.844-2.312c-.965-.744-2.018-1.483-2.748-2.026s-1.138-.89-1.213-1.105c-.074-.215.185-.298.68-.299.495 0 1.225.08 1.824-.127.6-.208 1.068-.705 1.536-1.201.129-.208.255-.411.356-.537.102-.126.173-.164.34-.176.166-.013.611.004.673.006s.062.002.164-.024.814-.206 1.273-.41c.46-.203.92-.494 1.297-.73s.667-.417 1.002-.365c.336.052.714.337 1.056.652s.646.66.93.843c.283.183.546.204.733.196s.296-.046.345-.27.038-.636-.156-1.098c-.193-.462-.568-.975-.998-1.526s-.915-1.14-1.326-1.543c-.41-.403-.747-.618-1.215-.731s-1.07-.124-1.954-.132c-.885-.009-2.053-.014-2.704.085-.65.1-.783.303-.797.469-.013.165.092.292.006.466-.085.173-.36.394-.658.612s-.618.432-.993.573c-.374.14-.804.206-1.167.184-.364-.022-.66-.132-1.076-.203s-.952-.105-1.508-.12-1.132-.01-1.442.112c-.309.123-.351.365-.405.363-.054-.001-.119-.246-.592-.365-.474-.119-1.356-.113-1.935-.023-.58.09-.856.265-1.175.457-.318.191-.678.4-.984.687-.307.287-.56.653-.789.863s-.434.264-2.373.296c-1.939.033-5.612.044-8.374.152s-4.614.314-6.957.568-5.177.558-7.95.988-5.485.984-8.006 1.578a119 119 0 0 0-6.987 1.871 136 136 0 0 0-5.421 1.764c-1.354.471-2.125.763-3.114 1.133-.99.369-2.197.815-3.2 1.188-1.003.372-1.803.67-2.348.886-.546.216-.837.351-1.051.446-.215.095-.352.15-.421.079-.07-.07-.07-.266.058-.465.13-.2.388-.403.64-.66.25-.257.493-.567.662-.898.168-.33.26-.682.514-.946s.667-.44.984-.609.537-.328.967-.413c.43-.086 1.07-.097 1.723-.116s1.32-.047 1.912-.097c.593-.05 1.111-.12 1.77-.393s1.458-.748 2.102-1.151c.643-.404 1.132-.737 1.87-.873.74-.136 1.728-.076 2.567-.193.838-.118 1.528-.413 2.298-.909s1.622-1.192 2.135-1.78c.512-.586.686-1.064.828-1.385.142-.322.252-.489.611-.738.359-.25.967-.582 1.368-.962s.596-.807.67-1.181c.074-.375.027-.696.046-.9.019-.203.104-.289.35-.314.245-.025.652.01 1.223-.058.571-.067 1.307-.238 2.08-.509.771-.27 1.58-.64 2.367-1.062s1.553-.897 2.183-1.165c.63-.269 1.124-.332 1.595-.222s.917.393 1.455.962c.537.568 1.166 1.422 1.77 1.896.603.473 1.181.565 1.87.545s1.488-.153 2.124-.313c.635-.16 1.107-.348 1.75-.897.643-.55 1.458-1.46 1.929-1.986.47-.526.596-.667.852-.701.255-.034.64.038 1.057.013.418-.025.87-.146 1.165-.339.294-.192.432-.456.733-.533.302-.077.767.034 1.357.19s1.302.358 1.82.31c.516-.048.835-.346 1.322-.64s1.143-.588 1.68-.654.954.092 1.618.415 1.574.81 2.138 1.051.78.234.92.132c.142-.103.207-.302.193-.468-.013-.165-.105-.297-.283-.57-.179-.272-.443-.685-.488-.996s.129-.52.364-.743.532-.461.653-.666c.122-.205.07-.376-.176-.626-.247-.251-.687-.582-.972-.696-.286-.115-.417-.015-.62.103a3.6 3.6 0 0 1-.763.338c-.286.084-.586.117-.737-.012-.15-.129-.152-.392-.192-.608s-.077-.268-.497-.394-.696-.165-1.191-.264c-.495-.1-.877-.204-1.131-.25-.255-.046-.308-.019-.356.092-.05.111-.087.298-.155.53s-.165.51-.363.654-.496.156-.636.024-.12-.41-.172-.657c-.053-.248-.164-.443-.358-.654a3.6 3.6 0 0 0-.598-.5c-.208-.148-.381-.267-.383-.33 0-.061.169-.065.323-.098.155-.033.293-.096.44-.179.146-.083.3-.187.363-.365.063-.179.034-.431.12-.555s.284-.121.492-.127c.207-.007.422-.023.403.05-.02.073-.272.236-.407.44s-.152.449-.059.624.297.28.634.312.807-.008 1.155-.077.574-.166.766-.161c.192.004.349.112.526.181.177.07.375.102.767.183s.979.212 1.428.285.76.088.97.124c.209.035.316.09.402.199.087.108.153.269.181.437.028.169.017.345.05.472s.11.204.187.287.155.17.3.203c.146.032.36.009.523-.085.163-.093.273-.257.409-.38.135-.124.295-.207.434-.29.139-.084.254-.167.52-.269.266-.101.614-.2.963-.27s.542-.081.702-.164a.52.52 0 0 0 .276-.366c.017-.129-.048-.234-.108-.336a3 3 0 0 1-.197-.385 4.5 4.5 0 0 1-.25-.76c-.068-.3-.102-.63-.093-.898.008-.269.059-.477 0-.602-.06-.124-.23-.165-.373-.16s-.258.058-.406.151c-.149.094-.33.23-.524.29-.194.061-.399.047-.745-.195-.347-.24-.834-.708-1.16-1.02-.327-.313-.493-.47-.649-.568-.156-.096-.302-.133-.536-.167s-.557-.066-.794-.19-.389-.34-.544-.627-.316-.644-.458-.834-.266-.214-.533-.178-.647.126-.953.066-.491-.262-.652-.489-.269-.426-.539-.7-.518-.44-.93-.682c-.411-.242-.837-.467-1.418-.923-.58-.457-1.29-1.13-1.717-1.502s-.57-.441-.864-.479c-.293-.037-.736-.042-1.313.018s-1.288.185-2.068.115a6.2 6.2 0 0 1-2.338-.725 6.9 6.9 0 0 1-1.683-1.322 5.6 5.6 0 0 1-.769-1.019c-.148-.249-.22-.404-.333-.43-.114-.028-.271.074-.38.188s-.17.241-.277.149c-.108-.093-.262-.404-.468-.695s-.466-.562-.665-.83c-.2-.266-.34-.53-.476-.636s-.265-.054-.321.05c-.057.103-.04.257-.175.235s-.423-.22-.809-.48a10 10 0 0 0-1.49-.864 9.7 9.7 0 0 0-1.986-.639 6 6 0 0 0-1.567-.097c-.47.027-.934.086-1.285.33-.352.243-.592.671-.683 1.092-.091.42-.034.831.049 1.22.082.389.19.754.358 1.112.168.357.395.707.499.932s.085.324.006.361c-.078.037-.216.012-.533-.208s-.813-.636-1.313-.927-1.002-.457-1.906-.683-2.21-.515-2.986-.6c-.778-.086-1.027.031-1.16.15a.38.38 0 0 0-.133.373c.018.133.07.28.186.425.114.146.291.289.597.443s.741.32 1.163.543c.421.224.83.505 1.124.761s.477.488.598.823c.12.336.179.775.319.962s.362.121.675.286c.312.164.715.558 1.01.906s.483.65.676.905c.192.255.39.464.62.566.228.102.487.097.712.034s.414-.183.64-.196.488.078.9.213c.413.134.975.31 1.316.374.342.063.464.013.483-.133.02-.146-.064-.388-.298-.786s-.62-.952-.822-1.269c-.15-.237-.197-.343-.183-.365l.002-.002h.001q.01-.004.03.007c.066.037.215.191.369.362s.314.358.584.45c.27.09.65.085.893.14.242.055.347.171.392.345.044.173.027.405.17.709.141.303.442.68.536.955.094.276-.02.45-.273.695-.254.245-.648.56-.899.977-.25.417-.356.936-.627 1.247-.272.312-.709.415-1.108.505s-.761.168-1.28.152c-.517-.017-1.192-.128-2.329-.173a39 39 0 0 0-4.338.102c-1.6.127-3.202.361-4.485.714s-2.246.824-3.275.916c-1.03.093-2.124-.193-3.165-.417-1.04-.225-2.025-.39-3.088-.38-1.063.009-2.204.19-3.62.558-1.415.367-3.104.92-4.534 1.595s-2.601 1.473-3.758 2.172c-1.156.7-2.297 1.3-3.038 1.624-.74.323-1.08.37-1.524.372s-.993-.036-1.68.006c-.688.042-1.514.167-2.208.351s-1.256.429-1.578.496-.405-.044-.29-.234c.114-.19.425-.46.57-.778.146-.318.126-.683.086-1.22-.04-.538-.1-1.247-.104-1.882-.005-.634.045-1.194.172-1.663.126-.47.328-.85.402-1.422s.02-1.338-.232-1.877c-.253-.539-.706-.852-.961-1.243s-.313-.861-.485-1.186-.456-.503-.797-.817c-.34-.313-.738-.76-1.05-.99-.31-.23-.535-.241-.678-.298-.143-.058-.204-.16-.303-.191-.098-.03-.234.01-.399.012s-.359-.036-.457-.175c-.099-.14-.102-.38-.093-.733.008-.352.027-.817.092-.957.064-.14.174.047.29.307s.235.595.442.706.5-.002.674-.147c.174-.144.23-.32.224-.441-.005-.122-.072-.188-.023-.237.048-.05.212-.08.428-.092.217-.012.486-.004.686-.038s.33-.11.398-.24c.068-.131.072-.317.063-.573-.009-.257-.03-.583.03-.665.062-.082.207.08.373.168.167.088.356.1.535.053s.349-.154.352-.336-.16-.439-.3-.725c-.14-.285-.256-.6-.272-.798-.016-.2.068-.282.159-.4.09-.119.187-.272.35-.273s.393.147.594.157c.202.01.376-.12.614-.264s.54-.301.685-.52a.66.66 0 0 0-.01-.722c-.141-.22-.411-.377-.632-.503s-.392-.22-.355-.318c.037-.096.281-.195.35-.424.07-.23-.036-.59-.186-.926-.151-.337-.346-.652-.526-.79-.18-.136-.343-.096-.455-.083s-.172-.002-.262-.081c-.09-.08-.211-.223-.372-.264-.16-.04-.362.024-.513.008-.151-.017-.253-.113-.379-.135-.126-.021-.277.032-.353.003-.076-.028-.078-.138-.148-.22-.07-.083-.21-.137-.354-.325-.144-.187-.292-.506-.393-.78-.102-.273-.12-.348-1-1.263-.878-.915-.643-.71-1.622-1.38s-1.087-.663-1.336-.652-.497.017-.694-.034-.34-.159-.586-.244-.591-.147-.908-.278c-.316-.13-.43-.21-.646-.286s-.354-.023-.467-.03S32 .306 31.907.272a.48.48 0 0 0-.309-.002c-.116.034-.249.103-.396.117-.147.013-.308-.03-.417-.04-.11-.01-.168.011-.255.037-.088.027-.205.057-.305.023-.101-.035-.185-.134-.27-.128-.083.005-.167.115-.308.095s-.34-.17-.509-.173M12.413 55.139c.026-.003.038.028.041.066.012.136-.06.308-.188.652-.128.343-.19.463-.248.709-.059.245-.1.56-.21.62s-.242.18-.416.265c-.174.084-.328.263-.348.465s.096.426.21.631c.116.206.23.393.357.518.127.124.265.186.368.344s.168.412.217.62c.048.207.08.369.005.656s-.257.7-.24 1.107c.017.406.23.806.415 1.244.184.439.338.916.4 1.415.063.5.034 1.02-.02 1.614-.053.594-.131 1.262-.22 2.052-.088.789-.188 1.7-.233 2.572a31 31 0 0 0-.008 2.572c.028.862.072 1.75.146 2.658.073.907.174 1.833.345 2.84.172 1.006.414 2.094.593 2.973.18.88.296 1.553.321 2.051.026.5-.04.825-.168 1.423s-.317 1.47-.365 2.004c-.05.534.042.73.244 1.041s.513.736.847 1.227.688 1.048.987 1.732.542 1.495.836 2.232c.293.736.636 1.4.784 1.955s.102 1.003.158 1.576.216 1.271.423 2.045c.207.773.46 1.623.571 2.219s.08.936-.039 1.211c-.119.276-.325.487-.48.77-.155.282-.259.637-.25.917s.13.488.104.667c-.025.18-.196.331-.339.442-.142.111-.255.181-.278.444-.024.262.042.716.096 1.088s.095.663.024.857-.255.29-.45.542-.401.657-.63.97c-.23.313-.48.533-.703.815-.222.283-.415.628-.464.887-.048.26.047.433.016.58s-.19.268-.4.406c-.212.139-.477.295-1.038.408-.562.113-1.419.183-2.032.252s-.98.138-1.233.236-.389.227-.495.234-.183-.109-.229-.037c-.045.072-.06.332-.104.446-.042.114-.113.083-.139-.312-.026-.394-.009-1.153.004-2.417s.02-3.033.024-4.594c.004-1.56.004-2.913.002-4.45-.002-1.535-.006-3.254.002-6.081s.027-6.765.043-9.841.027-5.292.036-6.616.015-1.754.078-2.052.184-.464.32-.621c.135-.158.285-.308.365-.92s.09-1.686.16-2.57c.07-.885.2-1.581.333-1.917s.267-.313.486-.33a2.5 2.5 0 0 0 .769-.18c.246-.107.433-.265.534-.414a.55.55 0 0 0 .086-.45c-.032-.161-.11-.342-.29-.646s-.463-.73-.612-1.017-.164-.433-.112-.547c.051-.114.17-.196.25-.314s.12-.272.008-.494c-.113-.222-.38-.512-.547-.682s-.233-.218-.21-.336c.022-.118.133-.305.138-.479.005-.173-.097-.333-.114-.537-.018-.203.048-.45.006-.65s-.195-.352-.248-.667c-.054-.315-.01-.792-.024-1.2-.015-.409-.089-.748-.071-.954.017-.207.127-.281.111-.468s-.156-.487-.232-.778c-.076-.29-.088-.57-.098-.878-.01-.307-.017-.64.039-.884.055-.243.174-.397.306-.463.131-.065.258.029.433-.02.175-.05.573-.277.728-.43a.9.9 0 0 0 .282-.508c.042-.217.078-.778.17-1.023.064-.164.106-.305.214-.413.04-.055.07-.078.09-.08M60.349 68.6c.342.017.657.11.86.343.85.972.913 5.979.938 6.322.015.205-.044.883.099.975.158.103 3.73-.045 3.895-.126.69-.339 1.711-.148 1.627-.883-.091-.806.59-1.194 1.134-2 .583-.864 1.049-2.129 1.459-2.464.411-.337 2.439-.124 2.87.145.4.25.176 2.031.152 4.377-.009.787.343 1.292.1 1.45a6.6 6.6 0 0 0-1.34 1.12c-.02-.441-.04-.836-.051-1.114-.037-.944-.946-1.205-1.154-1.047-.407.308-1.541 2.201-1.807 2.352-.328.186-4.67 1.465-7.711 1.326-.844-.04-3.704-1.474-3.723-1.482-.715-.298-1.619-.184-1.748-.236-.206-.082-.33-.158-.323-.188v-.001l.001-.002q.006-.008.03-.01c.333-.022 1.798.035 2.13-.118 1.068-.491 2.664-.665 3.666-1.297.159-.1.221-.657.206-.923-.064-1.128-1.904-4.204-1.563-4.983.135-.309-1.216-.578-1.632-1.072-.089-.106.216-.203.862-.35a4 4 0 0 1 1.023-.114m41.499 1.367q.103.003.23.057c1.977.83 5.186 3.895 6.511 4.426 1.935.774 2.145.956 2.33 1.312.184.355.344.885.562 1.105.217.22.493.132.87-.063.378-.196.858-.5 1.395-.692.537-.193 1.133-.276 1.643-.18s.934.373 1.135.657c.201.283.18.576.146.94-.033.363-.077.799-.05 1.102.028.303.127.474.26.543.132.069.298.036 1.791 1.141 1.494 1.105 4.316 3.349 6.097 4.845 1.78 1.497 2.518 2.246 3.285 3.203a62 62 0 0 1 3.45 4.806c2.128 3.333 1.505 2.25 2.638 5.157.57 1.463-1.8.898-3.398 1.562a150 150 0 0 1-6.452 2.487c-2.037.719-3.294 1.055-4.639 1.433-1.345.377-2.778.796-3.83 1.008-1.053.213-1.726.218-2.349.163s-1.196-.17-1.662-.378c-.466-.206-.824-.504-.984-.796s-.448-.438.266-1.813c.459-.883.99-2.147.95-3.422a8.8 8.8 0 0 0-.477-2.444c-.554-1.506-1.357-1.974-1.692-2.231a7 7 0 0 0-1.45-.885c-.643-.288-1.456-.526-2.32-.686-.865-.161-1.78-.245-2.238-.287s-.458-.042-1.744.085c-1.285.126-3.855.378-5.198.535s-1.46.217-2.837.336c-1.378.118-4.019.295-5.805.532s-2.717.535-4.866 1.226c-2.15.692-5.518 1.778-7.453 2.29-1.935.513-2.436.452-2.988.425a13.4 13.4 0 0 0-1.94.05c-.788.071-1.764.21-2.307.344-.543.135-.653.267-2.02-1.59-1.368-1.858-3.993-5.706-5.358-7.702s-1.47-2.141-1.53-2.256-.076-.2-.022-.253c.055-.053.18-.072 1.543-.372 1.365-.3 3.968-.881 5.455-1.177s1.858-.309 2.216-.49.706-.532 1.045-.723.67-.222.9-.294.453-.15.593-.315c.046-.054.107-.09.174-.142.17.333.307.544.29.587-.137.343-.476.718-.87 1.228-.393.51-.841 1.158-1.344 1.51-.503.354-1.06.412-1.433.437-.372.026-.56.018-.591.693-.032.676.09 2.036.289 2.725.197.69.47.709 1.126.334s1.82-1.053 2.638-1.79 1.342-1.492 1.979-2.24c.637-.746 1.262-1.575 1.655-1.994.392-.42.428-.42.47-.252.044.166-.047.607-.233 1.007s-.393.708-.753 1.243c-.36.534-.731 1.188-1.103 1.75-.373.562-.844 1.017-1.055 1.383s-.235.678-.148.872c.086.195.31.322.836.289.527-.033 1.43-.26 2.147-.538s1.32-.642 2.972-1.248c1.653-.606 4.354-1.455 5.827-1.832 1.473-.376 1.718-.28 2.038-.24.32.038.77-.048 1.508-.052.235-.001.764.19 1.11.614.35.429.96.324 1.077.518.075.123-.164.88-.415 1.203-.088.113-.217.104-.28.018-.154-.208-.15-.593-.455-.582-.57.021-.74-.08-.874-.08-.616.004-.701.398-.984.454-.47.093-.746-.112-1.15-.548-.137-.148-.657-.155-.707.264s.257.663.347 1.195.517.52.791.722c.275.2.78.292 2.311.228 1.505-.063 2.23 2.332 3.68 2.04 1.452-.293 4.566-1.123 5.71-1.916 1.106-.767 2.775-.857 4.481-2.467.566-.533 1.43-1.995.691-3.825-.987-2.447-2.467-1.028-3.382-1.662-.797-.552-.345-1.58-.24-1.992.068-.267 1.344-1.49 1.612-.951 1.207 2.436-1.567 2.17-.191 2.522 1.273.326 4.342-1.686 4.48-2.081.335-.953.632-.878 1.009-.924.376-.045.456-.389.539-.657.17-.548.205-1.476.143-2.112s-.166-1.066-1.385-1.614c-3.77-1.694-4.91-1.734-5.274-1.901-.169-.077-.32-.136-.439-.09-.264.103-.578.602-.743.628-.507.081-.57.173-1.056.093-.798-.13-1.957-.84-2.396-1.128-.156-.102-.22-.152-.224-.168v-.001l.38.146c.209.037.452.09 1.212.188.318.042.48.08.565-.1a.89.89 0 0 0 .003-.712c-.113-.229-.191-.204-.61-.283-.42-.078-3.954-.454-4.091-.495-.117-.035 2.643.033 2.833.074l.306.066c.148.032.36-.048.744-.038.421.01.276-.001.841.012s.603-.628 2.656.03c.586.187.583-1.167 1.254-1.139m40.067 24.004c0-.103.508.025.777.02.165-.004.322.028.402.143.116.168.063.529-.18.588-.255.062-.55-.118-.778-.017-.416.187-.693.293-1.081.532-.21.129-.521.675-.745.433-.436-.47-.552-.564-.875-1.012-.097-.135.088-.263.175-.345.287-.175.459-.34.772-.461.312-.12.471-.099.698-.074.297.047.723.282.835.193" style="display:inline;opacity:1;fill:url(#b);stroke-width:.264583" transform="translate(-.186 -.2)"/><path d="m35.186 35.08-.048.008c-.068.015-.203.044-.467.2-.264.158-.656.442-.83.783-.175.341-.132.739-.08 1.035s.116.491.211.602c.096.111.224.139.374.094s.322-.162.504-.175.375.08.537.258.293.443.413.889c.121.446.232 1.074.233 1.55 0 .475-.108.798-.222.964s-.233.174-.366.046c-.134-.128-.282-.39-.519-.618a2.34 2.34 0 0 0-.952-.534 3.3 3.3 0 0 0-1.27-.111 2.8 2.8 0 0 0-1.17.392c-.346.213-.643.507-.794.802-.15.294-.157.588-.064.696.092.108.283.03.563-.012.28-.043.648-.05.9-.035.253.015.389.054.393.158s-.125.274-.153.37.044.117.255.238c.21.12.559.34.807.59.249.248.397.524.483.833.085.31.109.65-.018 1.242a13 13 0 0 1-.594 1.887c-.191.454-.297.52-.37.47s-.114-.218-.274-.41a2.2 2.2 0 0 0-.741-.54c-.303-.134-.63-.189-.907-.097s-.503.33-.657.578c-.154.249-.236.508-.24.712-.004.205.07.355.186.383s.275-.065.45-.128c.177-.064.372-.097.518-.05s.243.173.31.404c.068.231.105.566-.01.948-.117.382-.386.811-.688 1.041s-.637.261-.92.351c-.282.09-.512.238-.677.38-.164.142-.264.279-.225.366.039.088.216.127.51.148s.706.022 1.035.063c.328.04.574.12.7.272.127.152.135.377.064.692-.07.316-.218.724-.446 1.207s-.536 1.043-.71 1.505c-.173.463-.212.83-.247 1.264s-.066.938.032 1.413c.099.476.327.924.557 1.322.23.399.462.748.647 1.056s.323.574.473.854.312.572.412.993.136.97.066 1.28-.247.38-.438.47-.396.199-.5.344c-.105.145-.109.327.072.509.18.182.544.365.781.41s.346-.049.526-.17c.18-.12.432-.269.707-.379s.572-.182.851-.314c.279-.133.538-.326.76-.429.22-.103.404-.117.588-.055s.37.201.438.426.019.537-.065.778a1.2 1.2 0 0 1-.432.594c-.229.184-.568.383-.885.451-.318.069-.614.006-.928.047s-.645.185-1.06.212c-.413.026-.91-.066-1.45-.267-.54-.202-1.122-.514-1.84-.992a18.6 18.6 0 0 1-2.35-1.849c-.78-.728-1.483-1.543-1.977-2.116-.495-.572-.78-.903-.989-1.052-.21-.149-.343-.117-.313.14s.225.738.547 1.453c.321.716.77 1.665 1.182 2.614.412.95.788 1.898 1.015 2.497.227.6.305.85.007 1.47-.299.62-.973 1.612-1.797 2.126-.825.513-1.799.549-2.56.499-.76-.05-1.309-.184-1.98-.34s-1.466-.334-2.052-.5-.961-.319-1.17-.368c-.208-.05-.25.005.357.407.606.402 1.859 1.152 2.884 1.88a18.3 18.3 0 0 1 2.347 1.958c.526.528.779.88.825 1.339s-.116 1.021-.23 1.658c-.112.636-.177 1.345-.52 1.988-.345.643-.968 1.22-1.542 1.666s-1.099.759-1.794 1.105c-.696.345-1.563.723-2.143.968s-.872.356-1.002.434c-.13.077-.096.122.845.018a83 83 0 0 0 4.149-.592c1.358-.235 2.226-.451 2.766-.706.54-.256.752-.55 1.073-.919.32-.368.749-.81 1.143-1.138.395-.327.755-.54.98-.805s.312-.582.357-1.125.046-1.31.154-2.056c.108-.745.323-1.469.546-2.109s.455-1.197.746-1.758c.292-.562.643-1.127 1.058-1.578a5.4 5.4 0 0 1 1.305-1.021c.411-.233.755-.362 1.088-.384s.657.061.884.222c.227.16.357.398.36.643a.9.9 0 0 1-.304.66 1 1 0 0 1-.645.238c-.21 0-.38-.079-.584-.078-.205.001-.444.081-.544.193-.099.112-.058.256-.067.767-.009.51-.067 1.388-.266 2.1-.2.71-.541 1.256-.887 1.607-.346.35-.697.507-.94.612-.244.105-.381.16-.448.338s-.065.48.031.726c.097.246.288.435.483.637.196.203.397.42.52.749.125.329.172.771.243 1.146.07.376.166.683.438 1.167.272.483.72 1.142.976 1.657s.32.888.294 1.271a2.4 2.4 0 0 1-.333 1.072c-.186.295-.44.492-.671.545-.232.052-.442-.04-.614-.193a1.26 1.26 0 0 1-.367-.61c-.064-.24-.058-.503-.146-.731-.087-.228-.268-.42-.747-.704-.478-.284-1.254-.658-1.716-.878s-.61-.287-.971-.118c-.362.168-.937.572-1.421.833-.484.26-.878.38-1.229.412-.35.032-.659-.023-.85-.026-.192-.003-.269.046-.266.158s.085.288.323.432.632.257 1.069.34a5.6 5.6 0 0 0 1.458.099c.539-.037 1.135-.164 1.556-.205.42-.04.666.004.826.136.16.133.234.353.294.607s.104.543.002.802c-.101.26-.348.49-.59.66-.244.17-.482.281-.721.32-.24.037-.481.003-.624.05-.142.046-.185.175-.06.313.125.139.417.287 1.123.323.707.036 1.827-.04 2.59-.038s1.169.085 1.508.252.612.418.764.703c.152.286.183.605.075.883-.109.278-.356.514-.605.66-.248.146-.498.203-.65.291-.152.09-.206.21-.058.326s.5.227.858.22.725-.132 1.064-.312.65-.416.92-.735c.269-.32.494-.724.582-1.13a2.13 2.13 0 0 0-.085-1.155c-.121-.34-.314-.611-.465-.816s-.26-.343-.17-.585c.089-.242.377-.587.592-1.107.216-.52.358-1.216.428-1.754s.068-.918-.112-1.313c-.18-.396-.538-.807-.84-1.23-.3-.423-.544-.857-.663-1.406s-.113-1.211-.043-1.793.204-1.083.423-1.603c.218-.52.52-1.06.9-1.476.378-.416.835-.709 1.21-.867.377-.157.673-.18.99-.104.318.076.657.25 1.01.64s.719.994.974 1.533.4 1.013.52 1.482c.121.468.219.932.233 1.312.013.38-.057.676-.185 1.057-.129.381-.316.847-.566 1.234s-.56.695-.944.936-.837.417-1.129.542-.423.199-.57.402a3.2 3.2 0 0 0-.421.896c-.11.363-.167.756-.17.983-.005.227.044.288.231.218s.513-.272.79-.397c.276-.126.504-.177.921-.262s1.023-.207 1.505-.426c.481-.22.838-.537 1.2-.93.363-.395.731-.864.97-1.305.239-.442.348-.855.516-1.191s.397-.596.653-.867c.256-.272.541-.557.677-.78.137-.223.125-.385.007-.572s-.342-.4-.506-.671a2.7 2.7 0 0 1-.321-.916 3.1 3.1 0 0 1-.019-.952 9 9 0 0 1 .208-1.038c.076-.297.138-.496.07-.741-.068-.246-.267-.538-.493-.766s-.48-.392-.61-.573a.57.57 0 0 1-.062-.57.96.96 0 0 1 .424-.465.69.69 0 0 1 .62-.014c.23.1.483.314.788.6.305.287.662.646.932 1.226.27.581.453 1.384.54 2.255.085.871.073 1.81-.012 2.817s-.243 2.08-.514 2.888c-.272.808-.658 1.35-1.13 1.935-.471.586-1.029 1.215-1.528 1.632s-.939.623-1.65.835a25 25 0 0 1-2.241.534c-.548.101-.661.083-.765.43-.104.345-.2 1.055-.359 1.657s-.38 1.097-.738 1.701-.85 1.318-1.124 1.7c-.273.382-.326.432-.152 1.237.173.805.573 2.364.861 3.569.289 1.204.466 2.053.605 3.12.14 1.067.24 2.352.322 3.089.08.736.141.925.242.83.1-.094.24-.472.338-.849.097-.377.152-.753.22-1.483s.15-1.813.251-2.868.223-2.08.343-2.967c.12-.888.238-1.638.474-2.221s.588-1.001.792-1.27c.204-.267.258-.386.139-.446-.12-.059-.415-.059-.685-.1-.27-.043-.515-.126-.679-.255-.163-.129-.245-.302-.183-.48.062-.177.269-.358.744-.525.474-.166 1.217-.318 1.79-.433s.976-.193 1.425-.123.944.288 1.485.742c.54.454 1.128 1.144 1.707 1.937s1.153 1.69 1.531 2.135c.378.446.561.44.684.375.123-.066.186-.19.158-.403-.027-.212-.144-.512-.337-.928-.193-.415-.462-.945-.73-1.574a13.5 13.5 0 0 1-.697-2.033 10 10 0 0 1-.25-1.764c-.028-.471-.026-.793.177-1.141.204-.35.61-.726.921-1.07s.53-.655.978-.79c.449-.136 1.127-.096 1.852.012.725.107 1.497.28 2.357.538.86.257 1.81.598 2.403.764s.831.16.955.106.133-.153 0-.293c-.132-.139-.407-.318-.716-.553-.31-.235-.655-.525-.965-.721s-.585-.297-.873-.43a7.5 7.5 0 0 1-.918-.511 6.7 6.7 0 0 1-1.051-.828 9.5 9.5 0 0 1-1.027-1.191c-.265-.37-.405-.646-.418-1.081s.103-1.027.258-1.55c.155-.525.35-.981.604-1.281s.568-.445.922-.536c.353-.092.747-.13 1.246-.273.499-.142 1.103-.388 1.833-.573s1.585-.31 2.066-.373c.48-.064.585-.066.644-.137.06-.07.074-.211.072-.313s-.02-.167-.317-.24-.874-.155-1.555-.215-1.467-.096-2.198-.17a26 26 0 0 1-1.993-.285c-.583-.103-1.07-.2-1.502-.351a5 5 0 0 1-1.122-.565c-.315-.208-.568-.42-.721-.6s-.206-.33-.176-.407c.03-.078.144-.086.306-.055.163.032.376.101.576.112.201.01.39-.038.58-.153.188-.116.377-.3.511-.617.135-.318.215-.77.158-1.13a1.38 1.38 0 0 0-.467-.821c-.218-.195-.462-.318-.675-.35a.69.69 0 0 0-.536.136 1.3 1.3 0 0 0-.336.444c-.087.171-.155.353-.286.43-.132.077-.327.049-.495.017-.169-.032-.311-.07-.412-.14a.43.43 0 0 1-.175-.297.65.65 0 0 1 .098-.415c.09-.158.244-.338.416-.51.173-.171.364-.334.522-.513.158-.178.283-.371.329-.57a.9.9 0 0 0-.065-.568 1.1 1.1 0 0 0-.382-.438 2.6 2.6 0 0 0-.717-.362 2.8 2.8 0 0 0-.87-.142c-.262.004-.46.064-.606.188s-.236.31-.213.441c.024.13.162.205.235.322a.53.53 0 0 1 .046.406c-.035.13-.113.229-.245.196-.131-.033-.316-.199-.534-.341-.217-.143-.467-.261-.641-.399a.73.73 0 0 1-.3-.54 2.3 2.3 0 0 1 .107-.863c.09-.28.227-.502.42-.703s.443-.38.755-.443c.313-.063.69-.01 1.194.15.505.161 1.138.43 1.758.837s1.226.95 1.863 1.715a15.2 15.2 0 0 1 1.813 2.758c.508 1.004.855 2.023 1.092 2.61.237.588.363.744.759.898s1.06.306 1.43.33.443-.079.453-.344-.045-.691-.23-1.322a14 14 0 0 0-.984-2.408 21 21 0 0 0-1.892-3.008 22.4 22.4 0 0 0-2.532-2.829 19.7 19.7 0 0 0-2.589-2.06 13 13 0 0 0-1.965-1.055c-.592-.264-1.166-.503-1.58-.593s-.668-.03-.85.092c-.18.122-.29.305-.284.461s.127.285.293.374c.167.09.38.14.571.244.192.103.364.26.424.505s.006.58-.143.81c-.15.23-.395.355-.699.392a2 2 0 0 1-.958-.137c-.293-.124-.515-.32-.612-.567s-.067-.543.07-.874c.136-.332.38-.698.637-1.052.258-.353.528-.695.768-1.173s.448-1.094.615-1.57c.166-.477.291-.814.519-1.059.228-.244.56-.397.858-.6s.563-.455.678-.731.08-.574-.033-.855a1.64 1.64 0 0 0-.554-.72c-.25-.178-.557-.27-.86-.373s-.601-.218-.781-.364-.243-.324-.206-.517a.77.77 0 0 1 .387-.517c.215-.116.507-.14.863-.145.356-.006.775.006 1.117-.064s.607-.223.725-.45.088-.529-.024-.82-.307-.572-.551-.691-.54-.076-.836-.001-.594.182-.91.22a2.2 2.2 0 0 1-.951-.098c-.303-.1-.576-.267-.715-.5-.138-.233-.142-.531-.073-.77.07-.24.212-.422.465-.644s.618-.485.895-.62c.276-.134.465-.14.564-.235.1-.094.11-.277-.002-.43s-.346-.276-.633-.379a3.6 3.6 0 0 0-.978-.204c-.353-.02-.72.02-1.154.123a7 7 0 0 0-1.383.48c-.447.215-.836.48-1.058.68-.22.201-.273.337-.227.507.045.17.19.372.27.63s.099.572.042.864c-.056.291-.187.56-.333.905s-.308.766-.447 1.1c-.138.333-.253.578-.296.767s-.013.321.102.497q.174.264.594.652c.279.258.636.556.927.868s.517.637.7 1.061.324.946.363 1.432c.039.485-.024.933-.18 1.322a2.6 2.6 0 0 1-.705.98 2.75 2.75 0 0 1-.998.566c-.36.112-.74.143-1.126.117a3.7 3.7 0 0 1-1.124-.246 2.3 2.3 0 0 1-.876-.593c-.23-.256-.39-.572-.518-.95a3.7 3.7 0 0 1-.211-1.289c.014-.47.14-.972.361-1.417s.534-.835.84-1.152c.306-.318.604-.564.835-.905a2.6 2.6 0 0 0 .43-1.19c.035-.412-.059-.8-.2-1.137-.14-.337-.327-.623-.443-.868-.116-.244-.16-.447-.13-.793a3.6 3.6 0 0 1 .39-1.328c.256-.493.664-.99 1.139-1.366a4.9 4.9 0 0 1 1.567-.806c.552-.176 1.116-.275 1.443-.381.328-.106.42-.22.409-.392s-.13-.402-.198-.652a2.3 2.3 0 0 1-.066-.807c.023-.286.089-.59.235-.795a.83.83 0 0 1 .58-.337.9.9 0 0 1 .565.14c.175.104.342.248.512.305.17.058.342.029.486-.062.144-.09.26-.243.294-.5.035-.258-.012-.622-.127-.988-.115-.367-.297-.736-.645-.925s-.86-.197-1.278-.201-.74-.004-1.038.132c-.297.137-.57.41-.765.615-.194.205-.31.343-.37.373s-.066-.047-.068-.254a6 6 0 0 1 .052-.9c.051-.359.15-.739.202-1.205.05-.466.053-1.017-.047-1.487s-.305-.858-.572-1.23c-.267-.373-.598-.728-.98-.965s-.814-.355-1.03-.415c-.136-.037-.186-.05-.222-.052zm.754 19.75c-.042 0-.094.008-.197.024-.208.031-.623.094-.957.35s-.588.706-.735 1.175-.188.956-.123 1.314c.065.357.237.585.49.775.252.19.585.342.944.424.358.082.742.093 1.071.029.33-.064.604-.205.851-.441s.465-.57.586-.9.144-.658.07-1.007a2.5 2.5 0 0 0-.473-.995 1.94 1.94 0 0 0-.757-.567c-.26-.11-.51-.15-.635-.169a.7.7 0 0 0-.135-.013zm-6.554 5.306c-.292.01-.591.142-.866.282-.314.16-.597.329-.845.48-.249.15-.434.263-.618.385-.184.121-.335.231-.433.367a.45.45 0 0 0-.056.476c.082.18.286.378.542.527s.565.25.826.288c.26.038.472.013.658-.063.185-.075.344-.202.547-.217s.45.081.677.18c.226.098.43.199.6.32.17.12.307.26.472.27s.36-.112.446-.299.064-.44-.015-.743a5.3 5.3 0 0 0-.367-.958 2.9 2.9 0 0 0-.56-.806c-.24-.238-.554-.453-.884-.486a1 1 0 0 0-.124-.003zm-5.33 3.498c-.182.008-.384.232-.686.552-.387.41-.896.929-1.373 1.532-.478.603-.924 1.291-1.323 1.94-.398.65-.75 1.263-.94 1.605s-.218.414.043.467c.261.052.812.085 1.144.094s.442-.007.662-.338c.22-.332.55-.979.868-1.498.317-.52.623-.91.991-1.337.369-.426.8-.885 1.047-1.163s.312-.373.24-.708-.293-.942-.522-1.099a.24.24 0 0 0-.15-.047zm-5.3 8.973c-.124.005-.244.068-.355.266-.197.35-.37 1.135-.484 1.886a13 13 0 0 0-.15 2.149c.012.69.088 1.361.198 1.993.11.631.255 1.224.374 1.573.12.348.216.454.501.367s.761-.366 1.044-.54.372-.245.39-.44c.017-.195-.037-.514-.116-.943s-.182-.966-.231-1.468a5.8 5.8 0 0 1 .045-1.525c.088-.557.257-1.206.332-1.614.075-.407.056-.573-.17-.806-.224-.234-.655-.537-1.086-.839-.098-.031-.196-.063-.293-.06zm17.004 1.797c-.074.002-.075.001-.14.048a3 3 0 0 0-.41.349c-.21.209-.5.533-.755.933s-.473.873-.62 1.333c-.146.46-.22.906-.176 1.351.044.446.206.89.438 1.252.232.361.534.64.852.792s.65.177.974.172.637-.04.92-.202c.284-.163.538-.454.723-.824s.302-.82.308-1.29c.005-.47-.1-.959-.231-1.416a7.6 7.6 0 0 0-.474-1.255 4.3 4.3 0 0 0-.572-.895c-.177-.2-.321-.279-.467-.316-.147-.038-.296-.034-.37-.032zm17.332 2.672a3 3 0 0 0-.517.042c-.372.059-.788.168-.987.308-.2.14-.182.313-.16.552.024.24.051.545.023.895a6 6 0 0 1-.234 1.157c-.122.413-.271.815-.414 1.18-.143.366-.24.597-.295.727s-.055.13-.059.186a1 1 0 0 0 .028.31c.038.145.12.32.324.462.203.141.527.247.826.356.299.11.573.22.764.188s.298-.208.426-.552c.127-.344.275-.855.44-1.463a24 24 0 0 0 .46-1.946c.115-.635.162-1.2.131-1.594-.03-.394-.137-.617-.355-.725a1 1 0 0 0-.401-.083zM21.029 83.75c-.338-.026-.853.07-1.082.198-.229.129-.172.29.265 1.069.436.779 1.253 2.174 2.28 3.372s2.264 2.197 3.353 2.975c1.09.779 2.031 1.337 3.136 1.793s2.374.81 3.19 1.018c.817.207 1.181.268 1.351.172.17-.095.144-.347.001-.685s-.405-.763-.66-1.01c-.255-.246-.505-.314-.978-.44-.474-.125-1.171-.309-2.066-.663a18 18 0 0 1-2.977-1.513 13.5 13.5 0 0 1-2.618-2.18 15.3 15.3 0 0 1-1.716-2.287c-.396-.639-.607-1.067-.793-1.356-.186-.288-.348-.436-.686-.463zm28.344 1.82a.86.86 0 0 0-.395.09c-.23.122-.376.387-.609.75a9.7 9.7 0 0 1-.967 1.279c-.415.457-.926.911-1.243 1.197-.316.285-.439.402-.467.635s.038.582.102.873.127.525.217.654c.09.128.21.152.652-.158s1.208-.953 1.877-1.579a25 25 0 0 0 1.644-1.694c.404-.461.642-.775.69-1.033.05-.258-.091-.46-.296-.62a2 2 0 0 0-.765-.34 2 2 0 0 0-.44-.054zm-6.944 5.62a.9.9 0 0 0-.341.075c-.267.099-.648.28-.929.426-.28.144-.463.252-.817.355s-.88.202-1.218.3-.487.195-.63.34a4.4 4.4 0 0 0-.414.528c-.095.238-.2.5-.24.697-.038.196-.03.419.095.518.124.1.363.096.895.01a26 26 0 0 0 2.041-.427c.685-.173 1.231-.352 1.683-.569s.81-.47.98-.687.15-.4-.027-.664a3.4 3.4 0 0 0-.754-.778.6.6 0 0 0-.324-.124z" style="display:inline;fill:#000;stroke:#fff;stroke-width:2;stroke-dasharray:none;stroke-opacity:1;paint-order:stroke fill markers" transform="translate(-.186 -.2)"/><path d="M33.197 82.594c-.402-.458-.803-.916-1.125-1.458s-.563-1.167-.742-1.751-.297-1.125-.53-1.542c-.234-.416-.585-.706-.592-.898s.33-.285.608-.413a1.57 1.57 0 0 0 .717-.63c.221-.34.446-.858.626-1.348s.316-.952.336-1.378-.078-.816-.06-.972.154-.081.468-.006.81.149 1.304.128.987-.135 1.484-.593c.498-.458 1-1.26 1.375-2.008.377-.748.627-1.444.692-1.534s-.056.424-.07 1.084.077 1.468.189 2.062c.112.595.244.977.437 1.3.193.322.446.585.854.79.407.206.968.354 1.227.479.258.125.213.226.132.521a7 7 0 0 0-.229 1.215c-.031.43.023.803.145 1.14s.311.64.488.884c.178.245.343.432.372.555.028.122-.081.18-.262.33-.182.149-.435.389-.611.676-.177.288-.276.623-.394.957a5.5 5.5 0 0 1-.444.989c-.19.322-.434.631-.824.956s-.925.664-1.461 1.003m-2.705-31.776c-.192.454-.384.908-.613 1.292s-.493.698-.812 1.062-.694.78-.947 1.171c-.253.392-.386.76-.458 1.284a5.6 5.6 0 0 0 .055 1.85 5 5 0 0 0 .77 1.768c.342.499.74.877 1.231 1.118s1.076.347 1.694.396 1.268.04 1.867-.148c.598-.19 1.143-.56 1.584-1.004.44-.444.776-.963.974-1.612a5.3 5.3 0 0 0 .173-2.117 3.9 3.9 0 0 0-.714-1.83c-.387-.542-.923-1.025-1.305-1.529s-.608-1.028-.835-1.552" style="fill:none;fill-opacity:1;stroke:#fff;stroke-width:.6;stroke-linecap:butt;stroke-linejoin:round;stroke-dasharray:none;stroke-opacity:1;paint-order:stroke fill markers" transform="translate(-.186 -.2)"/><path d="M270.757 58.733c-.113 0-.23.01-.338.04-.214.06-.386.204-.8.43-.416.227-1.074.534-1.811.792-.737.257-1.551.463-2.321.635s-1.495.308-1.871.405-.404.156-.429.342a4 4 0 0 0-.034.668c.013.171.064.203.25.234.188.031.511.062.87.16.358.097.752.26.95.432.2.172.204.351.268 1.894.064 1.544.189 4.452.214 5.89.026 1.438-.049 1.407-.497 1.122s-1.27-.822-2.093-1.167a5.8 5.8 0 0 0-2.543-.462c-.899.035-1.873.257-2.771.612-.899.355-1.721.842-2.343 1.374s-1.042 1.109-1.533 1.908-1.053 1.82-1.412 2.962c-.358 1.142-.514 2.405-.56 3.586-.048 1.18.015 2.28.19 3.33.176 1.051.464 2.053.879 2.938a9.2 9.2 0 0 0 1.512 2.262c.556.61 1.125 1.063 1.774 1.411a7.1 7.1 0 0 0 2.113.725c.734.13 1.475.146 2.165.074a6.1 6.1 0 0 0 1.952-.518c.624-.287 1.232-.7 1.844-1.224.612-.525 1.228-1.16 1.54-1.448.311-.289.32-.23.327.368.008.599.015 1.736.02 2.306.003.569.003.569.212.578s.625.03.935-.052.513-.265 1.523-.63c1.01-.364 2.825-.91 3.747-1.239s.95-.443.967-.634c.017-.19.025-.46-.004-.602s-.096-.157-.341-.152-.67.033-1.004-.011c-.333-.045-.575-.162-.75-.322s-.284-.362-.318-1.003c-.033-.642.01-1.721.006-5.954s-.054-11.62-.037-15.82c.018-4.203.104-5.22.106-5.724s-.08-.498-.25-.505c-.085-.004-.192-.012-.304-.011zm-134.43.065a1.9 1.9 0 0 0-.65.086c-.328.103-.675.313-1.35.622a20.5 20.5 0 0 1-2.695 1.009c-1.012.291-2.03.467-2.54.555-.509.088-.509.088-.508.26s.004.517.033.7.085.204.366.212c.281.007.787.002 1.107.036s.454.108.571.233c.117.126.217.304.295 4.564.077 4.261.132 12.605.135 16.916.003 4.312-.046 4.59-.193 4.853a1.8 1.8 0 0 1-.638.646c-.245.139-.49.17-.715.18-.226.01-.434-.002-.542.008s-.117.044-.128.204c-.01.161-.023.45-.023.605 0 .157.015.181 1.655.2 1.64.018 4.907.031 6.554.028 1.646-.004 1.671-.023 1.683-.186s.01-.47.004-.638c-.005-.167-.014-.194-.231-.222-.218-.027-.643-.056-.91-.115s-.375-.15-.483-.262a2.3 2.3 0 0 1-.295-.377 1.3 1.3 0 0 1-.165-.407c-.033-.15-.046-.321-.068-1.622-.022-1.3-.052-3.73-.063-5.007s-.001-1.403.037-1.482a.24.24 0 0 1 .166-.127c.063-.016.121-.016 1.064 1.304s2.772 3.96 3.753 5.401c.98 1.442 1.114 1.685 1.122 1.917a.8.8 0 0 1-.267.598.96.96 0 0 1-.56.235c-.196.019-.385-.015-.494-.011s-.138.047-.156.205a7 7 0 0 0-.023.591c0 .16.006.208 1.57.23s4.688.018 6.355.018 1.879.002 2.002-.03c.124-.032.16-.1.184-.255.024-.156.035-.401.032-.546s-.02-.191-.176-.265-.45-.177-.721-.279c-.272-.102-.52-.204-.734-.363-.213-.158-.391-.372-.758-.854a136 136 0 0 1-1.769-2.399c-.847-1.169-1.988-2.76-2.934-4.062-.946-1.304-1.698-2.32-2.119-2.898s-.513-.717-.56-.816c-.049-.1-.053-.16-.026-.215.028-.056.086-.109.635-.645.549-.537 1.587-1.557 2.384-2.34s1.351-1.327 1.825-1.741.868-.698 1.23-.882c.363-.185.696-.27 1.107-.324.41-.053.9-.074 1.155-.087.255-.014.276-.02.286-.201.009-.18.006-.536.005-.721s-.001-.2-1.314-.185-3.939.063-5.35.083c-1.413.02-1.611.013-1.72.023-.107.01-.125.038-.134.172a8 8 0 0 0-.004.52c.003.143.01.184.11.203.103.02.302.015.485.04.183.023.35.075.501.145s.288.158.38.28a.65.65 0 0 1 .125.437c-.012.159-.08.32-1.108 1.529a260 260 0 0 1-4.08 4.645c-1.068 1.181-1.22 1.288-1.303 1.341s-.097.05-.1-3.477.005-10.58.004-14.135c0-3.555-.01-3.61-.169-3.641a1 1 0 0 0-.145-.017zm-77.523 1.636c-1.293-.005-1.318-.004-1.335.16-.017.163-.026.49-.007.658.018.168.064.177.362.239.298.061.85.174 1.27.313.419.14.707.305.9.693.193.389.29 1 .322 5.348s-.003 12.432-.024 16.545c-.021 4.112-.03 4.254-.16 4.442-.131.188-.385.423-.662.58a2.3 2.3 0 0 1-.925.273c-.347.036-.741.027-.938.038s-.197.042-.199.187c-.002.146-.006.406.012.542.018.137.058.15 2.882.166s8.433.037 11.563.01 3.782-.098 4.62-.253c.838-.154 1.861-.39 2.818-.742.956-.352 1.845-.82 2.66-1.319a14.7 14.7 0 0 0 2.337-1.738c.78-.712 1.598-1.61 2.222-2.517.624-.908 1.052-1.825 1.447-2.775.396-.95.758-1.93.95-3.312s.212-3.163.107-4.643-.335-2.659-.63-3.67a12.5 12.5 0 0 0-1.082-2.622 10.8 10.8 0 0 0-1.432-2.01c-.518-.568-1.065-1.026-1.787-1.54a19 19 0 0 0-2.523-1.533c-.905-.448-1.82-.773-3.013-1.017-1.194-.245-2.665-.409-4.236-.466s-3.239-.008-4.773.009-2.932 0-4.912-.014-4.54-.027-5.834-.032zm10.153 1.885c.19-.008.41-.006.678.004.535.02 1.252.073 1.93.167.68.094 1.321.23 2.08.456.76.227 1.638.546 2.48.992a9.8 9.8 0 0 1 2.297 1.662c.648.643 1.136 1.356 1.543 2.066s.734 1.416.943 2.055c.21.638.302 1.21.402 1.9s.208 1.5.26 2.21c.05.709.047 1.318.024 2.198s-.065 2.032-.209 3.071a13.7 13.7 0 0 1-.722 2.875c-.332.91-.753 1.806-1.195 2.492s-.909 1.161-1.497 1.635c-.589.473-1.3.945-1.96 1.299a7.7 7.7 0 0 1-1.99.758c-.726.168-1.569.266-2.312.33-.743.065-1.385.095-1.92.08s-.96-.073-1.306-.321c-.345-.248-.61-.685-.726-1.076-.116-.39-.083-.735-.071-1.345s.003-1.485.003-2.794c0-1.31.01-3.053.016-4.705.007-1.652.012-3.213.007-4.79s-.02-3.169-.04-4.913-.045-3.64-.054-4.64-.005-1.103.028-1.18c.032-.076.09-.126.12-.15.029-.025.029-.025.13-.075.1-.05.3-.151.576-.208.138-.028.296-.045.485-.053zm154.435 7.666q-.656.018-1.292.087c-.846.092-1.653.248-2.397.49a7.4 7.4 0 0 0-2.005.981c-.579.414-1.055.913-1.388 1.564-.333.65-.524 1.453-.62 1.855s-.095.402-.091.592c.004.191.011.573.068.913.056.339.161.635.388.837.226.203.573.312 1.044.394a9 9 0 0 0 1.59.127c.523-.01.971-.084 1.316-.207s.587-.294.766-.64c.18-.344.296-.863.339-1.37.043-.506.012-1.001.086-1.525s.253-1.078.52-1.466.622-.61 1.127-.71c.505-.102 1.16-.083 1.652.075.493.158.824.454 1.043.764s.323.634.396 1.454c.072.82.11 2.138.138 2.927.027.79.043 1.05-.111 1.218s-.478.242-1.008.32-1.267.16-2.142.331-1.888.433-2.755.723-1.589.61-2.304 1.072a12 12 0 0 0-1.937 1.588c-.512.522-.828.963-1.054 1.526s-.363 1.25-.39 1.967a6.5 6.5 0 0 0 .263 2.138c.209.672.544 1.268.953 1.775.41.506.892.924 1.516 1.187s1.388.372 2.119.386a7 7 0 0 0 2.058-.25c.629-.181 1.19-.462 1.785-.832.594-.37 1.222-.83 1.72-1.245.5-.415.87-.786 1.065-.893s.214.049.27.396c.057.346.15.885.285 1.282.135.398.31.655.588.906a2.85 2.85 0 0 0 1.098.622c.437.124.927.128 1.461.008.534-.121 1.112-.367 1.657-.643a12 12 0 0 0 1.432-.848c.372-.263.603-.482.749-.792s.208-.71.236-.972c.027-.261.019-.382-.022-.464-.041-.081-.115-.124-.284-.015-.17.109-.435.37-.665.536-.23.165-.425.236-.616.197-.19-.04-.378-.187-.493-.427s-.158-.571-.164-2.518.026-5.51-.04-7.766c-.067-2.257-.23-3.208-.54-4a4.8 4.8 0 0 0-1.374-1.944c-.608-.522-1.369-.936-2.18-1.212-.81-.277-1.671-.418-2.544-.474a15 15 0 0 0-1.312-.025zm-20.708.08a9 9 0 0 0-1.737.158 8.7 8.7 0 0 0-1.598.486 7.5 7.5 0 0 0-1.51.815 9 9 0 0 0-1.561 1.372 7 7 0 0 0-1.045 1.608 8.3 8.3 0 0 0-.615 1.688 6 6 0 0 0-.15 1.728c.032.624.15 1.325.296 1.926.146.6.321 1.099.633 1.578s.76.94 1.327 1.384 1.253.873 1.616 1.119c.362.245.401.307.376.362s-.115.102-.503.279-1.074.485-1.707.898a9.4 9.4 0 0 0-1.64 1.384c-.428.452-.7.838-.824 1.214-.122.376-.095.742.002 1.114.098.373.266.75.53 1.057.266.306.628.54 1.127.744.5.205 1.134.38 1.489.491s.429.158.438.195-.044.065-.352.153c-.308.087-.87.235-1.398.508a5.4 5.4 0 0 0-1.436 1.115c-.413.444-.744.935-.922 1.485-.177.55-.2 1.157-.154 1.707s.164 1.04.462 1.46.778.765 1.347 1.046c.569.28 1.228.495 1.997.688s1.651.364 2.912.427c1.26.062 2.902.016 4.383-.236a15.5 15.5 0 0 0 3.938-1.235c1.137-.529 2.088-1.129 2.803-1.834s1.194-1.517 1.422-2.29.205-1.51.127-2.277c-.078-.765-.21-1.56-.452-2.135s-.592-.93-1.199-1.335c-.606-.406-1.467-.862-2.668-1.197-1.2-.335-2.74-.55-4.242-.719-1.503-.17-2.968-.294-3.85-.415-.88-.121-1.176-.238-1.306-.384s-.096-.322.036-.499c.133-.177.363-.356.613-.517s.522-.303.865-.349.758.005 1.456.025c.7.02 1.681.011 2.704-.188 1.022-.199 2.084-.586 2.946-1.123a6.4 6.4 0 0 0 2.01-1.974c.486-.75.793-1.564.898-2.543.104-.978.005-2.12-.266-3.139s-.714-1.912-.926-2.36c-.173-.363-.193-.432-.19-.445v-.001h.004c.009 0 .009-.001.075-.04a.66.66 0 0 1 .388-.105c.189.012.434.113.682.292.247.18.497.437.797.61.3.174.65.263.972.285s.614-.025.887-.164c.273-.138.526-.368.703-.618.178-.25.28-.518.29-.799.013-.28-.065-.573-.268-.908a3 3 0 0 0-.916-.955 1.97 1.97 0 0 0-1.284-.294c-.454.053-.918.263-1.393.505-.476.241-.963.514-1.266.733-.302.218-.418.381-.518.432s-.181-.012-.458-.222a9.6 9.6 0 0 0-1.325-.875 7.8 7.8 0 0 0-1.93-.707 9 9 0 0 0-1.942-.19zm-104.533.063a2.3 2.3 0 0 0-.392.057c-.25.062-.445.177-.842.378-.397.2-.995.487-1.459.69a9 9 0 0 1-1.197.441c-.405.118-.884.235-1.307.322s-.788.146-.97.175c-.184.03-.184.03-.193.047s-.028.052-.038.204-.012.422.007.575c.018.153.057.19.304.212.246.023.7.032 1.005.112a.76.76 0 0 1 .567.492c.11.262.178.635.22 2.932s.058 6.516.034 8.84-.089 2.752-.24 3.11c-.153.356-.393.642-.692.801-.3.16-.658.195-.875.208s-.293.005-.335.034-.05.095-.058.229a5 5 0 0 0-.014.457c.006.121.027.164 1.675.181 1.65.018 4.926.009 6.7.006 1.773-.004 2.043-.002 2.184-.021.14-.019.152-.057.15-.213a6 6 0 0 0-.039-.585c-.02-.154-.046-.187-.137-.203-.09-.017-.245-.017-.511-.01-.267.006-.646.018-.88.008s-.32-.044-.46-.126a6 6 0 0 1-.474-.318 1.2 1.2 0 0 1-.312-.309 1.7 1.7 0 0 1-.196-.465c-.048-.173-.074-.351-.077-2.273-.003-1.921.015-5.587.02-7.514.004-1.926-.007-2.113.077-2.29.084-.176.263-.342.477-.56s.461-.49.663-.7c.2-.212.355-.361.506-.442.152-.08.301-.092.444-.045a.62.62 0 0 1 .364.328c.083.174.11.415.14.71.028.295.059.643.15.905.09.263.242.44.46.568.218.13.501.21.827.254s.694.049 1.086.034c.39-.015.806-.051 1.144-.16s.598-.29.775-.494c.178-.203.273-.428.354-1.067.08-.638.147-1.691.122-2.446-.025-.754-.141-1.21-.275-1.555a2.3 2.3 0 0 0-.492-.798 2.3 2.3 0 0 0-.736-.532c-.265-.113-.532-.137-.86-.146a3.5 3.5 0 0 0-1.153.129c-.436.132-.92.388-1.373.736a6.5 6.5 0 0 0-1.19 1.206c-.316.42-.525.818-.75 1.199a20 20 0 0 1-.636.995c-.17.25-.267.389-.374.448a.28.28 0 0 1-.287-.006c-.068-.046-.089-.12-.1-.9-.01-.78-.012-2.266-.021-3.029s-.026-.801-.186-.815a2 2 0 0 0-.324-.001zm19.215.012c-.912.014-2.185.088-3.24.33s-1.892.651-2.55 1.153c-.658.503-1.137 1.098-1.377 1.396s-.24.298-.31.473-.209.524-.309.987-.16 1.037-.148 1.481c.011.445.095.759.223 1.01.129.25.301.438.63.559.33.121.816.177 1.42.163.605-.014 1.327-.097 1.816-.23s.745-.316.918-.64c.172-.325.26-.79.34-1.408s.152-1.386.298-1.97.366-.982.593-1.242.457-.384.822-.462a3.7 3.7 0 0 1 1.287-.044c.423.07.77.244 1.111.517.34.274.674.647.816 1.138.143.49.095 1.098.083 1.832s.013 1.594.016 2.156-.017.827-.07.942c-.054.116-.142.083-.738.15-.595.068-1.698.236-2.675.464-.978.228-1.83.516-2.662.833-.83.317-1.64.663-2.366 1.108s-1.373.99-1.856 1.577a4.7 4.7 0 0 0-.986 2.02 7.8 7.8 0 0 0-.112 2.62c.113.836.38 1.53.693 2.055.314.525.674.879 1.1 1.202.428.323.923.615 1.6.76.676.147 1.534.147 2.315.014s1.484-.399 2.372-.965c.888-.565 1.961-1.43 2.525-1.881.563-.45.617-.487.656-.476.039.01.062.067.141.41.08.344.214.975.457 1.506.242.53.593.96 1.052 1.23.458.27 1.026.38 1.559.353s1.03-.193 1.564-.426a13 13 0 0 0 1.6-.844c.498-.308.92-.622 1.125-.837s.189-.33.18-.555-.012-.558-.028-.73-.044-.18-.116-.15a1.3 1.3 0 0 0-.314.218c-.127.115-.268.273-.425.347q-.234.11-.526-.027a1.12 1.12 0 0 1-.542-.53c-.13-.273-.176-.65-.2-2.679-.024-2.027-.027-5.705-.05-7.753-.022-2.047-.065-2.463-.221-2.997-.157-.534-.427-1.186-.765-1.674-.339-.489-.745-.814-1.173-1.11a6 6 0 0 0-1.47-.775c-.594-.21-1.33-.365-1.975-.465-.644-.1-1.196-.148-2.108-.134zm59.125.04a4 4 0 0 0-.475.034c-.285.043-.45.129-.897.315-.448.186-1.177.473-1.954.739a24 24 0 0 1-2.198.646c-.593.135-.954.16-1.314.184l-.176.013c-.033.002-.033.002-.043.032a.8.8 0 0 0-.032.254c-.002.16.028.58.05.767.022.186.04.22.24.225s.58-.016.928.031.664.162.845.303.228.31.284 2.232.12 5.6.157 7.744.05 2.757.057 3.299.01 1.013-.105 1.404a1.74 1.74 0 0 1-.624.91c-.28.21-.609.319-.868.362-.26.042-.448.019-.554.03-.105.012-.126.06-.144.22s-.031.435-.043.608c-.011.172-.02.243.339.25s1.088-.046 2.12-.1a56 56 0 0 1 3.674-.087c1.306.02 2.585.111 3.25.136.666.024.718-.019.747-.16.03-.143.036-.385.02-.531s-.053-.197-.273-.25-.623-.107-.942-.179q-.478-.107-.702-.273c-.149-.11-.213-.243-.257-.43s-.067-.429-.086-1.039-.032-1.588-.037-3.006 0-3.275.015-4.849c.016-1.573.04-2.75.02-3.19-.022-.438-.065-1.315-.028-1.786s.154-.538.426-.68a13 13 0 0 1 1.173-.545 7.3 7.3 0 0 1 1.426-.417 4 4 0 0 1 1.078-.018c.315.03.61.07.933.198.324.129.676.347.95.594.274.246.469.52.6.78.13.26.196.503.244 1.4s.077 2.445.085 4.17-.006 3.628.003 4.867.04 1.813.008 2.318c-.033.505-.128.94-.273 1.259-.146.32-.34.524-.629.641-.288.117-.67.147-.903.165-.231.019-.313.027-.36.054-.049.027-.062.074-.074.163s-.021.222-.01.374c.01.152.041.324.081.417.04.094.089.11.32.087.23-.022.644-.083 1.254-.126.61-.044 1.417-.071 2.345-.09s1.98-.032 2.942-.005 1.838.094 2.336.115.618-.002.684-.024c.065-.022.075-.044.074-.186a10 10 0 0 0-.025-.562c-.013-.156-.027-.204-.16-.23-.134-.025-.387-.027-.616-.06a1.7 1.7 0 0 1-.622-.207 1.6 1.6 0 0 1-.484-.443c-.125-.176-.203-.373-.25-1.25-.048-.877-.066-2.434-.06-4.3s.035-4.041-.003-5.713-.143-2.841-.373-3.747-.584-1.546-1.001-2.073c-.418-.528-.897-.94-1.46-1.222-.564-.28-1.21-.428-1.83-.494a7.6 7.6 0 0 0-1.815.027 8.6 8.6 0 0 0-1.8.425 6.6 6.6 0 0 0-1.69.906c-.59.427-1.25 1.008-1.708 1.393-.46.385-.719.574-.881.664s-.229.083-.269-.494-.053-1.723-.056-2.317.005-.637-.194-.659a4 4 0 0 0-.41-.013zm-16.621.038c-.51.015-1.024.07-1.532.16-1.018.18-2.019.495-2.943 1.078s-1.77 1.432-2.465 2.455a12.8 12.8 0 0 0-1.59 3.358 10.3 10.3 0 0 0-.466 3.432c.035 1.214.257 2.563.594 3.785s.79 2.317 1.355 3.216a7.6 7.6 0 0 0 2.007 2.15 7.8 7.8 0 0 0 2.537 1.205 8.5 8.5 0 0 0 2.895.275c.972-.078 1.919-.335 2.782-.666.864-.332 1.643-.737 2.337-1.296.694-.56 1.302-1.273 1.79-1.988.49-.716.86-1.433 1.135-1.994q.414-.842.53-1.213c.077-.247.05-.336-.001-.397s-.13-.094-.293-.14a3 3 0 0 0-.554-.109c-.142-.005-.179.044-.365.281s-.522.663-.888.978-.762.516-1.265.747c-.504.231-1.116.49-1.787.66a7 7 0 0 1-2.069.206 4.9 4.9 0 0 1-1.918-.51 7.3 7.3 0 0 1-1.888-1.325 6.2 6.2 0 0 1-1.247-1.805 9 9 0 0 1-.676-2.083 12 12 0 0 1-.178-1.677c-.016-.329-.015-.329 2.058-.315s6.22.04 8.284.006c2.064-.035 2.045-.133 1.986-.612-.058-.48-.155-1.34-.415-2.237-.259-.897-.68-1.829-1.253-2.622a6.95 6.95 0 0 0-2.147-1.942 7.9 7.9 0 0 0-2.828-.977 9 9 0 0 0-1.522-.084zm87.8.012a2.77 2.77 0 0 0-1.476.35c-.505.272-1.065.727-1.634 1.41-.57.684-1.148 1.596-1.516 2.12s-.525.659-.624-.081c-.1-.74-.14-2.355-.349-3.135s-.582-.725-1.303-.462c-.72.264-1.788.735-2.792 1.075-1.005.34-1.947.55-2.43.658l-.515.115-.004.001-.001.001c-.006.006-.005.031-.002.162.004.161.012.484.026.674s.033.248.234.285.585.054.867.097.465.111.6.21c.135.1.223.23.312 2.387.09 2.158.18 6.345.197 8.807s-.04 3.201-.209 3.707-.446.779-.755.913c-.309.133-.648.127-.88.116s-.355-.027-.424-.004c-.069.024-.082.087-.077.279.006.191.03.511.047.7.016.189.025.246.58.228s1.658-.111 2.86-.157a59 59 0 0 1 3.756-.008c1.254.035 2.461.1 3.085.113s.666-.029.677-.206a4 4 0 0 0-.034-.673c-.027-.18-.06-.227-.199-.229-.14-.001-.384.043-.661.04a4.6 4.6 0 0 1-.833-.11c-.247-.052-.431-.105-.602-.226a1.8 1.8 0 0 1-.445-.499c-.117-.187-.194-.372-.237-2.34a361 361 0 0 1-.039-7.735c.013-2.01.046-2.278.301-2.654s.732-.86 1.034-1.154c.301-.294.428-.396.584-.36s.34.21.434.424c.093.215.096.472.13.779.035.307.101.665.334.956s.633.514 1.193.642c.561.129 1.284.161 1.842.077s.952-.285 1.247-.77c.294-.485.49-1.254.52-2.111a8.1 8.1 0 0 0-.32-2.51c-.217-.709-.514-1.18-.955-1.475s-1.026-.413-1.544-.427zm-88.3 1.514c.529.007.938.157 1.272.376.335.22.593.508.828.884s.446.84.601 1.512.255 1.55.3 2.011c.046.46.037.502-1.101.513-1.138.01-3.406-.008-4.547-.016-1.14-.007-1.153-.003-1.159-.001s-.006.002.054-.524.18-1.577.36-2.28c.18-.701.42-1.054.69-1.364s.57-.578 1.045-.78a4.5 4.5 0 0 1 1.656-.331zm42.486.372a2 2 0 0 1 .236.008c.186.013.525.04.876.188.351.147.715.415 1.076.868s.72 1.093 1.034 1.841c.314.749.584 1.605.755 2.463.17.857.243 1.714.163 2.422a4.8 4.8 0 0 1-.521 1.672c-.21.404-.397.651-.7.828-.304.176-.723.281-1.147.299s-.854-.051-1.266-.327c-.412-.275-.807-.758-1.173-1.38-.367-.623-.706-1.387-.996-2.28-.291-.895-.534-1.92-.629-2.696a6.4 6.4 0 0 1 .02-1.771c.064-.469.139-.88.377-1.214.238-.335.641-.594.981-.735.34-.14.62-.163.758-.174zm61.476.534c.029 0 .087 0 .243.07s.41.211.706.46.635.609.863 1.043c.228.435.345.946.438 2.294s.164 3.535.143 5.232-.135 2.906-.366 3.702c-.232.795-.583 1.176-.977 1.47s-.83.502-1.428.535a4.2 4.2 0 0 1-1.969-.41c-.61-.301-1.07-.765-1.503-1.385a9.7 9.7 0 0 1-1.114-2.156 8.8 8.8 0 0 1-.49-2.208c-.063-.703-.044-1.366.036-2.155.08-.79.22-1.705.483-2.566.263-.862.65-1.668 1.082-2.29s.912-1.059 1.557-1.3 1.456-.289 1.861-.312c.406-.023.406-.024.435-.024zM119.557 79.92h.028c.15.007.153.17.166 1.041.015 1.072.047 3.216-.01 4.31-.057 1.092-.2 1.135-.599 1.354-.397.218-1.048.612-1.6.783a2.23 2.23 0 0 1-1.422-.015c-.42-.136-.806-.357-1.12-.77s-.557-1.02-.656-1.55a2.75 2.75 0 0 1 .105-1.45c.158-.465.428-.943.755-1.379a5.3 5.3 0 0 1 1.196-1.17 6.4 6.4 0 0 1 1.641-.824 8.7 8.7 0 0 1 1.414-.318q.06-.009.102-.012zm106.287.125c.184.006.183.226.18 1.01-.002 1.089-.01 3.268-.05 4.37-.038 1.104-.11 1.131-.485 1.32-.375.188-1.052.536-1.62.72-.566.186-1.023.206-1.478.084a2.07 2.07 0 0 1-1.231-.887c-.321-.498-.51-1.23-.564-1.862s.025-1.167.202-1.622.453-.832.845-1.203c.393-.372.903-.738 1.653-1.072s1.741-.636 2.237-.787c.139-.043.24-.073.311-.07zM92.848 84.04c.008.317.016.634.135.773.118.14.347.101.576.062zm108.787 8.034c.476-.023.995.005 1.527.046 1.064.081 2.177.213 3.12.395s1.715.414 2.277.695.915.612 1.065.984.098.785-.01 1.167a2.6 2.6 0 0 1-.55 1.039c-.274.307-.657.572-1.125.785-.469.214-1.023.377-1.646.512a9.4 9.4 0 0 1-2.056.238 8.8 8.8 0 0 1-2.198-.302c-.665-.182-1.205-.43-1.69-.787-.486-.357-.916-.822-1.161-1.311-.245-.49-.306-1.003-.128-1.6.177-.596.594-1.276 1.31-1.602.357-.162.789-.236 1.265-.26z" style="opacity:1;fill:#000;fill-opacity:1;stroke:#fff;stroke-width:2;stroke-linecap:butt;stroke-linejoin:round;stroke-dasharray:none;stroke-opacity:1;paint-order:stroke fill markers" transform="translate(-.186 -.2)"/><path d="m277.784 91.184.004-3.204.485-.093.881 3.054v-.003l.949-2.956.4-.004-.018 3.204m-4.475.124V87.95m-1.067-.041h2.076" style="fill:none;fill-opacity:1;stroke:#fff;stroke-width:.499999;stroke-linecap:butt;stroke-linejoin:round;stroke-dasharray:none;stroke-opacity:1;paint-order:stroke fill markers"/></g></svg>