<svg xmlns="http://www.w3.org/2000/svg" xmlns:xlink="http://www.w3.org/1999/xlink" xml:space="preserve" width="942.18" height="486.912" viewBox="0 0 249.285 128.829"><defs><linearGradient id="a"><stop offset="0" style="stop-color:#992305;stop-opacity:1"/><stop offset=".711" style="stop-color:#e9821b;stop-opacity:1"/><stop offset="1" style="stop-color:#c93603;stop-opacity:1"/></linearGradient><linearGradient xlink:href="#a" id="b" x1=".186" x2="249.471" y1="64.615" y2="64.615" gradientUnits="userSpaceOnUse"/></defs><g style="opacity:1"><path d="M29.138.2c-.168-.003-.307.14-.466.198s-.342.03-.488-.02c-.147-.049-.258-.12-.389-.153a.56.56 0 0 0-.383.032c-.102.057-.156.165-.267.2s-.282-.001-.419-.002q-.207-.001-.313.11c-.07.074-.104.187-.18.232-.075.045-.19.022-.318-.033C25.788.708 25.65.62 25.5.575s-.306-.05-.477-.06-.356-.027-.549-.007-.394.078-.445.208.048.335.109.567c.06.231.083.491.077.696a1 1 0 0 1-.145.533c-.107.18-.287.392-.455.672s-.323.627-.43.981c-.107.355-.166.716-.241 1.214s-.165 1.131-.116 1.673c.05.542.24.993.485 1.362.246.37.549.66.684.92.136.262.106.495.051.701s-.135.385-.126.64c.008.255.106.587.256.77s.353.218.499.393.234.49.29.782c.057.291.081.558.157.68.075.122.2.1.299.383s.17.87.223 1.247c.053.376.087.542.302.684.215.141.61.259.933.326.321.067.57.084.641.175s-.033.256-.32.46c-.286.204-.755.446-1.14.7-.386.253-.69.518-.94.673-.251.154-.45.198-.65.214-.202.015-.406.002-.568.048-.161.045-.27.14-.617.403-.345.262-.778.58-1.12.948-.342.367-.454.65-.611.909-.158.259-.352.471-.474.683-.12.212-.169.423-.192.713-.024.29-.024.66-.075.911a.8.8 0 0 1-.334.527c-.177.14-.428.282-.62.434-.194.152-.329.311-.48.476s-.317.334-.45.494c-.135.159-.235.308-.3.438s-.094.242-.16.39-.17.332-.142.457.186.19.285.383.138.513.092.703-.18.25-.204.335c-.025.085.058.195.025.324-.033.13-.184.277-.339.384s-.316.172-.59.301c-.272.129-.657.32-1.042.505-.386.185-.774.362-1.222.64s-.956.656-1.315 1.054c-.36.398-.568.815-.739 1.107-.17.292-.302.459-.43.655-.127.196-.25.42-.268.896-.018.475.07 1.2.196 1.596.124.395.285.46.382.587s.13.313.043.45c-.088.136-.298.223-.5.356a1.9 1.9 0 0 0-.536.522c-.14.21-.225.454-.259.747-.033.293-.016.636-.014.98.001.344-.014.688-.04.885s-.064.246-.19.26-.34-.005-.512.06c-.171.064-.299.214-.427.373-.128.16-.257.328-.314.552-.057.223-.041.502-.004.802s.097.623-.018.812c-.116.188-.405.243-.6.291s-.293.087-.412.248c-.119.16-.258.442-.432.785s-.382.75-.65 1.01c-.27.258-.599.368-.806.638s-.293.7-.537.877-.646.102-.976.214-.588.413-.966.913c-.378.501-.877 1.203-1.432 1.798-.555.596-1.165 1.084-1.57 1.562-.404.477-.603.943-.658 1.35-.055.406.033.754.05 1.194.016.441-.038.976-.027 1.327.01.35.088.515.078.706-.01.192-.109.41-.118.815-.009.406.071 1 .281 1.561s.5 1.011 1.074 1.343c.573.332 1.08.371 1.559.203s.685-.5.827-.758c.103-.19.162-.324.192-.31q.015.008.02.076c.015.18-.012.696-.022 1.22s-.001 1.055-.002 1.576c0 .521-.01 1.017-.024 1.475-.014.457-.032.865-.076 1.072s-.114.212-.23.197-.277-.052-.402-.046-.215.054-.302.278c-.088.225-.173.627-.221.897s-.057.41-.092.544-.094.264-.335.27c-.242.008-.664-.108-.991-.167a2.5 2.5 0 0 0-.754-.038c-.198.023-.363.07-.47.274-.108.205-.158.566-.179.947s-.014.782-.081 1.01-.207.283-.36.361a.77.77 0 0 0-.428.478c-.106.297-.151.79-.123 1.165.028.376.13.636.339.796s.524.22.788.295q.395.113.638.286c.162.116.273.256.468.287.194.031.47-.047.77-.04.298.008.618.102.901.175.284.074.532.128.792.175s.531.087.77.117c.237.03.441.05.605.07s.288.04.338.209.027.487.035.84c.008.351.048.737-.003.931s-.196.198-.446-.028c-.25-.225-.606-.678-.838-.928s-.338-.295-.646-.316-.818-.02-1.135.103-.443.368-.533.584-.143.404-.103.82c.04.417.173 1.064.386 1.71s.506 1.29.613 1.882c.108.593.03 1.133.047 1.59.016.458.126.833.182 1.377.055.545.055 1.258-.011 2.104s-.199 1.826-.288 3.242c-.09 1.416-.137 3.27-.178 6.526s-.077 7.91-.109 11.522-.06 6.18-.112 8.56-.13 4.571-.187 6.349a331 331 0 0 0-.111 3.896c-.014.755-.004.899.414 1.837.417.938 1.242 2.67 1.714 3.548.473.878.594.904.707.89.114-.013.22-.065.765-.968.546-.903 1.53-2.654 2.036-3.582.506-.929.532-1.033.5-2.044-.03-1.01-.12-2.928-.14-3.885-.02-.958.03-.955.41-.727s1.09.681 2.001.955c.912.274 2.024.369 3.15.478 1.124.11 2.256.233 3.19.157.933-.077 1.663-.353 2.282-.54.619-.189 1.126-.287 1.788-.398.661-.11 1.477-.231 2.32-.35s1.714-.234 2.478-.422c.763-.187 1.43-.396 1.836-.597s.47-.16.567-.458c.038-.117-.008-.225-.086-.453-.089-.26-.274-.734-.332-.907-.108-.324-.099-.494-.037-.565.062-.072.175-.046.338-.002.163.043.375.103.444.253.07.15-.003.39-.06.785a10 10 0 0 0-.093 1.396c.005.452.058.809-.184 1.183-.24.374-.775.766-1.492 1.085-.717.32-1.615.568-2.282.756-.667.187-1.103.314-1.337.562s-.267.617-.284 1.022-.016.846.158 1.224c.173.378.52.694 1.208 1.186.689.492 1.719 1.161 2.563 1.537a5.7 5.7 0 0 0 2.068.493c.566.037 1.039.03 1.597-.013.559-.042 1.204-.12 1.959-.218.755-.1 1.62-.22 2.483-.499.863-.278 1.723-.714 2.368-1.334s1.074-1.425 1.408-1.824c.333-.4.57-.394.998-.35.427.044 1.044.126 1.615.099a3.7 3.7 0 0 0 1.543-.4c.45-.234.824-.565 1.012-.857.187-.292.187-.546.132-.987s-.166-1.069-.306-1.493-.312-.645-.447-.835-.234-.35-.396-.411c-.163-.06-.389-.022-.493.072-.105.093-.089.242-.24.195-.152-.047-.472-.29-.742-.538s-.49-.5-.628-.815-.193-.69-.276-1.014c-.082-.326-.193-.601-.132-.734.06-.132.292-.12.427-.166.136-.045.176-.146.144-.736a48 48 0 0 0-.235-2.506c-.1-.836-.195-1.428-.504-2.337-.309-.908-.831-2.132-.956-2.943s.148-1.208.39-1.488c.241-.281.452-.445.456-1.049s-.199-1.649-.647-2.946-1.142-2.85-1.505-3.703c-.362-.854-.393-1.01-.086-1.102s.955-.122 1.278-.136.323-.015.906.84c.583.854 1.749 2.563 2.866 4.062a60 60 0 0 0 3.25 3.992 48 48 0 0 0 3.265 3.37c1.134 1.052 2.338 2.042 3.668 2.904a23 23 0 0 0 4.26 2.157c1.477.563 2.978.957 4.825 1.218 1.848.26 4.042.39 5.866.343s3.278-.27 5.272-.836c1.994-.567 4.527-1.48 7.028-2.34 2.5-.862 4.967-1.673 7.148-2.316s4.075-1.118 5.474-1.407 2.304-.39 3.116-.343 1.534.242 1.963.569.565.787.427 1.546c-.139.758-.552 1.814-.74 2.777-.19.962-.155 1.831.205 2.517.361.686 1.047 1.19 2.002 1.589.955.4 2.179.696 4.065.707s4.436-.261 6.899-.754 4.841-1.206 7.575-2.106 5.824-1.986 8.421-3.019c2.597-1.032 4.7-2.01 5.791-2.524 1.092-.513 1.172-.56 1.19-.447s-.024.39-.098.639c-.074.25-.179.473-.078.65.1.176.406.305 1.046.602s1.612.762 2.542 1.498c.93.737 1.819 1.745 2.526 2.711.706.967 1.231 1.891 1.65 2.944.42 1.052.732 2.232.994 2.935s.473.93.664 1.018.362.04.51-.182c.147-.221.27-.615.068-1.656-.204-1.04-.734-2.728-.985-3.76-.25-1.032-.222-1.408-.132-1.769.09-.36.243-.704.55-.975.309-.271.772-.468 1.022-.68.25-.21.288-.436.294-.67s-.018-.48-.131-.649c-.114-.168-.316-.261-.467-.18-.152.08-.254.335-.543.17-.29-.164-.766-.75-1.18-1.272s-.764-.982-1.11-1.557c-.344-.575-.683-1.265-.86-1.806-.178-.542-.194-.936-.075-1.19.12-.256.372-.373.655-.516.283-.142 1.623-.66 1.775-.745 1.166-.663 4.437-2.62 4.92-2.953 1.175-.808 3.644-2.3 4.948-2.963.91-.462.426-.413 1.875.25 1.334.585 2.755 1.21 3.366 1.502s1.285.753 1.788 1.078c.504.324 1.073.546 1.753 1.095.68.55 1.686 1.514 2.17 1.9.674.538.897.916 1.242 1.115s.753.215.915.1c.161-.115.185-.485.067-.898-.119-.413-.602-.71-1.126-1.452-.278-.392-1.65-1.626-2.597-3.041-.785-1.176-.864-2.29-.698-2.971.212-.87 1.042-1.695 2.479-2.178 1.104-.372 2.691-.823 3.13-1.11.581-.381.873-.541 1.313-.64.431-.098 1.063-.292 1.692-.53.628-.24 1.076-.645 1.47-.912s.732-.396 1.145-.418c.412-.022.897.061 1.244-.06.347-.12.556-.446.687-.739.132-.293.186-.554.508-.817a3.34 3.34 0 0 1 1.689-.701c.847-.105 1.752-.281 3.255.251.861.305 1.931.685 2.879.715 1.59.05 3.421-1.364 5.197-1.537 2.834-.277 5.508-.931 7.485-.985s3.035-.382 4.173-.332 2.345.116 3.267.153c.923.037 1.562.044 1.942-.06.38-.106.5-.324.532-.547a.595.595 0 0 0-.273-.613c-.245-.166-.678-.271-1.103-.427a4.4 4.4 0 0 1-1.267-.7c-.425-.337-.857-.805-.993-1.091-.137-.287.023-.392.346-.49a6 6 0 0 1 1.431-.21c.62-.024 1.372.02 1.912.033s.867.127 2.446.281c1.578.154 4.43.875 6.331 1.171 1.9.296 2.87.144 5.977.965 3.156.833 8.42 2.508 11.477 3.575s3.884 1.62 5.013 2.022c1.13.403 2.563.656 3.764.883s2.169.427 3.31.811c1.14.385 2.454.954 3.301 1.256.848.302 1.23.338 1.444.28.215-.06.261-.212.271-.406s-.017-.433-.403-.73c-.386-.295-1.13-.65-2.265-1.262-1.134-.612-2.658-1.481-3.784-2.105-1.127-.624-1.856-1.002-2.875-1.43-1.02-.429-2.329-.909-3.975-1.563-1.647-.655-3.631-1.485-6.795-2.628s-7.508-2.598-10.176-3.462c-2.667-.863-3.658-1.136-4.791-1.4-1.134-.265-2.41-.521-4.74-.983-2.332-.463-5.719-1.13-8.269-1.648s-4.262-.885-5.58-1.097c-1.318-.213-2.24-.27-2.62-.581s.072-.346.434-2.908c.107-.762.196-1.786.159-2.392-.05-.825-1.271-1.004-1.165-2.597.025-.363.294-.868.74-1.83.11-.237-.102-1.31.9-1.49 1.04-.186 1.88-.32 2.934-.829.562-.27.709-.888 1.72-.93.518-.022 1.446.626 2.02.534.472-.076.888-.147.905-.551.012-.279.153-.647-.36-1.196-.513-.55-1.593-1.497-2.068-2.137s-.346-.97-.07-1.148.696-.202 1.1-.238.79-.083 1.225.01c.436.092.92.324 1.276.404s.582.008.558-.262-.296-.739-.652-1.222c-.357-.482-.797-.979-1.047-1.289s-.308-.433-.218-.608c.089-.175.326-.4.761-.64.436-.238 1.07-.489 1.55-.512.478-.023.803.181 1.39.256.587.074 1.436.019 2.574-.304s2.565-.912 3.58-1.08 1.62.085 2.178.243c.557.159 1.067.222 1.42.205.353-.016.548-.113.565-.252s-.146-.32-.528-.661c-.381-.34-.982-.839-1.088-1.312-.107-.472.282-.919.9-1.237.62-.319 1.468-.509 2.568-.804s2.45-.694 4.115-.955c1.665-.26 3.644-.381 5.587-.416s3.85.018 5.629.146c1.779.129 3.43.332 4.312.37.882.04.995-.087.537-.388-.457-.3-1.485-.774-2.57-1.234s-2.225-.907-3.737-1.3-3.394-.732-5.15-.956c-1.756-.225-3.384-.335-4.629-.349s-2.104.069-2.904.047a9.6 9.6 0 0 1-1.985-.262c-.442-.113-.586-.212-.606-.375s.08-.388-.11-.556-.674-.279-1.23-.33a9.7 9.7 0 0 0-1.906.038c-.722.078-1.536.224-2.396.44-.861.216-1.768.5-2.386.77s-.947.523-1.328.62-.814.036-1.206-.105c-.39-.142-.74-.364-1.444-.493-.705-.13-1.766-.167-2.435-.09-.669.076-.946.266-1.187.352s-.45.064-.834-.082c-.386-.146-.95-.419-1.695-.49-.745-.07-1.672.06-2.735.52s-2.262 1.25-3.285 2.11a15.6 15.6 0 0 0-2.67 2.897c-.799 1.107-1.547 2.39-2.134 3.287s-1.011 1.407-1.554 2.204-1.204 1.88-1.92 2.97c-.718 1.09-1.492 2.185-2.531 3.662s-2.346 3.337-3.336 4.672a55 55 0 0 1-2.334 2.942c-.67.797-1.338 1.58-1.922 2.312-.585.73-1.087 1.409-1.471 1.765-.384.357-.65.392-1.477.317s-2.217-.26-3.392-.315-2.135.021-2.659.01c-.523-.01-.609-.108-.483-.325.125-.217.463-.554.732-.864.27-.31.473-.592.393-.95s-.442-.791-1.308-1.183-2.237-.742-3.495-1.005-2.404-.438-4.306-.71c-1.902-.274-4.56-.644-6.534-.918-1.974-.275-3.263-.453-4.551-.854-1.289-.402-2.575-1.026-3.68-1.561-1.106-.535-2.03-.98-3.445-2.382-1.415-1.4-3.32-3.758-4.723-5.382s-2.302-2.515-3.317-3.405-2.145-1.777-3.148-2.595-1.88-1.568-2.844-2.312c-.965-.744-2.018-1.483-2.748-2.026s-1.138-.89-1.213-1.105c-.074-.215.185-.298.68-.299.495 0 1.225.08 1.824-.127.6-.208 1.068-.705 1.536-1.201.129-.208.255-.411.356-.537.102-.126.173-.164.34-.176.166-.013.611.004.673.006s.062.002.164-.024.814-.206 1.273-.41c.46-.203.92-.494 1.297-.73s.667-.417 1.002-.365c.336.052.714.337 1.056.652s.646.66.93.843c.283.183.546.204.733.196s.296-.046.345-.27.038-.636-.156-1.098c-.193-.462-.568-.975-.998-1.526s-.915-1.14-1.326-1.543c-.41-.403-.747-.618-1.215-.731s-1.07-.124-1.954-.132c-.885-.009-2.053-.014-2.704.085-.65.1-.783.303-.797.469-.013.165.092.292.006.466-.085.173-.36.394-.658.612s-.618.432-.993.573c-.374.14-.804.206-1.167.184-.364-.022-.66-.132-1.076-.203s-.952-.105-1.508-.12-1.132-.01-1.442.112c-.309.123-.351.365-.405.363-.054-.001-.119-.246-.592-.365-.474-.119-1.356-.113-1.935-.023-.58.09-.856.265-1.175.457-.318.191-.678.4-.984.687-.307.287-.56.653-.789.863s-.434.264-2.373.296c-1.939.033-5.612.044-8.374.152s-4.614.314-6.957.568-5.177.558-7.95.988-5.485.984-8.006 1.578a119 119 0 0 0-6.987 1.871 136 136 0 0 0-5.421 1.764c-1.354.471-2.125.763-3.114 1.133-.99.369-2.197.815-3.2 1.188-1.003.372-1.803.67-2.348.886-.546.216-.837.351-1.051.446-.215.095-.352.15-.421.079-.07-.07-.07-.266.058-.465.13-.2.388-.403.64-.66.25-.257.493-.567.662-.898.168-.33.26-.682.514-.946s.667-.44.984-.609.537-.328.967-.413c.43-.086 1.07-.097 1.723-.116s1.32-.047 1.912-.097c.593-.05 1.111-.12 1.77-.393s1.458-.748 2.102-1.151c.643-.404 1.132-.737 1.87-.873.74-.136 1.728-.076 2.567-.193.838-.118 1.528-.413 2.298-.909s1.622-1.192 2.135-1.78c.512-.586.686-1.064.828-1.385.142-.322.252-.489.611-.738.359-.25.967-.582 1.368-.962s.596-.807.67-1.181c.074-.375.027-.696.046-.9.019-.203.104-.289.35-.314.245-.025.652.01 1.223-.058.571-.067 1.307-.238 2.08-.509.771-.27 1.58-.64 2.367-1.062s1.553-.897 2.183-1.165c.63-.269 1.124-.332 1.595-.222s.917.393 1.455.962c.537.568 1.166 1.422 1.77 1.896.603.473 1.181.565 1.87.545s1.488-.153 2.124-.313c.635-.16 1.107-.348 1.75-.897.643-.55 1.458-1.46 1.929-1.986.47-.526.596-.667.852-.701.255-.034.64.038 1.057.013.418-.025.87-.146 1.165-.339.294-.192.432-.456.733-.533.302-.077.767.034 1.357.19s1.302.358 1.82.31c.516-.048.835-.346 1.322-.64s1.143-.588 1.68-.654.954.092 1.618.415 1.574.81 2.138 1.051.78.234.92.132c.142-.103.207-.302.193-.468-.013-.165-.105-.297-.283-.57-.179-.272-.443-.685-.488-.996s.129-.52.364-.743.532-.461.653-.666c.122-.205.07-.376-.176-.626-.247-.251-.687-.582-.972-.696-.286-.115-.417-.015-.62.103a3.6 3.6 0 0 1-.763.338c-.286.084-.586.117-.737-.012-.15-.129-.152-.392-.192-.608s-.077-.268-.497-.394-.696-.165-1.191-.264c-.495-.1-.877-.204-1.131-.25-.255-.046-.308-.019-.356.092-.05.111-.087.298-.155.53s-.165.51-.363.654-.496.156-.636.024-.12-.41-.172-.657c-.053-.248-.164-.443-.358-.654a3.6 3.6 0 0 0-.598-.5c-.208-.148-.381-.267-.383-.33 0-.061.169-.065.323-.098.155-.033.293-.096.44-.179.146-.083.3-.187.363-.365.063-.179.034-.431.12-.555s.284-.121.492-.127c.207-.007.422-.023.403.05-.02.073-.272.236-.407.44s-.152.449-.059.624.297.28.634.312.807-.008 1.155-.077.574-.166.766-.161c.192.004.349.112.526.181.177.07.375.102.767.183s.979.212 1.428.285.76.088.97.124c.209.035.316.09.402.199.087.108.153.269.181.437.028.169.017.345.05.472s.11.204.187.287.155.17.3.203c.146.032.36.009.523-.085.163-.093.273-.257.409-.38.135-.124.295-.207.434-.29.139-.084.254-.167.52-.269.266-.101.614-.2.963-.27s.542-.081.702-.164a.52.52 0 0 0 .276-.366c.017-.129-.048-.234-.108-.336a3 3 0 0 1-.197-.385 4.5 4.5 0 0 1-.25-.76c-.068-.3-.102-.63-.093-.898.008-.269.059-.477 0-.602-.06-.124-.23-.165-.373-.16s-.258.058-.406.151c-.149.094-.33.23-.524.29-.194.061-.399.047-.745-.195-.347-.24-.834-.708-1.16-1.02-.327-.313-.493-.47-.649-.568-.156-.096-.302-.133-.536-.167s-.557-.066-.794-.19-.389-.34-.544-.627-.316-.644-.458-.834-.266-.214-.533-.178-.647.126-.953.066-.491-.262-.652-.489-.269-.426-.539-.7-.518-.44-.93-.682c-.411-.242-.837-.467-1.418-.923-.58-.457-1.29-1.13-1.717-1.502s-.57-.441-.864-.479c-.293-.037-.736-.042-1.313.018s-1.288.185-2.068.115a6.2 6.2 0 0 1-2.338-.725 6.9 6.9 0 0 1-1.683-1.322 5.6 5.6 0 0 1-.769-1.019c-.148-.249-.22-.404-.333-.43-.114-.028-.271.074-.38.188s-.17.241-.277.149c-.108-.093-.262-.404-.468-.695s-.466-.562-.665-.83c-.2-.266-.34-.53-.476-.636s-.265-.054-.321.05c-.057.103-.04.257-.175.235s-.423-.22-.809-.48a10 10 0 0 0-1.49-.864 9.7 9.7 0 0 0-1.986-.639 6 6 0 0 0-1.567-.097c-.47.027-.934.086-1.285.33-.352.243-.592.671-.683 1.092-.091.42-.034.831.049 1.22.082.389.19.754.358 1.112.168.357.395.707.499.932s.085.324.006.361c-.078.037-.216.012-.533-.208s-.813-.636-1.313-.927-1.002-.457-1.906-.683-2.21-.515-2.986-.6c-.778-.086-1.027.031-1.16.15a.38.38 0 0 0-.133.373c.018.133.07.28.186.425.114.146.291.289.597.443s.741.32 1.163.543c.421.224.83.505 1.124.761s.477.488.598.823c.12.336.179.775.319.962s.362.121.675.286c.312.164.715.558 1.01.906s.483.65.676.905c.192.255.39.464.62.566.228.102.487.097.712.034s.414-.183.64-.196.488.078.9.213c.413.134.975.31 1.316.374.342.063.464.013.483-.133.02-.146-.064-.388-.298-.786s-.62-.952-.822-1.269c-.15-.237-.197-.343-.183-.365l.002-.002h.001q.01-.004.03.007c.066.037.215.191.369.362s.314.358.584.45c.27.09.65.085.893.14.242.055.347.171.392.345.044.173.027.405.17.709.141.303.442.68.536.955.094.276-.02.45-.273.695-.254.245-.648.56-.899.977-.25.417-.356.936-.627 1.247-.272.312-.709.415-1.108.505s-.761.168-1.28.152c-.517-.017-1.192-.128-2.329-.173a39 39 0 0 0-4.338.102c-1.6.127-3.202.361-4.485.714s-2.246.824-3.275.916c-1.03.093-2.124-.193-3.165-.417-1.04-.225-2.025-.39-3.088-.38-1.063.009-2.204.19-3.62.558-1.415.367-3.104.92-4.534 1.595s-2.601 1.473-3.758 2.172c-1.156.7-2.297 1.3-3.038 1.624-.74.323-1.08.37-1.524.372s-.993-.036-1.68.006c-.688.042-1.514.167-2.208.351s-1.256.429-1.578.496-.405-.044-.29-.234c.114-.19.425-.46.57-.778.146-.318.126-.683.086-1.22-.04-.538-.1-1.247-.104-1.882-.005-.634.045-1.194.172-1.663.126-.47.328-.85.402-1.422s.02-1.338-.232-1.877c-.253-.539-.706-.852-.961-1.243s-.313-.861-.485-1.186-.456-.503-.797-.817c-.34-.313-.738-.76-1.05-.99-.31-.23-.535-.241-.678-.298-.143-.058-.204-.16-.303-.191-.098-.03-.234.01-.399.012s-.359-.036-.457-.175c-.099-.14-.102-.38-.093-.733.008-.352.027-.817.092-.957.064-.14.174.047.29.307s.235.595.442.706.5-.002.674-.147c.174-.144.23-.32.224-.441-.005-.122-.072-.188-.023-.237.048-.05.212-.08.428-.092.217-.012.486-.004.686-.038s.33-.11.398-.24c.068-.131.072-.317.063-.573-.009-.257-.03-.583.03-.665.062-.082.207.08.373.168.167.088.356.1.535.053s.349-.154.352-.336-.16-.439-.3-.725c-.14-.285-.256-.6-.272-.798-.016-.2.068-.282.159-.4.09-.119.187-.272.35-.273s.393.147.594.157c.202.01.376-.12.614-.264s.54-.301.685-.52a.66.66 0 0 0-.01-.722c-.141-.22-.411-.377-.632-.503s-.392-.22-.355-.318c.037-.096.281-.195.35-.424.07-.23-.036-.59-.186-.926-.151-.337-.346-.652-.526-.79-.18-.136-.343-.096-.455-.083s-.172-.002-.262-.081c-.09-.08-.211-.223-.372-.264-.16-.04-.362.024-.513.008-.151-.017-.253-.113-.379-.135-.126-.021-.277.032-.353.003-.076-.028-.078-.138-.148-.22-.07-.083-.21-.137-.354-.325-.144-.187-.292-.506-.393-.78-.102-.273-.12-.348-1-1.263-.878-.915-.643-.71-1.622-1.38s-1.087-.663-1.336-.652-.497.017-.694-.034-.34-.159-.586-.244-.591-.147-.908-.278c-.316-.13-.43-.21-.646-.286s-.354-.023-.467-.03S32 .306 31.907.272a.48.48 0 0 0-.309-.002c-.116.034-.249.103-.396.117-.147.013-.308-.03-.417-.04-.11-.01-.168.011-.255.037-.088.027-.205.057-.305.023-.101-.035-.185-.134-.27-.128-.083.005-.167.115-.308.095s-.34-.17-.509-.173M12.413 55.139c.026-.003.038.028.041.066.012.136-.06.308-.188.652-.128.343-.19.463-.248.709-.059.245-.1.56-.21.62s-.242.18-.416.265c-.174.084-.328.263-.348.465s.096.426.21.631c.116.206.23.393.357.518.127.124.265.186.368.344s.168.412.217.62c.048.207.08.369.005.656s-.257.7-.24 1.107c.017.406.23.806.415 1.244.184.439.338.916.4 1.415.063.5.034 1.02-.02 1.614-.053.594-.131 1.262-.22 2.052-.088.789-.188 1.7-.233 2.572a31 31 0 0 0-.008 2.572c.028.862.072 1.75.146 2.658.073.907.174 1.833.345 2.84.172 1.006.414 2.094.593 2.973.18.88.296 1.553.321 2.051.026.5-.04.825-.168 1.423s-.317 1.47-.365 2.004c-.05.534.042.73.244 1.041s.513.736.847 1.227.688 1.048.987 1.732.542 1.495.836 2.232c.293.736.636 1.4.784 1.955s.102 1.003.158 1.576.216 1.271.423 2.045c.207.773.46 1.623.571 2.219s.08.936-.039 1.211c-.119.276-.325.487-.48.77-.155.282-.259.637-.25.917s.13.488.104.667c-.025.18-.196.331-.339.442-.142.111-.255.181-.278.444-.024.262.042.716.096 1.088s.095.663.024.857-.255.29-.45.542-.401.657-.63.97c-.23.313-.48.533-.703.815-.222.283-.415.628-.464.887-.048.26.047.433.016.58s-.19.268-.4.406c-.212.139-.477.295-1.038.408-.562.113-1.419.183-2.032.252s-.98.138-1.233.236-.389.227-.495.234-.183-.109-.229-.037c-.045.072-.06.332-.104.446-.042.114-.113.083-.139-.312-.026-.394-.009-1.153.004-2.417s.02-3.033.024-4.594c.004-1.56.004-2.913.002-4.45-.002-1.535-.006-3.254.002-6.081s.027-6.765.043-9.841.027-5.292.036-6.616.015-1.754.078-2.052.184-.464.32-.621c.135-.158.285-.308.365-.92s.09-1.686.16-2.57c.07-.885.2-1.581.333-1.917s.267-.313.486-.33a2.5 2.5 0 0 0 .769-.18c.246-.107.433-.265.534-.414a.55.55 0 0 0 .086-.45c-.032-.161-.11-.342-.29-.646s-.463-.73-.612-1.017-.164-.433-.112-.547c.051-.114.17-.196.25-.314s.12-.272.008-.494c-.113-.222-.38-.512-.547-.682s-.233-.218-.21-.336c.022-.118.133-.305.138-.479.005-.173-.097-.333-.114-.537-.018-.203.048-.45.006-.65s-.195-.352-.248-.667c-.054-.315-.01-.792-.024-1.2-.015-.409-.089-.748-.071-.954.017-.207.127-.281.111-.468s-.156-.487-.232-.778c-.076-.29-.088-.57-.098-.878-.01-.307-.017-.64.039-.884.055-.243.174-.397.306-.463.131-.065.258.029.433-.02.175-.05.573-.277.728-.43a.9.9 0 0 0 .282-.508c.042-.217.078-.778.17-1.023.064-.164.106-.305.214-.413.04-.055.07-.078.09-.08M60.349 68.6c.342.017.657.11.86.343.85.972.913 5.979.938 6.322.015.205-.044.883.099.975.158.103 3.73-.045 3.895-.126.69-.339 1.711-.148 1.627-.883-.091-.806.59-1.194 1.134-2 .583-.864 1.049-2.129 1.459-2.464.411-.337 2.439-.124 2.87.145.4.25.176 2.031.152 4.377-.009.787.343 1.292.1 1.45a6.6 6.6 0 0 0-1.34 1.12c-.02-.441-.04-.836-.051-1.114-.037-.944-.946-1.205-1.154-1.047-.407.308-1.541 2.201-1.807 2.352-.328.186-4.67 1.465-7.711 1.326-.844-.04-3.704-1.474-3.723-1.482-.715-.298-1.619-.184-1.748-.236-.206-.082-.33-.158-.323-.188v-.001l.001-.002q.006-.008.03-.01c.333-.022 1.798.035 2.13-.118 1.068-.491 2.664-.665 3.666-1.297.159-.1.221-.657.206-.923-.064-1.128-1.904-4.204-1.563-4.983.135-.309-1.216-.578-1.632-1.072-.089-.106.216-.203.862-.35a4 4 0 0 1 1.023-.114m41.499 1.367q.103.003.23.057c1.977.83 5.186 3.895 6.511 4.426 1.935.774 2.145.956 2.33 1.312.184.355.344.885.562 1.105.217.22.493.132.87-.063.378-.196.858-.5 1.395-.692.537-.193 1.133-.276 1.643-.18s.934.373 1.135.657c.201.283.18.576.146.94-.033.363-.077.799-.05 1.102.028.303.127.474.26.543.132.069.298.036 1.791 1.141 1.494 1.105 4.316 3.349 6.097 4.845 1.78 1.497 2.518 2.246 3.285 3.203a62 62 0 0 1 3.45 4.806c2.128 3.333 1.505 2.25 2.638 5.157.57 1.463-1.8.898-3.398 1.562a150 150 0 0 1-6.452 2.487c-2.037.719-3.294 1.055-4.639 1.433-1.345.377-2.778.796-3.83 1.008-1.053.213-1.726.218-2.349.163s-1.196-.17-1.662-.378c-.466-.206-.824-.504-.984-.796s-.448-.438.266-1.813c.459-.883.99-2.147.95-3.422a8.8 8.8 0 0 0-.477-2.444c-.554-1.506-1.357-1.974-1.692-2.231a7 7 0 0 0-1.45-.885c-.643-.288-1.456-.526-2.32-.686-.865-.161-1.78-.245-2.238-.287s-.458-.042-1.744.085c-1.285.126-3.855.378-5.198.535s-1.46.217-2.837.336c-1.378.118-4.019.295-5.805.532s-2.717.535-4.866 1.226c-2.15.692-5.518 1.778-7.453 2.29-1.935.513-2.436.452-2.988.425a13.4 13.4 0 0 0-1.94.05c-.788.071-1.764.21-2.307.344-.543.135-.653.267-2.02-1.59-1.368-1.858-3.993-5.706-5.358-7.702s-1.47-2.141-1.53-2.256-.076-.2-.022-.253c.055-.053.18-.072 1.543-.372 1.365-.3 3.968-.881 5.455-1.177s1.858-.309 2.216-.49.706-.532 1.045-.723.67-.222.9-.294.453-.15.593-.315c.046-.054.107-.09.174-.142.17.333.307.544.29.587-.137.343-.476.718-.87 1.228-.393.51-.841 1.158-1.344 1.51-.503.354-1.06.412-1.433.437-.372.026-.56.018-.591.693-.032.676.09 2.036.289 2.725.197.69.47.709 1.126.334s1.82-1.053 2.638-1.79 1.342-1.492 1.979-2.24c.637-.746 1.262-1.575 1.655-1.994.392-.42.428-.42.47-.252.044.166-.047.607-.233 1.007s-.393.708-.753 1.243c-.36.534-.731 1.188-1.103 1.75-.373.562-.844 1.017-1.055 1.383s-.235.678-.148.872c.086.195.31.322.836.289.527-.033 1.43-.26 2.147-.538s1.32-.642 2.972-1.248c1.653-.606 4.354-1.455 5.827-1.832 1.473-.376 1.718-.28 2.038-.24.32.038.77-.048 1.508-.052.235-.001.764.19 1.11.614.35.429.96.324 1.077.518.075.123-.164.88-.415 1.203-.088.113-.217.104-.28.018-.154-.208-.15-.593-.455-.582-.57.021-.74-.08-.874-.08-.616.004-.701.398-.984.454-.47.093-.746-.112-1.15-.548-.137-.148-.657-.155-.707.264s.257.663.347 1.195.517.52.791.722c.275.2.78.292 2.311.228 1.505-.063 2.23 2.332 3.68 2.04 1.452-.293 4.566-1.123 5.71-1.916 1.106-.767 2.775-.857 4.481-2.467.566-.533 1.43-1.995.691-3.825-.987-2.447-2.467-1.028-3.382-1.662-.797-.552-.345-1.58-.24-1.992.068-.267 1.344-1.49 1.612-.951 1.207 2.436-1.567 2.17-.191 2.522 1.273.326 4.342-1.686 4.48-2.081.335-.953.632-.878 1.009-.924.376-.045.456-.389.539-.657.17-.548.205-1.476.143-2.112s-.166-1.066-1.385-1.614c-3.77-1.694-4.91-1.734-5.274-1.901-.169-.077-.32-.136-.439-.09-.264.103-.578.602-.743.628-.507.081-.57.173-1.056.093-.798-.13-1.957-.84-2.396-1.128-.156-.102-.22-.152-.224-.168v-.001l.38.146c.209.037.452.09 1.212.188.318.042.48.08.565-.1a.89.89 0 0 0 .003-.712c-.113-.229-.191-.204-.61-.283-.42-.078-3.954-.454-4.091-.495-.117-.035 2.643.033 2.833.074l.306.066c.148.032.36-.048.744-.038.421.01.276-.001.841.012s.603-.628 2.656.03c.586.187.583-1.167 1.254-1.139m40.067 24.004c0-.103.508.025.777.02.165-.004.322.028.402.143.116.168.063.529-.18.588-.255.062-.55-.118-.778-.017-.416.187-.693.293-1.081.532-.21.129-.521.675-.745.433-.436-.47-.552-.564-.875-1.012-.097-.135.088-.263.175-.345.287-.175.459-.34.772-.461.312-.12.471-.099.698-.074.297.047.723.282.835.193" style="display:inline;opacity:1;fill:url(#b);stroke-width:.264583" transform="translate(-.186 -.2)"/><path d="m35.186 35.08-.048.008c-.068.015-.203.044-.467.2-.264.158-.656.442-.83.783-.175.341-.132.739-.08 1.035s.116.491.211.602c.096.111.224.139.374.094s.322-.162.504-.175.375.08.537.258.293.443.413.889c.121.446.232 1.074.233 1.55 0 .475-.108.798-.222.964s-.233.174-.366.046c-.134-.128-.282-.39-.519-.618a2.34 2.34 0 0 0-.952-.534 3.3 3.3 0 0 0-1.27-.111 2.8 2.8 0 0 0-1.17.392c-.346.213-.643.507-.794.802-.15.294-.157.588-.064.696.092.108.283.03.563-.012.28-.043.648-.05.9-.035.253.015.389.054.393.158s-.125.274-.153.37.044.117.255.238c.21.12.559.34.807.59.249.248.397.524.483.833.085.31.109.65-.018 1.242a13 13 0 0 1-.594 1.887c-.191.454-.297.52-.37.47s-.114-.218-.274-.41a2.2 2.2 0 0 0-.741-.54c-.303-.134-.63-.189-.907-.097s-.503.33-.657.578c-.154.249-.236.508-.24.712-.004.205.07.355.186.383s.275-.065.45-.128c.177-.064.372-.097.518-.05s.243.173.31.404c.068.231.105.566-.01.948-.117.382-.386.811-.688 1.041s-.637.261-.92.351c-.282.09-.512.238-.677.38-.164.142-.264.279-.225.366.039.088.216.127.51.148s.706.022 1.035.063c.328.04.574.12.7.272.127.152.135.377.064.692-.07.316-.218.724-.446 1.207s-.536 1.043-.71 1.505c-.173.463-.212.83-.247 1.264s-.066.938.032 1.413c.099.476.327.924.557 1.322.23.399.462.748.647 1.056s.323.574.473.854.312.572.412.993.136.97.066 1.28-.247.38-.438.47-.396.199-.5.344c-.105.145-.109.327.072.509.18.182.544.365.781.41s.346-.049.526-.17c.18-.12.432-.269.707-.379s.572-.182.851-.314c.279-.133.538-.326.76-.429.22-.103.404-.117.588-.055s.37.201.438.426.019.537-.065.778a1.2 1.2 0 0 1-.432.594c-.229.184-.568.383-.885.451-.318.069-.614.006-.928.047s-.645.185-1.06.212c-.413.026-.91-.066-1.45-.267-.54-.202-1.122-.514-1.84-.992a18.6 18.6 0 0 1-2.35-1.849c-.78-.728-1.483-1.543-1.977-2.116-.495-.572-.78-.903-.989-1.052-.21-.149-.343-.117-.313.14s.225.738.547 1.453c.321.716.77 1.665 1.182 2.614.412.95.788 1.898 1.015 2.497.227.6.305.85.007 1.47-.299.62-.973 1.612-1.797 2.126-.825.513-1.799.549-2.56.499-.76-.05-1.309-.184-1.98-.34s-1.466-.334-2.052-.5-.961-.319-1.17-.368c-.208-.05-.25.005.357.407.606.402 1.859 1.152 2.884 1.88a18.3 18.3 0 0 1 2.347 1.958c.526.528.779.88.825 1.339s-.116 1.021-.23 1.658c-.112.636-.177 1.345-.52 1.988-.345.643-.968 1.22-1.542 1.666s-1.099.759-1.794 1.105c-.696.345-1.563.723-2.143.968s-.872.356-1.002.434c-.13.077-.096.122.845.018a83 83 0 0 0 4.149-.592c1.358-.235 2.226-.451 2.766-.706.54-.256.752-.55 1.073-.919.32-.368.749-.81 1.143-1.138.395-.327.755-.54.98-.805s.312-.582.357-1.125.046-1.31.154-2.056c.108-.745.323-1.469.546-2.109s.455-1.197.746-1.758c.292-.562.643-1.127 1.058-1.578a5.4 5.4 0 0 1 1.305-1.021c.411-.233.755-.362 1.088-.384s.657.061.884.222c.227.16.357.398.36.643a.9.9 0 0 1-.304.66 1 1 0 0 1-.645.238c-.21 0-.38-.079-.584-.078-.205.001-.444.081-.544.193-.099.112-.058.256-.067.767-.009.51-.067 1.388-.266 2.1-.2.71-.541 1.256-.887 1.607-.346.35-.697.507-.94.612-.244.105-.381.16-.448.338s-.065.48.031.726c.097.246.288.435.483.637.196.203.397.42.52.749.125.329.172.771.243 1.146.07.376.166.683.438 1.167.272.483.72 1.142.976 1.657s.32.888.294 1.271a2.4 2.4 0 0 1-.333 1.072c-.186.295-.44.492-.671.545-.232.052-.442-.04-.614-.193a1.26 1.26 0 0 1-.367-.61c-.064-.24-.058-.503-.146-.731-.087-.228-.268-.42-.747-.704-.478-.284-1.254-.658-1.716-.878s-.61-.287-.971-.118c-.362.168-.937.572-1.421.833-.484.26-.878.38-1.229.412-.35.032-.659-.023-.85-.026-.192-.003-.269.046-.266.158s.085.288.323.432.632.257 1.069.34a5.6 5.6 0 0 0 1.458.099c.539-.037 1.135-.164 1.556-.205.42-.04.666.004.826.136.16.133.234.353.294.607s.104.543.002.802c-.101.26-.348.49-.59.66-.244.17-.482.281-.721.32-.24.037-.481.003-.624.05-.142.046-.185.175-.06.313.125.139.417.287 1.123.323.707.036 1.827-.04 2.59-.038s1.169.085 1.508.252.612.418.764.703c.152.286.183.605.075.883-.109.278-.356.514-.605.66-.248.146-.498.203-.65.291-.152.09-.206.21-.058.326s.5.227.858.22.725-.132 1.064-.312.65-.416.92-.735c.269-.32.494-.724.582-1.13a2.13 2.13 0 0 0-.085-1.155c-.121-.34-.314-.611-.465-.816s-.26-.343-.17-.585c.089-.242.377-.587.592-1.107.216-.52.358-1.216.428-1.754s.068-.918-.112-1.313c-.18-.396-.538-.807-.84-1.23-.3-.423-.544-.857-.663-1.406s-.113-1.211-.043-1.793.204-1.083.423-1.603c.218-.52.52-1.06.9-1.476.378-.416.835-.709 1.21-.867.377-.157.673-.18.99-.104.318.076.657.25 1.01.64s.719.994.974 1.533.4 1.013.52 1.482c.121.468.219.932.233 1.312.013.38-.057.676-.185 1.057-.129.381-.316.847-.566 1.234s-.56.695-.944.936-.837.417-1.129.542-.423.199-.57.402a3.2 3.2 0 0 0-.421.896c-.11.363-.167.756-.17.983-.005.227.044.288.231.218s.513-.272.79-.397c.276-.126.504-.177.921-.262s1.023-.207 1.505-.426c.481-.22.838-.537 1.2-.93.363-.395.731-.864.97-1.305.239-.442.348-.855.516-1.191s.397-.596.653-.867c.256-.272.541-.557.677-.78.137-.223.125-.385.007-.572s-.342-.4-.506-.671a2.7 2.7 0 0 1-.321-.916 3.1 3.1 0 0 1-.019-.952 9 9 0 0 1 .208-1.038c.076-.297.138-.496.07-.741-.068-.246-.267-.538-.493-.766s-.48-.392-.61-.573a.57.57 0 0 1-.062-.57.96.96 0 0 1 .424-.465.69.69 0 0 1 .62-.014c.23.1.483.314.788.6.305.287.662.646.932 1.226.27.581.453 1.384.54 2.255.085.871.073 1.81-.012 2.817s-.243 2.08-.514 2.888c-.272.808-.658 1.35-1.13 1.935-.471.586-1.029 1.215-1.528 1.632s-.939.623-1.65.835a25 25 0 0 1-2.241.534c-.548.101-.661.083-.765.43-.104.345-.2 1.055-.359 1.657s-.38 1.097-.738 1.701-.85 1.318-1.124 1.7c-.273.382-.326.432-.152 1.237.173.805.573 2.364.861 3.569.289 1.204.466 2.053.605 3.12.14 1.067.24 2.352.322 3.089.08.736.141.925.242.83.1-.094.24-.472.338-.849.097-.377.152-.753.22-1.483s.15-1.813.251-2.868.223-2.08.343-2.967c.12-.888.238-1.638.474-2.221s.588-1.001.792-1.27c.204-.267.258-.386.139-.446-.12-.059-.415-.059-.685-.1-.27-.043-.515-.126-.679-.255-.163-.129-.245-.302-.183-.48.062-.177.269-.358.744-.525.474-.166 1.217-.318 1.79-.433s.976-.193 1.425-.123.944.288 1.485.742c.54.454 1.128 1.144 1.707 1.937s1.153 1.69 1.531 2.135c.378.446.561.44.684.375.123-.066.186-.19.158-.403-.027-.212-.144-.512-.337-.928-.193-.415-.462-.945-.73-1.574a13.5 13.5 0 0 1-.697-2.033 10 10 0 0 1-.25-1.764c-.028-.471-.026-.793.177-1.141.204-.35.61-.726.921-1.07s.53-.655.978-.79c.449-.136 1.127-.096 1.852.012.725.107 1.497.28 2.357.538.86.257 1.81.598 2.403.764s.831.16.955.106.133-.153 0-.293c-.132-.139-.407-.318-.716-.553-.31-.235-.655-.525-.965-.721s-.585-.297-.873-.43a7.5 7.5 0 0 1-.918-.511 6.7 6.7 0 0 1-1.051-.828 9.5 9.5 0 0 1-1.027-1.191c-.265-.37-.405-.646-.418-1.081s.103-1.027.258-1.55c.155-.525.35-.981.604-1.281s.568-.445.922-.536c.353-.092.747-.13 1.246-.273.499-.142 1.103-.388 1.833-.573s1.585-.31 2.066-.373c.48-.064.585-.066.644-.137.06-.07.074-.211.072-.313s-.02-.167-.317-.24-.874-.155-1.555-.215-1.467-.096-2.198-.17a26 26 0 0 1-1.993-.285c-.583-.103-1.07-.2-1.502-.351a5 5 0 0 1-1.122-.565c-.315-.208-.568-.42-.721-.6s-.206-.33-.176-.407c.03-.078.144-.086.306-.055.163.032.376.101.576.112.201.01.39-.038.58-.153.188-.116.377-.3.511-.617.135-.318.215-.77.158-1.13a1.38 1.38 0 0 0-.467-.821c-.218-.195-.462-.318-.675-.35a.69.69 0 0 0-.536.136 1.3 1.3 0 0 0-.336.444c-.087.171-.155.353-.286.43-.132.077-.327.049-.495.017-.169-.032-.311-.07-.412-.14a.43.43 0 0 1-.175-.297.65.65 0 0 1 .098-.415c.09-.158.244-.338.416-.51.173-.171.364-.334.522-.513.158-.178.283-.371.329-.57a.9.9 0 0 0-.065-.568 1.1 1.1 0 0 0-.382-.438 2.6 2.6 0 0 0-.717-.362 2.8 2.8 0 0 0-.87-.142c-.262.004-.46.064-.606.188s-.236.31-.213.441c.024.13.162.205.235.322a.53.53 0 0 1 .046.406c-.035.13-.113.229-.245.196-.131-.033-.316-.199-.534-.341-.217-.143-.467-.261-.641-.399a.73.73 0 0 1-.3-.54 2.3 2.3 0 0 1 .107-.863c.09-.28.227-.502.42-.703s.443-.38.755-.443c.313-.063.69-.01 1.194.15.505.161 1.138.43 1.758.837s1.226.95 1.863 1.715a15.2 15.2 0 0 1 1.813 2.758c.508 1.004.855 2.023 1.092 2.61.237.588.363.744.759.898s1.06.306 1.43.33.443-.079.453-.344-.045-.691-.23-1.322a14 14 0 0 0-.984-2.408 21 21 0 0 0-1.892-3.008 22.4 22.4 0 0 0-2.532-2.829 19.7 19.7 0 0 0-2.589-2.06 13 13 0 0 0-1.965-1.055c-.592-.264-1.166-.503-1.58-.593s-.668-.03-.85.092c-.18.122-.29.305-.284.461s.127.285.293.374c.167.09.38.14.571.244.192.103.364.26.424.505s.006.58-.143.81c-.15.23-.395.355-.699.392a2 2 0 0 1-.958-.137c-.293-.124-.515-.32-.612-.567s-.067-.543.07-.874c.136-.332.38-.698.637-1.052.258-.353.528-.695.768-1.173s.448-1.094.615-1.57c.166-.477.291-.814.519-1.059.228-.244.56-.397.858-.6s.563-.455.678-.731.08-.574-.033-.855a1.64 1.64 0 0 0-.554-.72c-.25-.178-.557-.27-.86-.373s-.601-.218-.781-.364-.243-.324-.206-.517a.77.77 0 0 1 .387-.517c.215-.116.507-.14.863-.145.356-.006.775.006 1.117-.064s.607-.223.725-.45.088-.529-.024-.82-.307-.572-.551-.691-.54-.076-.836-.001-.594.182-.91.22a2.2 2.2 0 0 1-.951-.098c-.303-.1-.576-.267-.715-.5-.138-.233-.142-.531-.073-.77.07-.24.212-.422.465-.644s.618-.485.895-.62c.276-.134.465-.14.564-.235.1-.094.11-.277-.002-.43s-.346-.276-.633-.379a3.6 3.6 0 0 0-.978-.204c-.353-.02-.72.02-1.154.123a7 7 0 0 0-1.383.48c-.447.215-.836.48-1.058.68-.22.201-.273.337-.227.507.045.17.19.372.27.63s.099.572.042.864c-.056.291-.187.56-.333.905s-.308.766-.447 1.1c-.138.333-.253.578-.296.767s-.013.321.102.497q.174.264.594.652c.279.258.636.556.927.868s.517.637.7 1.061.324.946.363 1.432c.039.485-.024.933-.18 1.322a2.6 2.6 0 0 1-.705.98 2.75 2.75 0 0 1-.998.566c-.36.112-.74.143-1.126.117a3.7 3.7 0 0 1-1.124-.246 2.3 2.3 0 0 1-.876-.593c-.23-.256-.39-.572-.518-.95a3.7 3.7 0 0 1-.211-1.289c.014-.47.14-.972.361-1.417s.534-.835.84-1.152c.306-.318.604-.564.835-.905a2.6 2.6 0 0 0 .43-1.19c.035-.412-.059-.8-.2-1.137-.14-.337-.327-.623-.443-.868-.116-.244-.16-.447-.13-.793a3.6 3.6 0 0 1 .39-1.328c.256-.493.664-.99 1.139-1.366a4.9 4.9 0 0 1 1.567-.806c.552-.176 1.116-.275 1.443-.381.328-.106.42-.22.409-.392s-.13-.402-.198-.652a2.3 2.3 0 0 1-.066-.807c.023-.286.089-.59.235-.795a.83.83 0 0 1 .58-.337.9.9 0 0 1 .565.14c.175.104.342.248.512.305.17.058.342.029.486-.062.144-.09.26-.243.294-.5.035-.258-.012-.622-.127-.988-.115-.367-.297-.736-.645-.925s-.86-.197-1.278-.201-.74-.004-1.038.132c-.297.137-.57.41-.765.615-.194.205-.31.343-.37.373s-.066-.047-.068-.254a6 6 0 0 1 .052-.9c.051-.359.15-.739.202-1.205.05-.466.053-1.017-.047-1.487s-.305-.858-.572-1.23c-.267-.373-.598-.728-.98-.965s-.814-.355-1.03-.415c-.136-.037-.186-.05-.222-.052zm.754 19.75c-.042 0-.094.008-.197.024-.208.031-.623.094-.957.35s-.588.706-.735 1.175-.188.956-.123 1.314c.065.357.237.585.49.775.252.19.585.342.944.424.358.082.742.093 1.071.029.33-.064.604-.205.851-.441s.465-.57.586-.9.144-.658.07-1.007a2.5 2.5 0 0 0-.473-.995 1.94 1.94 0 0 0-.757-.567c-.26-.11-.51-.15-.635-.169a.7.7 0 0 0-.135-.013zm-6.554 5.306c-.292.01-.591.142-.866.282-.314.16-.597.329-.845.48-.249.15-.434.263-.618.385-.184.121-.335.231-.433.367a.45.45 0 0 0-.056.476c.082.18.286.378.542.527s.565.25.826.288c.26.038.472.013.658-.063.185-.075.344-.202.547-.217s.45.081.677.18c.226.098.43.199.6.32.17.12.307.26.472.27s.36-.112.446-.299.064-.44-.015-.743a5.3 5.3 0 0 0-.367-.958 2.9 2.9 0 0 0-.56-.806c-.24-.238-.554-.453-.884-.486a1 1 0 0 0-.124-.003zm-5.33 3.498c-.182.008-.384.232-.686.552-.387.41-.896.929-1.373 1.532-.478.603-.924 1.291-1.323 1.94-.398.65-.75 1.263-.94 1.605s-.218.414.043.467c.261.052.812.085 1.144.094s.442-.007.662-.338c.22-.332.55-.979.868-1.498.317-.52.623-.91.991-1.337.369-.426.8-.885 1.047-1.163s.312-.373.24-.708-.293-.942-.522-1.099a.24.24 0 0 0-.15-.047zm-5.3 8.973c-.124.005-.244.068-.355.266-.197.35-.37 1.135-.484 1.886a13 13 0 0 0-.15 2.149c.012.69.088 1.361.198 1.993.11.631.255 1.224.374 1.573.12.348.216.454.501.367s.761-.366 1.044-.54.372-.245.39-.44c.017-.195-.037-.514-.116-.943s-.182-.966-.231-1.468a5.8 5.8 0 0 1 .045-1.525c.088-.557.257-1.206.332-1.614.075-.407.056-.573-.17-.806-.224-.234-.655-.537-1.086-.839-.098-.031-.196-.063-.293-.06zm17.004 1.797c-.074.002-.075.001-.14.048a3 3 0 0 0-.41.349c-.21.209-.5.533-.755.933s-.473.873-.62 1.333c-.146.46-.22.906-.176 1.351.044.446.206.89.438 1.252.232.361.534.64.852.792s.65.177.974.172.637-.04.92-.202c.284-.163.538-.454.723-.824s.302-.82.308-1.29c.005-.47-.1-.959-.231-1.416a7.6 7.6 0 0 0-.474-1.255 4.3 4.3 0 0 0-.572-.895c-.177-.2-.321-.279-.467-.316-.147-.038-.296-.034-.37-.032zm17.332 2.672a3 3 0 0 0-.517.042c-.372.059-.788.168-.987.308-.2.14-.182.313-.16.552.024.24.051.545.023.895a6 6 0 0 1-.234 1.157c-.122.413-.271.815-.414 1.18-.143.366-.24.597-.295.727s-.055.13-.059.186a1 1 0 0 0 .028.31c.038.145.12.32.324.462.203.141.527.247.826.356.299.11.573.22.764.188s.298-.208.426-.552c.127-.344.275-.855.44-1.463a24 24 0 0 0 .46-1.946c.115-.635.162-1.2.131-1.594-.03-.394-.137-.617-.355-.725a1 1 0 0 0-.401-.083zM21.029 83.75c-.338-.026-.853.07-1.082.198-.229.129-.172.29.265 1.069.436.779 1.253 2.174 2.28 3.372s2.264 2.197 3.353 2.975c1.09.779 2.031 1.337 3.136 1.793s2.374.81 3.19 1.018c.817.207 1.181.268 1.351.172.17-.095.144-.347.001-.685s-.405-.763-.66-1.01c-.255-.246-.505-.314-.978-.44-.474-.125-1.171-.309-2.066-.663a18 18 0 0 1-2.977-1.513 13.5 13.5 0 0 1-2.618-2.18 15.3 15.3 0 0 1-1.716-2.287c-.396-.639-.607-1.067-.793-1.356-.186-.288-.348-.436-.686-.463zm28.344 1.82a.86.86 0 0 0-.395.09c-.23.122-.376.387-.609.75a9.7 9.7 0 0 1-.967 1.279c-.415.457-.926.911-1.243 1.197-.316.285-.439.402-.467.635s.038.582.102.873.127.525.217.654c.09.128.21.152.652-.158s1.208-.953 1.877-1.579a25 25 0 0 0 1.644-1.694c.404-.461.642-.775.69-1.033.05-.258-.091-.46-.296-.62a2 2 0 0 0-.765-.34 2 2 0 0 0-.44-.054zm-6.944 5.62a.9.9 0 0 0-.341.075c-.267.099-.648.28-.929.426-.28.144-.463.252-.817.355s-.88.202-1.218.3-.487.195-.63.34a4.4 4.4 0 0 0-.414.528c-.095.238-.2.5-.24.697-.038.196-.03.419.095.518.124.1.363.096.895.01a26 26 0 0 0 2.041-.427c.685-.173 1.231-.352 1.683-.569s.81-.47.98-.687.15-.4-.027-.664a3.4 3.4 0 0 0-.754-.778.6.6 0 0 0-.324-.124z" style="display:inline;fill:#000;stroke:#fff;stroke-width:2;stroke-dasharray:none;stroke-opacity:1;paint-order:stroke fill markers" transform="translate(-.186 -.2)"/><path d="M33.197 82.594c-.402-.458-.803-.916-1.125-1.458s-.563-1.167-.742-1.751-.297-1.125-.53-1.542c-.234-.416-.585-.706-.592-.898s.33-.285.608-.413a1.57 1.57 0 0 0 .717-.63c.221-.34.446-.858.626-1.348s.316-.952.336-1.378-.078-.816-.06-.972.154-.081.468-.006.81.149 1.304.128.987-.135 1.484-.593c.498-.458 1-1.26 1.375-2.008.377-.748.627-1.444.692-1.534s-.056.424-.07 1.084.077 1.468.189 2.062c.112.595.244.977.437 1.3.193.322.446.585.854.79.407.206.968.354 1.227.479.258.125.213.226.132.521a7 7 0 0 0-.229 1.215c-.031.43.023.803.145 1.14s.311.64.488.884c.178.245.343.432.372.555.028.122-.081.18-.262.33-.182.149-.435.389-.611.676-.177.288-.276.623-.394.957a5.5 5.5 0 0 1-.444.989c-.19.322-.434.631-.824.956s-.925.664-1.461 1.003m-2.705-31.776c-.192.454-.384.908-.613 1.292s-.493.698-.812 1.062-.694.78-.947 1.171c-.253.392-.386.76-.458 1.284a5.6 5.6 0 0 0 .055 1.85 5 5 0 0 0 .77 1.768c.342.499.74.877 1.231 1.118s1.076.347 1.694.396 1.268.04 1.867-.148c.598-.19 1.143-.56 1.584-1.004.44-.444.776-.963.974-1.612a5.3 5.3 0 0 0 .173-2.117 3.9 3.9 0 0 0-.714-1.83c-.387-.542-.923-1.025-1.305-1.529s-.608-1.028-.835-1.552" style="fill:none;fill-opacity:1;stroke:#fff;stroke-width:.6;stroke-linecap:butt;stroke-linejoin:round;stroke-dasharray:none;stroke-opacity:1;paint-order:stroke fill markers" transform="translate(-.186 -.2)"/><path d="M202.235 48.632c-1.513.035-2.729.206-4.007.564-1.279.36-2.456.882-3.411 1.498-.955.615-1.687 1.325-2.373 2.092s-1.326 1.595-1.766 2.37-.682 1.5-.908 2.292c-.143.502-.28 1.03-.39 1.547l-.773.084c-2.555.263-5.322.415-8.136.573-2.815.158-5.676.322-8.696.493-3.021.172-6.202.351-7.975.46-1.774.11-2.14.148-2.39.246-.249.097-.381.253-.448.415a.57.57 0 0 0 .014.489c.08.16.24.312 1.673.437 1.432.124 4.136.222 7.183.38 3.046.157 6.433.376 9.38.563 2.946.187 5.453.343 8.38.606.552.05 1.12.103 1.69.157q.023.15.051.3c.14.753.375 1.564.667 2.398s.643 1.692 1.15 2.522 1.17 1.633 1.836 2.272a9.9 9.9 0 0 0 2.07 1.524c.732.41 1.527.752 2.431 1.021s1.918.464 2.966.562c1.049.097 2.133.097 3.224-.016a15 15 0 0 0 3.2-.678c1.01-.34 1.93-.791 2.837-1.353a18.5 18.5 0 0 0 2.503-1.855c.697-.623 1.196-1.2 1.644-1.957.449-.756.846-1.692 1.2-2.685.356-.994.668-2.047.788-3.076.121-1.029.051-2.034-.062-2.965-.113-.932-.269-1.79-.534-2.663a10.8 10.8 0 0 0-1.204-2.658 13.9 13.9 0 0 0-2.152-2.588 12.4 12.4 0 0 0-2.69-1.964c-.954-.507-1.759-.782-3.157-1.067s-2.301-.375-3.815-.34zm-82.705.106c-.152.002-.189.024-.65 1.108-.46 1.083-1.345 3.229-2.458 5.917s-2.454 5.92-3.454 8.296c-1 2.377-1.658 3.9-2.24 5.196-.584 1.297-1.09 2.369-1.414 2.95-.323.58-.463.67-.62.64-.155-.029-.327-.176-.872-.88a140 140 0 0 1-2.22-3.017 88 88 0 0 1-1.865-2.654c-.509-.764-.928-1.452-1.312-1.947s-.733-.797-1.122-1.034c-.388-.237-.817-.408-1.045-.503-.125-.052-.19-.08-.194-.1v-.006q.009-.018.108-.034c.17-.027.536-.064.948-.154.413-.09.87-.231 1.332-.416.46-.184.924-.41 1.42-.77a6.6 6.6 0 0 0 1.42-1.41c.4-.553.672-1.164.894-1.868.222-.703.394-1.499.382-2.336s-.206-1.716-.426-2.418c-.219-.703-.462-1.23-.85-1.674-.388-.446-.92-.81-1.467-1.116a8.8 8.8 0 0 0-1.795-.76c-.683-.207-1.345-.43-2.17-.525-.824-.095-1.696-.09-3.98-.106-1.633-.011-3.198.165-5.095.16-.76-.003-2.324-.083-2.856-.084-1.862-.005-1.898-.081-1.912-.056-.013.025-.041.075-.05.25-.01.174-.002.472.01.648.014.175.032.228.208.271s.511.079.818.147c.308.068.588.17.798.292s.352.264.44.422c.086.158.12.33.153 3.735s.066 10.04.047 13.57-.092 3.953-.353 4.228c-.261.276-.712.405-1.074.485s-.637.11-.798.154c-.16.042-.207.097-.236.225a2 2 0 0 0-.03.471c.008.14.033.215.89.23.856.013 2.544-.036 4.018-.054a89 89 0 0 1 3.694.026c.959.03 1.615.074 1.976.069.36-.005.425-.06.45-.22a3 3 0 0 0-.006-.578c-.013-.154-.025-.197-.045-.224-.02-.028-.05-.039-.17-.046s-.334-.009-.54-.03a2.7 2.7 0 0 1-.638-.144 3 3 0 0 1-.675-.334c-.186-.13-.3-.266-.372-.575-.073-.31-.106-.79-.11-2.188-.004-1.397.02-3.71.047-4.898.026-1.188.054-1.25.18-1.269.127-.018.353.007.576.053.223.047.444.116.668.269s.452.39.826.93c.374.538.895 1.378 1.562 2.43.668 1.05 1.482 2.314 2.204 3.467a110 110 0 0 1 1.67 2.744c.32.548.327.602.369.633.042.03.118.036 1.001 0 .884-.035 2.576-.11 4.426-.099 1.85.012 3.86.111 4.894.183s1.092.117 1.099-.066-.038-.594-.06-.813c-.02-.218-.019-.243-.157-.275s-.417-.071-.695-.152a3.4 3.4 0 0 1-.719-.302c-.165-.099-.218-.173-.245-.259s-.029-.183.288-1.102c.317-.918.952-2.659 1.294-3.557s.39-.955 1.688-.975c1.297-.019 3.841-.002 5.225.034 1.384.035 1.606.087 1.74.217.135.13.182.336.512 1.113s.944 2.123 1.24 2.957c.295.834.271 1.156.173 1.372s-.272.327-.545.419c-.272.091-.645.164-.884.216-.239.053-.343.086-.37.266-.028.18.023.508.046.692.024.184.02.225.628.198.608-.028 1.828-.123 3.04-.172a55 55 0 0 1 3.536-.022c1.12.028 2.154.087 2.698.099.544.011.597-.024.628-.145.031-.12.04-.327.044-.485s.002-.267-.047-.322c-.05-.054-.148-.054-.37-.075a4.3 4.3 0 0 1-.843-.149 1.26 1.26 0 0 1-.67-.481c-.196-.26-.387-.643-1.954-4.336a5076 5076 0 0 1-6.107-14.504c-1.598-3.81-1.852-4.425-2.007-4.733s-.211-.308-.334-.307c-.123 0-.312.003-.54-.004s-.495-.022-.647-.02zm24.823.055c-.46.013-.918.05-1.413.111-.99.12-2.129.333-3.272.75a14.7 14.7 0 0 0-3.171 1.643 9.4 9.4 0 0 0-2.065 1.911c-.57.707-1.097 1.523-1.5 2.189-.403.665-.684 1.18-.914 1.873s-.41 1.567-.515 2.491c-.107.924-.14 1.898-.102 2.765s.148 1.628.317 2.476c.17.847.4 1.783.747 2.63.348.846.814 1.604 1.437 2.378a15.5 15.5 0 0 0 2.14 2.168 10.57 10.57 0 0 0 4.187 2.103c.744.188 1.576.33 2.406.411s1.659.1 2.499.066c.84-.035 1.691-.125 2.612-.3.92-.176 1.911-.437 3.002-.805 1.092-.367 2.284-.84 3.107-1.278a7.4 7.4 0 0 0 1.575-1.107c.301-.268.452-.402.535-.56.082-.158.098-.34.107-1.3.009-.963.01-2.705.058-3.79.046-1.086.138-1.515.3-1.81s.393-.457.742-.561.814-.151 1.066-.194c.251-.043.288-.082.291-.267s-.028-.517-.046-.707-.02-.239-.862-.209c-.84.03-2.519.138-4.258.156-1.74.017-3.541-.056-4.441-.093l-.935-.037c-.035 0-.104-.002-.147.046s-.058.147-.064.354 0 .524.182.686c.181.162.538.17.84.192.302.023.55.06.785.172.236.112.46.3.578.53s.13.506.133 1.275 0 2.031-.005 3.037-.01 1.754-.05 2.2c-.04.445-.115.587-.292.755a3 3 0 0 1-.85.534c-.393.17-.898.317-1.424.44a8 8 0 0 1-1.677.235 6.9 6.9 0 0 1-1.927-.241 7.9 7.9 0 0 1-1.946-.828 6.5 6.5 0 0 1-1.686-1.424c-.525-.618-1.022-1.414-1.423-2.31-.402-.895-.707-1.89-.956-2.88-.248-.989-.44-1.97-.487-3.025a14 14 0 0 1 .257-3.257 14.6 14.6 0 0 1 .922-2.995c.389-.895.843-1.658 1.254-2.188.411-.529.78-.823 1.202-1.149.421-.325.897-.682 1.411-.927.515-.246 1.068-.38 1.597-.464a6.8 6.8 0 0 1 1.523-.085c.492.032.973.13 1.435.26.462.129.904.29 1.338.469.434.178.858.373 1.254.61.395.237.762.515 1.124.907a8.6 8.6 0 0 1 1.017 1.402c.299.504.54 1.009.73 1.48.188.47.325.907.403 1.175s.098.367.278.426.52.075.708.046c.187-.03.22-.105.208-1.399s-.071-3.806-.1-5.087c-.03-1.282-.03-1.332-.286-1.312-.257.02-.769.112-1.266.133s-.979-.027-1.546-.11c-.567-.082-1.22-.2-2.137-.347-.918-.148-2.101-.328-3.113-.403-.507-.037-.97-.049-1.43-.036zm-85.604.387-.002.001v.001h-.001l-.001.001c-.008.009-.01.043-.02.168-.012.173-.037.517-.037.697.001.179.027.193.22.224.192.032.55.081.855.165.305.083.558.2.741.33.184.13.298.274.395.473.097.2.177.454.21 3.907.032 3.453.016 10.103-.025 13.528s-.109 3.625-.223 3.791a1.3 1.3 0 0 1-.497.413 3 3 0 0 1-.781.265c-.28.055-.606.084-.753.11-.147.027-.145.01-.169.193a8 8 0 0 0-.026.714c-.001.166.028.174.55.15.521-.025 1.556-.025 2.484-.069.928-.043 1.75-.13 2.697-.125.946.005 1.997.043 3.041.078s2.08.067 3.088.073c1.007.005 1.985-.015 2.921-.117a13.8 13.8 0 0 0 2.778-.59c.949-.305 1.953-.73 2.871-1.286a12.5 12.5 0 0 0 2.474-1.987 11.4 11.4 0 0 0 1.826-2.445 13.5 13.5 0 0 0 1.114-2.762c.248-.877.37-1.64.436-2.381.064-.742.071-1.461.039-2.21a16 16 0 0 0-.256-2.317c-.151-.79-.383-1.59-.72-2.35a10.5 10.5 0 0 0-1.307-2.16 13.6 13.6 0 0 0-1.715-1.838 8 8 0 0 0-1.69-1.164c-.582-.298-1.21-.532-2.06-.757-.849-.224-1.92-.44-2.76-.562s-1.449-.153-2.473-.156c-1.025-.003-2.465.022-4.721.027a1000 1000 0 0 1-8.496-.032zm158.422.115c-.791-.016-.792-.016-.793.004s-.004.062-.004.168l.003.413c0 .135-.003.234.157.31.16.078.482.133.748.225.266.093.476.223.738.44.262.218.576.524.83.783q.385.39.58.628c.128.157.188.26.223 3.433.034 3.174.043 9.419.034 12.71-.008 3.293-.033 3.632-.191 3.94-.159.31-.451.588-.816.742s-.803.185-1.06.201c-.256.017-.33.02-.354.182-.024.163.004.485.02.67.017.184.023.232.334.23.312-.001.93-.05 1.658-.087.73-.035 1.57-.057 2.44-.05.869.01 1.767.048 2.222.05s.466-.03.456-.194a5 5 0 0 0-.073-.615c-.033-.156-.069-.172-.262-.202s-.543-.075-.87-.15c-.326-.074-.63-.178-.824-.295a.78.78 0 0 1-.337-.378c-.058-.131-.089-.263-.097-3.01-.008-2.749.006-8.112.006-10.865s-.013-2.897.006-2.956c.02-.06.072-.035 2.546 3.1 2.475 3.134 7.372 9.378 9.895 12.586 2.524 3.209 2.674 3.382 3.016 3.469.341.087.873.088 1.251.079.378-.01.602-.03.739-.085.137-.057.188-.149.215-4.044s.031-11.592.082-15.524c.052-3.933.15-4.1.313-4.284.161-.183.386-.382.743-.49s.847-.124 1.097-.159.262-.089.26-.225a5 5 0 0 0-.03-.49c-.017-.134-.038-.184-1.203-.21-1.164-.025-3.472-.026-4.665-.03-1.192-.003-1.27-.008-1.296.12-.025.129.002.392.017.558.014.165.015.234.186.289s.512.096.87.182c.356.086.73.216.988.356s.402.292.468 2.787.055 7.335.003 9.755c-.053 2.42-.146 2.42-2.326-.3s-6.447-8.16-8.616-10.906c-2.169-2.745-2.24-2.795-2.786-2.809-.546-.013-1.566.009-2.866.003s-2.883-.038-3.674-.055zm-14.583 1.2c.196.003.41.016.592.053.413.085.935.186 1.597.427.661.24 1.109.605 1.66 1.142.551.538 1.148 1.167 1.627 1.994s.749 1.804 1.016 2.836c.268 1.033.545 2.049.643 3.24.098 1.19-.078 2.473-.137 3.546s-.014 1.91-.228 2.764c-.213.854-.428 1.748-.981 2.571a8.2 8.2 0 0 1-2.074 2.088 4.7 4.7 0 0 1-2.082.798c-.705.1-1.46.095-2.114.004a5.3 5.3 0 0 1-1.723-.53 6 6 0 0 1-1.441-1.047 10.3 10.3 0 0 1-1.254-1.495 8.4 8.4 0 0 1-.976-1.823 18 18 0 0 1-.779-2.592c1.749.07 2.175-.119 2.57-.432.406-.324.78-.78 1.01-1.21.23-.431.316-.836.308-1.294a4.1 4.1 0 0 0-.294-1.43 3.05 3.05 0 0 0-.832-1.193 3.4 3.4 0 0 0-1.358-.694c-.493-.127-.993-.139-1.242-.145-.169-.004-.223-.005-.606.053q.016-.158.034-.313c.116-.964.33-1.813.575-2.565.244-.753.516-1.409.903-1.986a6.9 6.9 0 0 1 1.333-1.44c.444-.364.83-.593 1.261-.78a6.8 6.8 0 0 1 1.378-.426c.47-.092.872-.117 1.121-.118.116 0 .296-.007.493-.003zm-106.917.453c.145.01.148.017.337.039.399.045.755.145 1.164.278.409.132.747.252 1.105.51.358.256.715.605 1.04 1.15s.54 1.247.687 1.935c.146.689.113 1.285.12 1.978.009.694-.037 1.39-.181 1.956-.144.565-.296 1.06-.576 1.446-.281.385-.571.747-.962 1.035-.39.289-.847.48-1.396.63-.548.149-1.097.211-1.529.262s-.687.111-.85.078c-.164-.033-.226-.1-.247-.14-.023-.043-.026-.244-.02-1.802.007-1.77.11-5.133.133-6.95.022-1.816.031-2.077.119-2.168.088-.09.164-.124.392-.18.17-.042.395-.067.664-.057zm-27 .133c.643-.015 1.62-.018 2.541.15s1.688.401 2.555.768c.868.366 1.597.936 2.319 1.697s1.242 1.735 1.65 2.66c.408.926.542 1.74.696 2.768s.24 2.18.248 3.183-.012 1.9-.146 2.617c-.135.716-.4 1.327-.606 1.964a8.6 8.6 0 0 1-.792 1.763c-.359.622-.88 1.057-1.368 1.54-.487.482-1.141.993-1.795 1.209-.652.215-1.01.417-1.937.612-.93.195-1.888.226-2.712.208-.823-.018-1.196-.022-1.58-.217s-.318-.16-.439-.557c-.12-.397-.168-.893-.163-1.581.004-.688-.05-1.55-.02-4.66.028-3.11.103-8.494.113-11.175.01-2.698.044-2.597.254-2.705s.538-.23 1.181-.244zm49.586 5.28 3.292 8.84-6.676-.07zm55.448 20.108c-1.514.035-2.73.206-4.008.565-1.278.358-2.456.88-3.41 1.497-.955.615-1.688 1.325-2.374 2.093-.686.767-1.325 1.594-1.766 2.37-.44.775-.682 1.5-.908 2.291s-.436 1.649-.545 2.429-.117 1.48-.098 2.178.066 1.391.207 2.144c.14.752.374 1.563.666 2.397s.643 1.692 1.15 2.522 1.17 1.633 1.836 2.272a9.9 9.9 0 0 0 2.07 1.524c.733.41 1.527.752 2.432 1.021.904.269 1.917.464 2.966.562 1.048.097 2.132.097 3.223-.016a15 15 0 0 0 3.2-.678c1.01-.34 1.93-.791 2.838-1.353a18.5 18.5 0 0 0 2.502-1.855c.698-.623 1.197-1.2 1.645-1.957.448-.756.846-1.691 1.2-2.685.355-.994.667-2.047.788-3.076.12-1.029.05-2.034-.063-2.965-.113-.932-.268-1.79-.533-2.663a10.8 10.8 0 0 0-1.205-2.658 13.9 13.9 0 0 0-2.151-2.588 12.4 12.4 0 0 0-2.69-1.964c-.955-.507-1.76-.782-3.158-1.067s-2.3-.375-3.814-.34zm-54.055.07c-.152.003-.19.025-.65 1.108-.461 1.084-1.346 3.23-2.459 5.918s-2.454 5.92-3.453 8.296c-1 2.377-1.659 3.9-2.242 5.196-.582 1.297-1.089 2.369-1.412 2.95-.324.58-.464.67-.62.64-.156-.029-.328-.176-.872-.881a140 140 0 0 1-2.22-3.016 88 88 0 0 1-1.866-2.654c-.508-.764-.927-1.452-1.311-1.947s-.733-.797-1.122-1.034-.818-.408-1.046-.503c-.124-.052-.189-.08-.194-.1v-.006q.009-.018.109-.034c.17-.027.536-.064.948-.154s.87-.232 1.331-.416.925-.41 1.42-.77a6.6 6.6 0 0 0 1.42-1.41c.4-.553.672-1.165.895-1.868s.393-1.499.382-2.336-.207-1.716-.426-2.418c-.22-.703-.463-1.23-.85-1.675-.389-.445-.92-.81-1.468-1.115a8.8 8.8 0 0 0-1.794-.76c-.683-.207-1.346-.431-2.17-.526-.825-.094-1.697-.088-3.982-.105-1.632-.011-3.197.165-5.094.16-.76-.003-2.324-.083-2.856-.085-1.862-.004-1.897-.08-1.911-.055s-.042.075-.051.25c-.01.173-.002.472.011.647s.03.228.207.272.511.079.819.147.587.17.798.291c.21.122.351.265.438.422.088.158.12.331.154 3.736.033 3.405.066 10.04.047 13.57s-.092 3.952-.353 4.228-.711.404-1.074.484c-.362.08-.637.111-.798.154-.16.043-.207.097-.235.226a2 2 0 0 0-.03.47c.007.14.033.216.889.23.857.013 2.544-.036 4.018-.053a90 90 0 0 1 3.694.026c.96.029 1.616.073 1.976.068s.426-.059.45-.219a3 3 0 0 0-.005-.578c-.014-.154-.025-.197-.046-.225s-.05-.038-.17-.045-.334-.01-.54-.03a2.7 2.7 0 0 1-.637-.145 3 3 0 0 1-.676-.334c-.186-.13-.299-.266-.372-.575s-.106-.79-.11-2.187c-.004-1.398.021-3.71.048-4.899.026-1.188.053-1.25.18-1.268s.352.006.576.053.443.115.667.268.452.39.826.93c.375.539.895 1.379 1.563 2.43s1.482 2.314 2.204 3.467a110 110 0 0 1 1.67 2.744c.319.549.326.603.368.633s.118.036 1.002.001 2.575-.11 4.425-.1c1.85.013 3.86.112 4.894.184s1.092.117 1.1-.066c.006-.183-.039-.595-.06-.813-.022-.218-.02-.243-.158-.276-.138-.032-.417-.07-.695-.152a3.4 3.4 0 0 1-.719-.302c-.164-.098-.217-.172-.245-.258s-.028-.183.288-1.102c.317-.919.952-2.66 1.294-3.558s.391-.954 1.688-.974 3.842-.002 5.226.033 1.606.088 1.74.217c.134.13.181.337.512 1.113.33.777.944 2.124 1.239 2.958s.272 1.155.173 1.372c-.098.216-.271.327-.544.418-.273.092-.646.164-.884.217-.24.052-.344.086-.371.266s.023.508.047.692c.023.184.019.225.627.197s1.828-.123 3.04-.171a55 55 0 0 1 3.536-.022c1.12.028 2.155.087 2.698.098s.597-.023.628-.144c.031-.12.04-.327.044-.485s.002-.268-.047-.322c-.05-.055-.147-.055-.37-.075a4.3 4.3 0 0 1-.842-.149 1.26 1.26 0 0 1-.67-.481c-.196-.26-.388-.644-1.954-4.337a5076 5076 0 0 1-6.108-14.504c-1.598-3.809-1.852-4.425-2.007-4.733s-.21-.308-.333-.307-.312.004-.54-.003-.495-.023-.647-.02zm24.74.17c-.46.013-.919.05-1.414.11-.99.121-2.128.334-3.27.75a14.7 14.7 0 0 0-3.172 1.644 9.4 9.4 0 0 0-2.065 1.91c-.57.707-1.096 1.523-1.5 2.189-.403.665-.684 1.18-.914 1.873s-.409 1.568-.515 2.491a18 18 0 0 0-.102 2.766c.038.867.148 1.627.317 2.475.17.848.4 1.783.748 2.63.347.846.813 1.605 1.436 2.378a15.5 15.5 0 0 0 2.14 2.168 10.4 10.4 0 0 0 2.109 1.354c.676.327 1.333.561 2.078.75.744.187 1.576.33 2.406.41.83.081 1.659.1 2.499.066a18 18 0 0 0 2.612-.3c.921-.176 1.911-.437 3.003-.805 1.091-.367 2.283-.84 3.106-1.278a7.4 7.4 0 0 0 1.576-1.107c.3-.268.45-.402.533-.56s.099-.34.108-1.3c.009-.963.01-2.705.057-3.79.047-1.086.139-1.515.3-1.81.162-.295.394-.457.743-.561s.815-.151 1.066-.194.289-.082.292-.267-.029-.517-.046-.707c-.018-.19-.022-.239-.863-.209-.84.03-2.519.138-4.258.156a90 90 0 0 1-4.441-.092l-.935-.038c-.035 0-.105-.002-.147.046-.043.048-.059.147-.064.354s0 .524.182.686c.18.163.538.17.84.193s.549.059.785.171.46.3.578.53.13.506.133 1.275 0 2.032-.005 3.037c-.005 1.006-.01 1.754-.05 2.2-.04.445-.114.587-.291.756a3 3 0 0 1-.85.533c-.393.17-.898.317-1.424.44a8 8 0 0 1-1.677.235 6.9 6.9 0 0 1-1.927-.241 7.9 7.9 0 0 1-1.946-.827 6.5 6.5 0 0 1-1.687-1.425c-.524-.618-1.02-1.414-1.422-2.31-.402-.895-.708-1.89-.956-2.88-.249-.989-.44-1.97-.488-3.025s.048-2.181.258-3.257a14.6 14.6 0 0 1 .922-2.995c.388-.894.843-1.658 1.254-2.187.411-.53.78-.824 1.201-1.15s.898-.681 1.412-.927c.515-.245 1.068-.38 1.596-.464a6.8 6.8 0 0 1 1.523-.085c.492.033.973.13 1.435.26.462.129.905.29 1.338.469.434.178.859.374 1.254.61.396.237.762.516 1.124.907.361.392.718.897 1.017 1.402.3.504.541 1.01.73 1.48.19.47.326.907.404 1.175s.097.367.277.426.521.076.709.047c.187-.03.22-.106.207-1.4-.012-1.294-.07-3.806-.1-5.087-.03-1.282-.03-1.332-.286-1.312s-.768.112-1.265.134c-.497.021-.979-.028-1.546-.11-.567-.083-1.22-.2-2.138-.348s-2.1-.328-3.113-.403c-.506-.037-.97-.049-1.43-.036zm-85.786.115-.003.001H58.6v.001h-.001c-.008.01-.01.044-.02.17-.012.172-.037.516-.036.695 0 .18.027.193.219.225s.55.081.856.164c.305.084.557.201.74.331.184.13.298.274.395.473.098.2.177.454.21 3.907.032 3.453.017 10.103-.025 13.528-.041 3.425-.108 3.625-.223 3.791a1.3 1.3 0 0 1-.496.413 3 3 0 0 1-.782.265c-.279.055-.605.083-.753.11-.147.027-.145.01-.169.193a8 8 0 0 0-.026.714c0 .166.028.174.55.15.521-.025 1.556-.025 2.484-.069.928-.043 1.75-.13 2.697-.125s1.998.043 3.042.078 2.08.067 3.087.073 1.986-.015 2.921-.117a13.8 13.8 0 0 0 2.778-.59c.949-.305 1.953-.73 2.872-1.287a12.5 12.5 0 0 0 2.473-1.987 11.4 11.4 0 0 0 1.826-2.444 13.5 13.5 0 0 0 1.114-2.762c.248-.877.371-1.64.436-2.382.065-.741.072-1.46.04-2.21a16 16 0 0 0-.257-2.317c-.151-.79-.382-1.59-.72-2.35a10.5 10.5 0 0 0-1.306-2.16 13.6 13.6 0 0 0-1.715-1.837 8 8 0 0 0-1.69-1.164c-.582-.298-1.21-.532-2.06-.757s-1.92-.44-2.76-.562-1.45-.153-2.474-.156-2.464.022-4.721.027a1000 1000 0 0 1-8.496-.032zm158.565.192c-.79-.016-.791-.016-.793.005 0 .02-.004.061-.004.168l.003.412c0 .135-.003.234.158.311.16.077.482.132.748.225.266.092.475.222.737.44.262.217.576.523.831.782s.45.471.579.628.189.26.223 3.433c.035 3.174.043 9.419.035 12.711s-.033 3.631-.192 3.94c-.158.309-.45.587-.816.741s-.803.185-1.06.201c-.256.017-.33.02-.354.182-.023.163.004.485.021.67.016.185.022.232.334.23.311 0 .929-.05 1.658-.086s1.57-.058 2.439-.05c.87.008 1.768.047 2.222.05.455.003.466-.03.457-.195a5 5 0 0 0-.074-.614c-.033-.156-.068-.173-.261-.203s-.543-.074-.87-.149c-.327-.074-.63-.179-.824-.296a.78.78 0 0 1-.338-.378c-.058-.13-.088-.263-.096-3.01-.008-2.748.006-8.112.006-10.865s-.014-2.897.006-2.956c.019-.059.071-.035 2.546 3.1 2.474 3.134 7.371 9.378 9.895 12.587s2.674 3.381 3.015 3.468.874.089 1.252.08c.378-.01.601-.03.738-.086s.188-.148.216-4.043.03-11.592.082-15.525c.051-3.932.15-4.1.312-4.283s.386-.383.743-.49c.357-.108.847-.124 1.098-.16.25-.034.261-.088.26-.225a5 5 0 0 0-.03-.49c-.018-.134-.039-.184-1.203-.209s-3.472-.026-4.665-.03c-1.193-.003-1.27-.01-1.296.12-.026.128.002.391.016.557s.015.234.186.289.512.097.87.182c.357.086.73.216.988.356.259.14.402.292.468 2.787.067 2.496.056 7.335.003 9.755-.052 2.42-.146 2.42-2.326-.3s-6.446-8.16-8.615-10.906c-2.17-2.745-2.24-2.795-2.787-2.808-.545-.014-1.565.008-2.866.003-1.3-.006-2.883-.039-3.674-.056zm-14.338.058c-1.514.035-2.73.207-4.008.565-1.278.359-2.456.881-3.41 1.497-.956.616-1.688 1.325-2.374 2.093s-1.325 1.594-1.766 2.37c-.44.776-.682 1.5-.908 2.292s-.436 1.649-.546 2.428c-.109.78-.116 1.481-.097 2.179s.066 1.391.207 2.143c.14.753.374 1.564.666 2.398s.643 1.691 1.15 2.521 1.17 1.633 1.836 2.273a9.9 9.9 0 0 0 2.07 1.524c.732.409 1.527.752 2.432 1.02.904.27 1.917.465 2.966.562 1.048.098 2.132.097 3.223-.016a15 15 0 0 0 3.2-.678c1.01-.339 1.93-.79 2.838-1.352a18.5 18.5 0 0 0 2.502-1.855c.698-.624 1.196-1.2 1.645-1.957.448-.756.845-1.692 1.2-2.686s.667-2.046.788-3.075c.12-1.029.05-2.034-.063-2.966-.113-.931-.269-1.789-.534-2.662a10.8 10.8 0 0 0-1.204-2.658 13.9 13.9 0 0 0-2.151-2.588 12.4 12.4 0 0 0-2.69-1.964c-.955-.507-1.76-.782-3.158-1.067s-2.3-.376-3.814-.34zm-28.774 1.258c.197.003.41.016.592.053.413.085.936.186 1.597.427.662.24 1.109.605 1.66 1.142.551.538 1.148 1.167 1.628 1.994s.748 1.804 1.015 2.836c.268 1.033.546 2.049.644 3.24.097 1.19-.079 2.473-.138 3.546s-.014 1.91-.227 2.764c-.214.854-.429 1.749-.982 2.571a8.2 8.2 0 0 1-2.073 2.088 4.7 4.7 0 0 1-2.083.798c-.704.1-1.459.095-2.114.004a5.3 5.3 0 0 1-1.722-.53 6 6 0 0 1-1.442-1.047 10.3 10.3 0 0 1-1.254-1.495 8.4 8.4 0 0 1-.976-1.823c-.304-.769-.61-1.78-.833-2.842a22 22 0 0 1-.426-3.267c-.062-1.096-.045-2.176.07-3.14.116-.965.331-1.814.575-2.566.244-.753.517-1.409.904-1.986a6.9 6.9 0 0 1 1.333-1.44c.443-.364.83-.593 1.26-.78a6.8 6.8 0 0 1 1.379-.426c.47-.092.872-.117 1.12-.118.116 0 .297-.007.493-.003zm-105.532.392c.643-.014 1.62-.017 2.541.15.922.168 1.688.402 2.555.769.868.366 1.597.935 2.32 1.697.721.761 1.242 1.735 1.65 2.66.408.926.542 1.74.695 2.768.154 1.027.24 2.18.249 3.183.008 1.003-.013 1.9-.147 2.616s-.399 1.327-.606 1.965a8.6 8.6 0 0 1-.791 1.762c-.36.623-.882 1.058-1.369 1.54-.487.483-1.14.994-1.794 1.21-.653.215-1.01.417-1.937.611-.93.196-1.889.227-2.712.21-.824-.019-1.197-.023-1.582-.218-.384-.195-.317-.16-.437-.557s-.169-.894-.164-1.581c.005-.688-.05-1.55-.02-4.66.029-3.11.103-8.495.113-11.175.01-2.698.044-2.598.255-2.706.21-.108.537-.23 1.18-.244zm27.266.025c.144.01.147.017.336.039.4.045.755.146 1.164.278.41.133.748.253 1.106.51s.715.606 1.04 1.15c.325.545.54 1.247.686 1.936s.113 1.284.121 1.978-.037 1.39-.182 1.956c-.144.565-.295 1.06-.576 1.446s-.57.747-.961 1.035c-.39.289-.848.48-1.397.63-.548.149-1.096.211-1.529.262s-.687.111-.85.078c-.164-.033-.225-.1-.246-.14-.023-.043-.027-.244-.02-1.802.007-1.77.109-5.133.131-6.95.023-1.816.032-2.077.12-2.168.088-.09.164-.125.392-.18.171-.042.395-.067.665-.058zm107.392.188c.196.004.41.016.592.054.413.085.936.185 1.597.426.662.242 1.11.605 1.66 1.143.552.537 1.148 1.167 1.628 1.994.48.826.748 1.804 1.016 2.836.267 1.032.545 2.049.642 3.24.098 1.19-.077 2.473-.137 3.545-.059 1.072-.014 1.91-.227 2.764-.214.855-.43 1.75-.982 2.572a8.2 8.2 0 0 1-2.074 2.088 4.7 4.7 0 0 1-2.082.797c-.704.101-1.46.096-2.114.004a5.3 5.3 0 0 1-1.723-.529 6 6 0 0 1-1.44-1.047 10.3 10.3 0 0 1-1.255-1.495 8.4 8.4 0 0 1-.976-1.823c-.304-.77-.61-1.78-.833-2.842a22 22 0 0 1-.426-3.268c-.062-1.095-.045-2.175.07-3.14.116-.965.331-1.813.575-2.566s.517-1.408.904-1.986a6.9 6.9 0 0 1 1.333-1.44c.443-.364.83-.592 1.26-.78a6.8 6.8 0 0 1 1.379-.425c.47-.093.872-.118 1.12-.119.116 0 .296-.006.493-.003zm-84.806 5.225 3.292 8.84-6.677-.07z" style="display:inline;opacity:1;fill:#000;fill-opacity:1;stroke:#fff;stroke-width:2;stroke-linecap:butt;stroke-linejoin:round;stroke-dasharray:none;stroke-opacity:1;paint-order:stroke fill markers" transform="translate(-.186 -.2)"/><path d="M239.65 106.925c-.2.533-.402 1.066-.667 1.556-.265.489-.595.934-1.034 1.293s-.987.632-1.609.847c-.621.215-1.316.372-2.01.529m-.004-4.552c.362.123.725.245 1.06.412.334.167.642.378.95.589m-9.117 1.256 5.598-.008m-11.53 2.617.256-.04c.236-.038.699-.113 1.178-.282.479-.17.973-.434 1.344-.718.37-.283.617-.585.87-.956.252-.371.51-.812.651-1.198s.168-.717.195-1.047m-5.01 1.517c.264-.13.528-.26.793-.454a3 3 0 0 0 .776-.852c.248-.396.478-.928.708-1.46m3.204 1.3-3.899-.105m-7.13 4.353c.014-.001.03-.003.364-.056s.987-.158 1.555-.364a3.85 3.85 0 0 0 1.416-.88 3.3 3.3 0 0 0 .746-1.145c.13-.351.143-.625.156-.9m-5.197.116.958-.012 4.607-.058m-5.02-1.778 4.668.083m-6.313 3.043c-.468-.368-.937-.736-1.5-.998-.564-.262-1.223-.418-1.881-.573m-.108-2.105-.07 5.941m-3.245-4.944c-.196.534-.392 1.07-.7 1.591a6.3 6.3 0 0 1-1.124 1.395c-.398.362-.775.577-1.262.781-.486.204-1.082.397-1.455.5a3 3 0 0 1-.677.123m.058-4.696c.044.016.088.033.26.105.173.071.473.198.761.356.288.159.564.35.84.54m-8.79 3.24c.298-.184.596-.369.946-.609s.752-.534 1.116-.866c.364-.333.689-.702.912-1.02s.345-.586.466-.853m.198-1.464.034 4.59m-3.63-3.192 5.688.05m-9.093.185c-.27.522-.541 1.045-.856 1.485s-.673.799-1.155 1.136a9 9 0 0 1-1.498.83c-.41.175-.621.208-.834.241m4.835-3.958-3.751-.35m-1.712 1.728c.372-.3.744-.6 1.043-.864.3-.263.525-.489.702-.792s.303-.684.43-1.064m-3.192 1.455a38 38 0 0 1-.565 1.613c-.179.46-.344.804-.659 1.138-.314.333-.777.656-1.197.876s-.798.34-1.176.458m1.067-4.366c.132.262.265.524.34.812s.095.602.115.916m-2.01-1.14c.144.19.287.38.37.611.083.232.105.504.127.777m-5.912 2.167c.752-.138 1.505-.276 2.114-.489s1.075-.5 1.372-.884c.298-.383.428-.861.557-1.34m-5.135-.413 5.668.01m-5.105-1.697h4.622m-9.765 1.15 3.109 1.546m-3.349-3.266.041 5.713m26.806-.297c.45-.02.898-.039 1.159-.075.26-.036.332-.088.362-.23s.02-.373.008-.605" style="fill:none;fill-opacity:1;stroke:#000;stroke-width:1;stroke-linecap:butt;stroke-linejoin:round;stroke-dasharray:none;stroke-opacity:1;paint-order:stroke fill markers" transform="translate(-.186 -.2)"/><path d="M226.6 106.418a24 24 0 0 0-.109-.464c-.034-.138-.065-.249-.096-.36m-.778 1.023c-.01-.166-.02-.331-.053-.493-.034-.162-.093-.32-.151-.477m-12.78.21c.13.14.26.28.365.429s.182.304.26.46m-1.52-.532c.148.134.296.269.384.423.09.154.118.327.148.5m-20.58-.584-.338-1.2m-.72 1.224c-.01-.117-.02-.234-.06-.4-.04-.167-.11-.384-.18-.6m-17.776.09.752 1.068m-1.819-.645.728 1.066" style="fill:none;fill-opacity:1;stroke:#000;stroke-width:.600001;stroke-linecap:butt;stroke-linejoin:round;stroke-dasharray:none;stroke-opacity:1;paint-order:stroke fill markers" transform="translate(-.186 -.2)"/><path d="m246.857 102.062.504.002m1.076-3.904-1.264 4.041m-1.279-3.98 1.15 3.982m-1.602-3.852.64.005m2.172-.055H249m-.2-.124v4.047m-3.308.079-.009-4.151m-2.14 4.2.057-3.935m-1.315-.091 2.497-.008" style="fill:none;fill-opacity:1;stroke:#000;stroke-width:.4;stroke-linecap:butt;stroke-linejoin:round;stroke-dasharray:none;stroke-opacity:1;paint-order:stroke fill markers" transform="translate(-.186 -.2)"/></g></svg>