<svg xmlns="http://www.w3.org/2000/svg" xmlns:xlink="http://www.w3.org/1999/xlink" xml:space="preserve" width="612.382" height="311.384" viewBox="0 0 162.026 82.387"><defs><radialGradient xlink:href="#a" id="b" cx="157.001" cy="105.922" r="72.98" fx="157.001" fy="105.922" gradientTransform="matrix(1.72055 -.35614 .15518 .74967 -130.77 100.906)" gradientUnits="userSpaceOnUse"/><linearGradient id="a"><stop offset="0" style="stop-color:#f7d337;stop-opacity:1"/><stop offset=".456" style="stop-color:#ea2131;stop-opacity:1"/><stop offset=".596" style="stop-color:#f23645;stop-opacity:1"/><stop offset="1" style="stop-color:#592120;stop-opacity:1"/></linearGradient></defs><g style="display:inline" transform="translate(-36.776 -105.208)"><path d="M45.115 185.317a7 7 0 0 1-.761.675c-.314.227-.645.385-.726.517-.081.133.087.241.504.306a6.6 6.6 0 0 0 1.47.04c.388-.045.496-.159.8-.164.303-.005.802.097 1.243.092s.826-.12 1.284-.247a9.4 9.4 0 0 1 1.671-.336c.683-.067 1.517-.062 2.032-.167s.71-.323 1.184-.41 1.227-.043 1.733.033c.507.076.767.184 1.279.184s1.276-.108 2.768-.17a94 94 0 0 1 4.963-.052c1.249.027 1.525.098 1.818.076.292-.022.6-.135.972-.12.371.017.804.163 1.279.16.474-.002.988-.154 1.595-.151s1.306.16 1.799.181c.493.022.78-.092 1.18-.04.402.051.916.268 1.255.268s.501-.217.853-.398.894-.328 1.336-.282c.441.046.782.285 1.186.314s.87-.149 1.216-.22c.347-.07.575-.032.867.028s.65.14 1.986.187 3.648.057 5.41.043c1.76-.013 2.968-.051 3.743.046.774.098 1.116.33 1.4.382.285.052.512-.078.97-.203.458-.124 1.146-.244 1.685-.233s.929.152 1.268.25c.338.097.625.151.799.086.173-.065.233-.25.512-.268.279-.02.777.127 1.24.13s.891-.138 1.341-.17c.45-.033.921.043 1.352.156.43.114.82.266 1.07.263.249-.003.357-.16.525-.181.168-.022.396.092.526.065s.162-.195.514-.293c.353-.097 1.024-.125 1.471-.03s.67.312.93.306c.26-.005.557-.233.79-.246.233-.014.401.187.613.208.21.022.465-.135 1.219-.233.753-.097 2.004-.135 2.857-.119s1.309.087 1.677.244.65.401.84.404.287-.236.43-.371a.425.425 0 0 1 .518-.068c.184.1.363.333.617.328.255-.005.586-.25.886-.369s.572-.113.78-.051.355.181.447.19c.092.008.13-.095.287-.1.158-.006.434.086.61.07.176-.017.252-.141.758-.209.507-.068 1.444-.078 2.056-.035s.9.14 1.12.138c.219-.003.37-.106.652-.097s.693.127.975.138c.282.01.434-.087.634-.098.2-.01.45.065.758.13.31.065.678.12.992.07.314-.048.574-.2.82-.249.247-.048.48.005.751-.046.27-.051.58-.208.878-.265s.585-.014.831.181c.247.195.453.542.661.566.209.025.42-.273.807-.446.388-.174.951-.223 1.38-.177.427.047.72.187.993.182.274-.005.529-.157.786-.255a1.47 1.47 0 0 1 .794-.092c.276.049.568.19.94.317.37.127.82.241 1.227.211.406-.03.769-.203 1.116-.219.346-.016.677.125.913.127.235.003.376-.132.734-.162.357-.03.931.046 1.262.027.33-.02.417-.133.734-.035.317.097.864.406 1.235.471s.566-.114.837-.19c.271-.075.618-.048.872.084.255.133.418.372.678.36.26-.01.617-.27 1.27-.387s1.601-.089 2.316-.008c.715.082 1.197.217 1.569.198.37-.019.63-.192.98-.255.35-.062.788-.013 1.214.114.425.128.837.333 1.617.41.78.075 1.928.021 2.69-.104.76-.124 1.135-.32 1.408-.284.274.035.447.3.648.341.2.04.428-.143.68-.162.251-.02.528.127.777.132.25.005.471-.13.68-.138.208-.008.403.111.655.109s.561-.128.851-.133.56.108.775.07.37-.227.653-.295c.281-.068.688-.013 1.124.135.436.15.902.393 1.238.374s.541-.3.902-.447c.36-.146.875-.157 1.17-.146.295.01.37.043.588-.162.216-.206.574-.65.923-.862s.691-.19 1.203-.628c.512-.44 1.195-1.338 1.812-2.1.618-.76 1.17-1.384 1.441-1.796.271-.411.26-.612.385-.79.125-.18.385-.336.664-.65.279-.315.577-.786.826-1.049s.45-.317.574-.46c.125-.144.173-.377.401-.748s.634-.88.918-1.441c.285-.56.447-1.173.62-1.49.174-.317.358-.339.434-.523s.043-.53.176-.731.43-.255.59-.436c.16-.182.182-.49.288-.7.105-.208.295-.316.986-1.264.69-.948 1.882-2.736 2.565-3.709s.856-1.13.943-1.292.086-.33.187-.417c.1-.086.3-.092.409-.23s.124-.41.273-.734c.15-.325.43-.704.629-.93.197-.224.311-.295.382-.416.07-.122.097-.296.235-.51s.388-.468.68-.788.629-.704.748-.932c.119-.227.021-.298-.25-.24-.27.056-.715.24-1.245.327s-1.149.076-1.637.049c-.487-.027-.845-.07-1.66-.092s-2.089-.022-2.814.04-.905.187-1.293.412-.983.55-1.617.983c-.634.434-1.305.975-1.739 1.254-.433.28-.628.296-.75.396s-.17.284-.387.382c-.217.097-.602.108-.973.24-.371.134-.729.388-1.956.876-1.227.487-3.323 1.208-4.49 1.57-1.168.364-1.407.37-1.71.464-.304.095-.672.28-3.175.607-2.503.328-7.14.799-9.592 1.021-2.451.222-2.717.195-2.882.092s-.23-.282-.344-.366-.276-.073-.412.008c-.135.082-.243.233-4.017.445-3.773.211-11.212.482-15.001.604-3.79.122-3.93.095-5.442.103s-4.394.051-5.951.008c-1.558-.044-1.79-.174-3.625-.138s-5.268.235-7.127.363c-1.858.127-2.14.181-3.73.23s-4.488.092-6.024.119-1.71.038-2.829.049c-1.12.01-3.186.022-3.905-.118s-.09-.431.818-.78 2.095-.755 2.804-.95.938-.18 1.145-.073.39.307.498.268.138-.314.973-.793 2.475-1.16 3.49-1.708 1.406-.962 1.74-1.161c.333-.2.608-.184 1.501-.72s2.402-1.624 4.731-2.325c2.33-.702 5.478-1.016 7.095-1.253 1.616-.238 1.7-.399 1.934-.648s.617-.586 2.797-1.448 6.156-2.248 8.263-3.057 2.344-1.038 2.628-1.122c.283-.084.613-.023 1.065-.241.452-.219 1.026-.717 1.501-.927.476-.211.85-.135 1.065-.215s.269-.318.468-.421c.199-.104.544-.073.731-.173.188-.1.219-.33.495-.463.275-.134.796-.173 1.222-.322s.754-.41 1.11-.517.74-.062 1.004-.154c.265-.091.41-.321.579-.413s.36-.046.528-.169c.169-.122.315-.414.544-.567s.544-.168.736-.214.26-.123.56-.291a9.4 9.4 0 0 1 1.198-.564c.372-.134.586-.141.701-.195s.13-.153.25-.207c.118-.053.34-.061.54-.13.199-.07.375-.2.578-.276s.433-.1.575-.188.195-.241.367-.318c.173-.076.464-.076.644-.122s.249-.138.364-.257.276-.264.49-.364c.215-.1.483-.153.69-.253s.352-.245.559-.306.475-.038.716-.21c.242-.173.456-.54.767-.748.31-.207.716-.253.953-.356.238-.103.307-.264.483-.368s.46-.15.655-.314c.196-.165.303-.448.494-.663.192-.214.468-.36.747-.425.28-.065.563-.05.698-.145.134-.096.118-.303.245-.406.126-.104.394-.104.54-.192.145-.088.168-.264.352-.437.184-.172.529-.34 1.016-.613.486-.272 1.114-.647 1.478-.92.364-.271.464-.44.655-.623.192-.184.475-.384.72-.456.246-.073.453-.02.636-.12.184-.099.345-.352.437-.55.092-.2.115-.346.345-.625.23-.28.666-.694 1.004-.912s.574-.241.685-.375.096-.38.242-.613c.145-.234.452-.456.716-.67s.487-.422.697-.56.41-.207.521-.364.134-.402.318-.747.529-.79 1.13-2.042c.602-1.252 1.46-3.313 1.816-4.876s.21-2.628.134-3.283c-.076-.656-.084-.9-.195-1.169-.111-.268-.326-.56-.452-.885-.127-.325-.165-.685-.28-.911-.115-.227-.306-.318-.425-.53-.119-.21-.165-.54-.253-.75s-.218-.303-.395-.552a6 6 0 0 1-.52-.934c-.123-.28-.146-.433-.25-.563-.103-.13-.287-.238-.551-.514s-.61-.72-.897-1.042-.517-.52-.666-.67-.219-.25-.445-.387c-.226-.138-.609-.314-.83-.49-.223-.177-.284-.353-.476-.506-.191-.153-.513-.284-.712-.425-.2-.142-.276-.295-.445-.426-.168-.13-.429-.237-.793-.455s-.831-.548-1.195-.701c-.364-.154-.624-.13-.862-.246-.237-.115-.452-.367-.655-.517s-.395-.195-.598-.333-.417-.368-.574-.437-.257.023-.395-.05c-.138-.072-.314-.31-.563-.436-.249-.127-.57-.142-.87-.291-.298-.15-.574-.433-.85-.579s-.552-.153-.781-.191c-.23-.039-.414-.108-.537-.211-.122-.104-.184-.241-.475-.299-.29-.057-.812-.034-1.115-.1-.302-.065-.386-.218-.762-.321-.375-.104-1.042-.157-1.421-.284-.38-.126-.471-.325-.785-.444s-.85-.157-1.146-.21c-.295-.054-.348-.123-.586-.196-.237-.073-.659-.15-.866-.226s-.199-.154-.938-.222c-.74-.07-2.226-.13-4.934-.203s-6.64-.158-8.819-.142c-2.18.015-2.609.13-3.271.164-.663.035-1.56-.011-2.705.089s-2.54.344-3.233.513c-.694.168-.686.26-1.111.295s-1.283.011-1.812.084-.728.242-1.073.341-.835.13-1.149.184-.452.13-.693.188c-.242.057-.587.095-.801.18s-.299.214-.556.299c-.256.084-.685.122-.965.206-.28.085-.41.215-.555.219s-.307-.119-.468-.119c-.16 0-.322.123-.551.195s-.529.096-.686.138-.172.104-.25.165c-.076.061-.214.123-.486.245-.272.123-.678.307-1.015.452s-.605.253-.92.368c-.313.115-.673.238-.91.322-.238.084-.353.13-.48.195-.126.065-.264.15-.414.161s-.31-.05-.655.103c-.344.154-.873.521-1.21.725s-.483.24-.62.24c-.139 0-.269-.037-.487.04-.219.076-.525.267-.79.413-.264.145-.486.245-.681.371-.196.127-.364.28-.583.391s-.486.18-.662.337-.26.403-.36.544-.215.18-.341.13-.265-.187-.567-.176c-.303.012-.77.173-1.012.291-.241.12-.256.196-.352.257s-.272.107-.494.203-.49.242-.77.349-.571.176-1.012.379c-.44.203-1.03.54-1.26.82s-.1.502-.023.678.1.306-.061.38c-.161.072-.506.087-.697.14-.192.054-.23.146-.31.12-.081-.027-.204-.173-.43-.215s-.555.02-.712.196-.142.467-.18.666c-.039.2-.13.307-.272.353s-.334.03-.445.072-.141.142-.325.169-.521-.02-.67.08-.112.345-.165.518c-.054.172-.2.271-.345.214-.146-.057-.291-.272-.48-.375-.187-.104-.417-.096-.528-.008-.11.088-.103.256-.302.325-.2.07-.606.039-.832.127s-.272.295-.417.387c-.146.091-.391.068-.49.203-.1.134-.054.425-.207.517-.154.092-.506-.016-.82.042-.314.057-.59.28-.763.452-.172.172-.24.295-.46.448a3.7 3.7 0 0 1-.892.433c-.306.096-.551.103-.732.203s-.295.291-.463.372c-.169.08-.39.05-.533.218-.141.169-.203.536-.272.766-.068.23-.145.322-.333.314s-.486-.115-.827-.05c-.341.066-.724.303-.931.537s-.238.463-.437.563c-.2.1-.567.069-.923.215-.356.145-.701.467-.885.681s-.207.322-.33.353c-.122.03-.344-.015-.494.088s-.226.356-.344.52c-.12.165-.28.24-.426.212s-.277-.16-.402-.204-.244.002-.316.126-.1.327-.177.44c-.078.112-.205.134-.29.251-.086.118-.129.332-.336.437s-.578.099-.83.238c-.252.14-.385.424-.618.547s-.566.086-.966.271-.865.595-1.215.82c-.349.227-.582.27-.8.395s-.421.33-.754.43c-.334.1-.797.096-1.087.2s-.406.318-.33.699.344.927.53 1.499c.185.572.288 1.168.422 1.438.134.271.3.217.59.074.292-.144.709-.377 1.001-.496.293-.12.461-.125.65-.222.188-.098.396-.287.617-.384.22-.096.454-.098.959-.376s1.282-.83 1.748-1.166.62-.455.8-.512c.178-.057.381-.051.524-.127.142-.076.223-.233.383-.354s.398-.204.605-.261.384-.087.514-.15c.13-.062.214-.156.354-.239.141-.083.339-.153.484-.293s.237-.348.542-.507c.304-.16.822-.271 1.152-.392.33-.12.474-.25.745-.337s.67-.13.885-.24.248-.286.357-.393c.11-.107.297-.145.45-.195s.272-.112.432-.184.36-.153.532-.264.316-.252.634-.348.811-.148 1.088-.172c.276-.024.336-.022.482-.111.146-.09.38-.271.626-.416a3 3 0 0 1 .877-.343c.371-.09.853-.16 1.196-.277s.546-.283.994-.416c.449-.133 1.142-.233 1.543-.35.4-.116.51-.249.723-.34.214-.09.534-.139.72-.245.188-.105.242-.268.559-.346s.897-.07 1.243-.121c.345-.051.456-.16.8-.21.344-.048.92-.037 1.291-.085.37-.05.536-.158.695-.23.16-.072.316-.107.492-.161s.373-.13.682-.168c.308-.038.728-.04.972-.096.244-.055.313-.165.55-.22.236-.054.64-.054.936-.006s.484.143.759.167c.274.024.636-.023.904-.08.267-.056.44-.122.623-.136.184-.014.38.022.522-.017.143-.04.233-.154.538-.218.306-.063.827-.074 1.198-.056.372.018.594.066.805.145.21.078.41.187.637.16s.481-.19.89-.24.973.01 1.354.122c.38.11.58.272.768.275.187.004.364-.149.553-.143s.393.17.546.24c.153.068.257.041 2.03.373 1.774.331 5.218 1.02 6.992 1.411 1.773.391 1.877.483 2.053.539.176.055.425.074.573.113.147.038.193.095.33.128.135.033.361.04.832.215.472.174 1.188.515 1.638.693s.634.193.837.366c.203.172.425.502.619.697.193.195.358.257.52.398.164.142.325.364.535.498.211.135.471.18.661.297s.308.305.653.824c.345.52.916 1.37 1.155 1.854.24.485.148.603.184.768s.201.376.34.577c.137.2.248.392.235.804s-.152 1.044-.272 1.458-.224.609-.485 1.141c-.26.533-.678 1.403-1.017 1.927-.339.525-.6.705-.868.948-.268.244-.544.55-.795.874-.25.324-.476.665-.695.866s-.429.262-.66.452-.485.507-.851 1.084c-.366.576-.845 1.411-1.167 1.873-.321.462-.486.55-.59.676-.103.127-.145.291-.289.381-.143.09-.389.106-.592.182-.203.077-.364.215-.522.305-.16.09-.317.132-.435.22-.119.088-.2.222-.337.288-.138.065-.334.06-.705.34-.372.28-.92.842-1.3 1.126s-.591.29-.78.4-.358.328-.559.423c-.2.094-.433.067-.615.14-.181.074-.311.247-.883.71-.571.463-1.584 1.216-2.196 1.588-.613.37-.824.36-1.363.614-.539.255-1.406.775-1.964 1.043-.558.269-.807.285-1.078.466-.27.182-.563.529-.878.753-.314.225-.65.328-.975.442s-.639.238-.894.311c-.254.074-.45.095-.617.182-.168.087-.31.238-.593.455-.285.217-.713.498-3.583 2.058a1263 1263 0 0 1-10.97 5.864c-2.786 1.469-3.046 1.568-5.463 2.698s-6.992 3.291-9.397 4.387-2.644 1.126-2.885 1.325-.487.567-.75.755c-.265.187-.549.195-.713.268-.165.073-.211.21-.349.257-.138.046-.368 0-.604.048s-.478.19-.762.342a8 8 0 0 1-.896.423c-.287.109-.536.163-.769.31-.233.145-.45.384-.683.465-.232.081-.482.005-.877.14-.396.136-.937.483-1.327.662s-.629.19-.846.292c-.216.103-.411.298-.655.38-.244.08-.537.048-.807.173-.271.125-.52.406-.9.601-.379.195-.888.304-1.257.564s-.596.672-1.717 1.262-3.137 1.36-4.226 1.728c-1.089.369-1.251.336-1.576.558s-.813.7-1.198.965c-.384.265-.666.32-1.05.596-.385.276-.873.774-1.214.964s-.536.07-.775.179c-.238.108-.52.444-.867.682-.346.239-.758.38-1.208.477-.45.098-.937.152-1.31.276-.375.125-.635.32-.927.412s-.618.081-.824.136c-.206.054-.292.173-.441.208s-.36-.013-.466-.038c-.106-.024-.106-.024-.255.125z" style="display:inline;opacity:1;fill:url(#b);fill-rule:evenodd;stroke:none;stroke-width:.499999;stroke-linejoin:round;paint-order:stroke fill markers"/><path d="M111.362 120.58c-.088.004-.207.043-.366.135-.363.211-.932.705-1.45 1.252a10.2 10.2 0 0 0-1.443 1.94c-.46.79-.915 1.77-1.18 2.562-.266.79-.343 1.392-.405 2.164s-.11 1.714-.13 2.324c-.019.61-.008.886.057 1.214s.184.706.415 1.351.57 1.555.855 2.157c.285.6.512.894.84 1.216s.756.674 1.404 1.045c.647.372 1.514.761 2.445 1.27.932.51 1.929 1.138 2.59 1.856s.986 1.525 1.566 1.403 1.414-1.172 2.765-2.118c1.352-.945 3.221-1.785 4.237-2.267s1.178-.607 1.436-.867c.257-.26.61-.655.994-1.37s.802-1.75 1.03-2.308c.23-.558.27-.64.319-.867.049-.228.106-.602.115-1.336s-.028-1.828-.087-2.644c-.058-.815-.137-1.351-.369-2.033a13.6 13.6 0 0 0-2.305-4.069c-.443-.543-.9-1.034-1.274-1.39s-.665-.578-.836-.576c-.172.002-.223.227-.025.525s.644.669 1.095 1.219.907 1.278 1.27 1.92.634 1.197.837 1.872c.203.674.338 1.468.4 2.373.06.904.046 1.92.046 2.65s.014 1.175-.216 1.864-.704 1.624-1.107 2.251a5.7 5.7 0 0 1-.975 1.176c-.242.229-.397.367-.516.426-.12.06-.292-.433-.375-.172-.839 2.633-6.384 5.71-6.83 5.444-.96-.575-5.139-4.274-5.534-5.391-.504-.263-.905-.674-1.322-1.362s-.85-1.653-1.095-2.336c-.243-.682-.298-1.083-.327-1.847a87 87 0 0 1-.039-2.616c-.003-.726-.002-1.051.126-1.555.127-.504.381-1.187.598-1.777.217-.591.396-1.09.645-1.571.25-.483.568-.948.948-1.382.379-.433.818-.834 1.075-1.11s.333-.429.292-.54c-.022-.062-.082-.112-.194-.106z" style="display:inline;opacity:1;fill:#fff;fill-opacity:1;fill-rule:evenodd;stroke:#474f83;stroke-width:.4;stroke-linejoin:round;stroke-dasharray:none;stroke-opacity:1;paint-order:stroke fill markers"/><path d="M117.551 114.523c.044.087.13.26.122 1.124s-.11 2.419-.198 3.519c-.086 1.1-.157 1.744-.13 2.064s.152.314.54.287c.387-.027 1.037-.076 1.598-.276.56-.2 1.032-.553 1.292-.64s.309.093.192.437-.398.853-.482 1.14.03.352.38.512c.349.16.934.414 1.416.59s.861.274.997.48c.135.206.027.52-.141.642s-.396.051-.458.092c-.062.04.04.192.355.737.314.544.84 1.481 1.349 2.07.51.587 1.002.825 1.566 1.034a12.5 12.5 0 0 0 1.955.536c.759.15 1.642.269 5.063.442s9.38.4 12.604.569 3.711.276 3.925.393.155.24-.94.325c-1.094.084-3.223.127-5.973.197s-6.119.168-8.89.258-4.944.17-6.344.24c-1.4.071-2.029.13-2.43.288-.4.157-.574.412-.78.482s-.444-.043-.772-.45a7 7 0 0 1-.98-1.728c-.236-.623-.29-1.17-.447-1.671s-.418-.956-.58-1.253c-.163-.297-.228-.435-.369-.627a4 4 0 0 0-.482-.549c-.124-.11-.157-.082-.114.014.044.096.163.261.246.458.082.198.128.426.206.517.077.09.185.043.311.181.126.137.27.46.37.79.101.33.16.67.092.744s-.261-.115-.422-.202c-.16-.086-.288-.07-.358.038s-.084.309-.057.477.095.303.237.279.359-.209.507-.29c.147-.081.226-.06.265.117.04.176.04.506-.057.68-.096.173-.288.19-.437.226s-.255.093-.28.202c-.026.108.028.268.148.3.12.033.308-.062.476-.126.168-.063.317-.096.434-.046.118.05.205.183.228.31.023.128-.018.25-.156.407s-.374.35-.48.498c-.105.15-.08.255.016.245.096-.009.264-.134.414-.23q.225-.144.4-.203c.116-.04.216-.05.315.046a.64.64 0 0 1 .176.477c-.02.177-.158.329-.286.45-.127.12-.243.21-.302.305-.058.097-.058.2.007.246s.195.035.308-.005c.112-.041.207-.111.385-.183a4.091 4.091 0 0 1 1.6-.245c.273.016.506.07.798.218.293.147.645.388 1.348.742.703.353 1.757.82 3.008 1.404 1.252.586 2.7 1.29 4.24 1.976s3.171 1.353 4.52 1.954c1.348.602 2.413 1.138 3.42 1.613s1.958.889 3.073 1.39c1.115.502 2.394 1.092 3.51 1.59 1.114.498 2.064.904 2.55 1.207.487.303.51.502.322.578-.187.077-.586.031-1.697-.344-1.11-.376-2.934-1.08-4.872-1.847-1.939-.766-3.992-1.593-6.069-2.363s-4.175-1.483-6.34-2.257-4.393-1.609-5.738-2.095-1.804-.625-2.264-.69-.92-.057-1.138.077-.195.394-.069.766c.127.372.357.854.682 1.394s.747 1.138 1.26 1.812c.514.675 1.12 1.425 1.805 2.307.686.88 1.452 1.892 2.214 2.869s1.52 1.919 2.34 2.907c.82.989 1.702 2.023 2.625 3.165s1.888 2.39 3.41 4.271c1.52 1.881 3.596 4.394 5.251 6.405s2.889 3.52 3.479 4.375c.59.854.536 1.053.333 1.172s-.556.157-2.119-1.49-4.336-4.98-7.002-8.121c-2.667-3.142-5.226-6.091-7.329-8.543s-3.75-4.406-4.934-5.785c-1.183-1.379-1.904-2.183-2.551-2.835s-1.222-1.153-1.617-1.496c-.394-.344-.609-.532-.818-.61a.67.67 0 0 0-.522.01.23.23 0 0 0-.133.21c-.002.067.014.113-.05.151-.063.038-.204.07-.277.102s-.077.067.002.07c.078.005.24-.022.322.03.082.05.086.181.095.277s.025.157.098.126c.073-.03.203-.153.393-.22s.312-.235.525-.168c.212.067.515.37.637.475.123.105.286.216.307.323s-.048.17-.132.272-.278.196-.537.347c-.258.151-.634.4-.946.79-.312.388-.561.917-.77 1.417s-.377.97-.519 1.338-.257.632-.322 1.381c-.065.75-.08 1.983-.159 3.774-.078 1.79-.22 4.139-.3 6.545s-.1 4.869-.148 7.61c-.048 2.74-.124 5.76-.172 9.138s-.067 7.118-.094 9.675-.061 3.932-.176 4.723-.31.998-.474 1.02c-.162.02-.293-.144-.39-1.675-.098-1.53-.163-4.426-.215-7.068s-.09-5.028-.113-7.204-.03-4.14-.063-5.658c-.033-1.517-.09-2.586-.151-4.39a295 295 0 0 1-.15-6.702c-.023-2.358-.004-4.534-.094-5.896-.09-1.361-.289-1.91-.465-2.377s-.33-.854-.569-1.216c-.24-.362-.565-.699-.948-.973a5 5 0 0 0-1.188-.613c-.363-.128-.65-.174-.837-.255-.185-.08-.27-.195-.23-.339.04-.143.206-.316.363-.419s.306-.138.7-.14c.395-.002 1.035.029 1.477.02s.688-.06.895-.11.375-.1.57-.203c.196-.103.418-.26.704-.542.285-.282.634-.688.896-1.096.263-.408.439-.818.529-1.325.09-.508.094-1.113.16-1.464.068-.35.198-.446.33-.486s.266-.025.492-.178.544-.475.904-.703.763-.362 1.163-.647.799-.723 1.052-1.048c.252-.326.36-.54.356-.64s-.119-.084-.318-.078c-.2.006-.483.002-.607-.048-.125-.05-.09-.146-.063-.316s.046-.416-.002-.627a.7.7 0 0 0-.418-.505c-.255-.12-.65-.18-.816-.16-.167.022-.105.125.042.294.148.168.381.402.552.59.17.187.278.33.306.536a.9.9 0 0 1-.218.709c-.197.23-.542.417-.732.6-.19.181-.224.357-.346.51-.123.154-.334.284-.456.466-.123.182-.157.416-.255.598a1.05 1.05 0 0 1-.433.408c-.174.095-.362.157-.492.241s-.203.192-.25.373c-.045.182-.064.44-.122.648s-.153.37-.272.442-.26.058-.38-.032c-.122-.09-.221-.255-.302-.443a3 3 0 0 1-.178-.576c-.036-.178-.048-.324-.17-.416s-.357-.13-.598-.266a2.04 2.04 0 0 1-.651-.611c-.161-.242-.234-.49-.318-.698-.085-.208-.18-.374-.378-.48-.197-.105-.496-.15-.7-.254a.68.68 0 0 1-.364-.472c-.048-.203-.033-.444.008-.688.04-.243.105-.488.235-.693s.326-.37.447-.538a.8.8 0 0 0 .16-.516c-.006-.174-.063-.35-.159-.436-.095-.086-.23-.083-.425.051s-.452.399-.64.654c-.187.254-.306.5-.377.712-.07.213-.094.393-.065.625s.11.515.126.687c.018.173-.028.234-.153.142-.124-.092-.327-.337-.527-.644a4.2 4.2 0 0 1-.511-1.067c-.117-.392-.155-.81-.195-1.183-.04-.374-.083-.703-.077-1.023s.06-.63.178-.921a3.4 3.4 0 0 1 .485-.795c.182-.232.362-.424.52-.567.16-.144.298-.24.418-.404a1.1 1.1 0 0 0 .222-.64c-.002-.242-.109-.49-.145-.642-.037-.151-.002-.205.124-.22a.74.74 0 0 1 .564.193c.218.186.436.535.534.908.098.374.075.772-.023 1.061-.098.29-.27.47-.494.673s-.5.429-.687.637a1.7 1.7 0 0 0-.333.53.5.5 0 0 0-.047.226c.004.025.014.005.118-.127.104-.131.303-.374.51-.52a.86.86 0 0 1 .613-.173c.19.025.356.128.493.268s.245.315.342.523c.098.207.185.445.253.601s.118.23.192.253.172-.006.246-.108a.56.56 0 0 0 .08-.448c-.045-.172-.183-.343-.262-.48s-.1-.24-.093-.318.044-.133.09-.14c.048-.006.105.034.154.09s.089.126.16.16a.19.19 0 0 0 .236-.056c.065-.085.091-.252.107-.414.015-.162.019-.319.051-.42.033-.1.094-.144.161-.146s.14.039.204.12c.065.08.12.2.203.273s.195.098.271-.01c.077-.109.12-.35.193-.516.074-.165.179-.255.268-.255.09.001.162.093.198.21s.037.259.088.378c.052.118.156.214.31.2.156-.013.363-.135.517-.17.154-.034.256.02.272.085.016.067-.053.145-.148.236-.094.091-.215.194-.21.27.005.074.135.12.266.098a.49.49 0 0 0 .328-.232.45.45 0 0 0 0-.397c-.06-.138-.172-.27-.317-.433s-.325-.355-.532-.46-.443-.122-.672-.131-.454-.01-.627-.07-.296-.182-.418-.276a.8.8 0 0 0-.36-.177c-.12-.017-.237.016-.29.12a.44.44 0 0 0 .012.373c.055.089.156.088.276.021s.26-.198.38-.145c.119.054.219.293.266.435s.04.188.015.215-.07.037-.25.048-.495.025-.654.055-.161.076-.149.139.04.144.08.194c.041.051.097.072.11.13s-.019.155-.106.207a.47.47 0 0 1-.318.04c-.087-.023-.118-.079-.153-.138s-.076-.123-.104-.131c-.03-.01-.046.037-.057.092-.01.054-.014.117-.094.15-.08.034-.234.038-.377.02a.74.74 0 0 1-.36-.133.38.38 0 0 1-.14-.257c-.008-.087.02-.16.074-.196.053-.035.133-.03.211-.03.079 0 .156-.003.193-.337.036-.334.031-.998.043-1.408s.041-.565.095-.639c.053-.074.132-.066.24-.062s.246.004.311.047.058.13.134.17.238.038.33-.009c.094-.046.119-.134.31-.18.192-.046.55-.05.76-.007s.27.133.396.178.315.045.423.096c.109.051.135.152.179.21.043.06.102.075.167.02.065-.056.136-.183.207-.25.07-.069.142-.078.178-.134.037-.055.039-.157.142-.184a.51.51 0 0 1 .414.13c.105.108.111.276.189.436.077.16.227.311.35.507.122.195.218.435.33.682s.241.505.317.6c.075.093.097.026.091-.325a10 10 0 0 0-.131-1.489 3.3 3.3 0 0 0-.477-1.236 4.4 4.4 0 0 0-.841-.964c-.309-.262-.623-.44-1.033-.512s-.917-.037-1.335.03a3.9 3.9 0 0 0-1.097.329 10 10 0 0 0-1.08.624c-.353.226-.68.445-.967.706-.288.26-.534.56-.743.843s-.379.549-.55.812c-.173.262-.346.522-.465.826a4.2 4.2 0 0 0-.228.998c-.043.348-.065.697-.077 1.151s-.015 1.012.069 1.505.255.921.473 1.307.483.73.827 1.069.767.671 1.211 1.005.91.666 1.265.981c.355.316.599.614.814.969s.402.766.531 1c.129.235.2.292.248.58.049.289.076.81.01 1.207-.064.398-.221.675-.319.894-.097.22-.135.382-.214.496a.49.49 0 0 1-.325.2c-.127.022-.263 0-.36-.105-.098-.106-.157-.296-.223-.461s-.137-.309-.52-.565c-.384-.256-1.079-.625-1.472-.854-.392-.23-.764-.39-.773-.504-.009-.116.273-.258.416-.42s.408-.391.652-.426.661.27.91.356c.247.085.346.071.455.063.108-.01.105-.085.017-.294-.09-.208-.264-.55-.48-.678-.215-.129-.47-.045-.896.245-.425.29-1.02.786-1.582 1.363s-1.092 1.235-1.791 2.032c-.7.797-1.57 1.731-2.565 2.882s-2.117 2.519-3.024 3.606c-.907 1.088-1.6 1.895-2.31 2.716a197 197 0 0 1-2.23 2.542c-.794.887-1.655 1.827-2.166 2.392-.51.564-.67.754-1.732 1.94-1.062 1.187-3.026 3.37-4.48 4.988-1.453 1.617-2.395 2.668-3.034 3.347-.639.68-.974.988-1.274 1.163s-.564.217-.623.165.086-.197.446-.678c.36-.48.935-1.297 1.617-2.182s1.47-1.838 2.888-3.568 3.463-4.235 5.348-6.557 3.609-4.459 4.92-6.068c1.313-1.609 2.213-2.689 3.056-3.702.842-1.013 1.628-1.96 2.584-3.149.955-1.19 2.082-2.622 2.73-3.542.646-.919.815-1.325.895-1.704.08-.38.073-.732-.137-.914s-.625-.193-1.123-.117c-.498.077-1.08.242-1.91.54-.829.3-1.905.732-3.225 1.251-1.32.52-2.883 1.124-4.31 1.667s-2.718 1.02-4.396 1.64a772 772 0 0 1-5.468 1.997c-1.726.62-3.113 1.103-4.212 1.482-1.1.38-1.912.655-2.429.813s-.74.195-.925.172-.335-.107-.318-.218c.017-.112.201-.25.674-.485.473-.236 1.236-.569 2.272-1.027s2.346-1.04 3.656-1.618 2.62-1.153 4.138-1.828c1.517-.674 3.24-1.448 4.93-2.2s3.344-1.485 4.7-2.088a163 163 0 0 0 3.337-1.515c.923-.437 1.712-.835 2.24-1.174.526-.34.79-.619.836-.828s-.126-.346-.699-.463-1.546-.213-3.758-.28-5.664-.105-8.57-.17c-2.905-.066-5.265-.158-7.123-.226-1.858-.07-3.214-.115-3.944-.184-.73-.07-.833-.161-.808-.265.025-.103.178-.218.923-.31s2.082-.16 3.555-.232c1.473-.07 3.082-.143 5.289-.182 2.206-.038 5.01-.042 7.334-.205a36.5 36.5 0 0 0 5.495-.785c1.33-.3 2.145-.58 2.81-1.015s1.178-1.025 1.602-1.478c.424-.452.758-.768 1.15-1.08s.84-.624 1.279-.895.868-.504 1.336-.655a5.1 5.1 0 0 1 1.496-.23 5 5 0 0 1 1.594.214 5.8 5.8 0 0 1 1.494.745c.44.3.796.624 1.133 1.003s.652.81.92 1.245c.268.434.488.868.626 1.096s.194.25.228.217c.035-.033.048-.119-.009-.305-.056-.186-.183-.47-.387-.888a16 16 0 0 0-.757-1.393 5 5 0 0 0-.8-.99 4 4 0 0 0-.838-.61 10 10 0 0 0-.953-.451 3.4 3.4 0 0 0-1.048-.293 9.4 9.4 0 0 0-1.64-.006c-.515.044-.887.126-1.307.32-.42.193-.89.497-1.34.788-.45.29-.881.566-1.186.813a3.5 3.5 0 0 0-.613.636c-.13.17-.213.293-.316.365a.46.46 0 0 1-.33.079c-.103-.017-.183-.075-.184-.205s.077-.333.29-.677c.214-.344.563-.828.92-1.235.356-.407.72-.737 1.106-1.08.385-.343.793-.699 1.196-1.087s.798-.807 1.107-1.212.528-.796.738-1.271.41-1.034.535-1.48a9 9 0 0 0 .246-1.242c.069-.462.155-1.051.255-1.385.1-.333.214-.41.271-.448s.057-.038.1.048z" style="display:inline;fill:#fff;fill-opacity:1;fill-rule:evenodd;stroke:#474f83;stroke-width:.4;stroke-linejoin:round;stroke-dasharray:none;stroke-opacity:1;paint-order:stroke fill markers"/><path d="M116.93 136.06q0 0 0 0a2 2 0 0 1-.182.376c-.072.101-.16.168-.248.234m.817-.809c.142.004.284.008.404-.05s.218-.178.315-.299m-.093-.577q-.153.222-.307.454c-.104.155-.21.318-.315.48m1.012-.784q0 0 0 0c-.171-.005-.342-.01-.399-.17s0-.474.057-.789m-.625-.597q0 0 0 0c.2.205.4.41.566.511q.248.155.401-.002c.104-.104.18-.312.256-.521m-2.162 2.174q0 0 0 0c.175-.06.35-.12.438-.22s.089-.24.09-.382m-.5.147q0 0 0 0l-.666-.325m.224-.346-.277-.345m1.183 3.539c-.018-.215-.035-.43-.104-.607-.068-.176-.187-.313-.32-.448a2.2 2.2 0 0 0-.486-.39c-.206-.12-.473-.225-.595-.455s-.099-.583-.142-.818c-.042-.236-.15-.354-.259-.472m.094-.638c-.103.152-.206.304-.264.431a.6.6 0 0 0-.064.308c.006.077.03.128.055.18m-.772-1.597c-.074.149-.149.298-.142.48a.9.9 0 0 0 .25.56c.156.163.38.272.603.382m.073-2.32-.276.422m2.334.984a2 2 0 0 0-.319.16c-.13.084-.264.201-.315.355a.52.52 0 0 0 .105.493c.125.15.345.26.547.262a.66.66 0 0 0 .509-.251c.12-.147.176-.335.088-.516-.088-.18-.32-.354-.436-.44-.116-.088-.116-.088-.179-.063m.08-.573-.037.573m1.122-1.552q0 0 0 0l-1.09 1.024m-1.056-1.09 1.073 1.073m-.037-2.909c.013 0 .037 0 .15.034.114.034.318.102.443.287.126.186.175.489.141.78a1.6 1.6 0 0 1-.284.75c-.134.178-.286.257-.478.189-.193-.068-.425-.282-.55-.5s-.14-.44-.115-.669.093-.465.214-.61a.8.8 0 0 1 .38-.232c.087-.029.087-.029.1-.029m.581 6.135q0 0 0 0c.225-.054.45-.108.615-.228s.271-.308.333-.526c.063-.218.082-.467.116-.618a.45.45 0 0 1 .13-.253m.334.602c.06-.057.12-.114.156-.254s.05-.361.063-.583m-.65.294a1 1 0 0 0 .29-.152c.078-.067.123-.158.17-.25m.563-1.506c.18.293.36.586.395.828a.65.65 0 0 1-.197.56.7.7 0 0 1-.4.205c-.137.02-.275 0-.37-.085s-.147-.236-.198-.387m-.184-1.303.643.814m-2.899-6.2c.039.098.077.195.196.239s.32.033.476.018c.157-.015.27-.034.437.03.168.063.39.21.64.375.25.164.528.347.718.625.191.277.294.648.344 1.177a8.3 8.3 0 0 1-.021 1.709c-.068.494-.2.796-.34.992s-.291.286-.443.406-.307.272-.462.424" style="display:inline;fill:none;fill-opacity:1;fill-rule:evenodd;stroke:#474f83;stroke-width:.2;stroke-linecap:round;stroke-linejoin:round;stroke-dasharray:none;stroke-opacity:1;paint-order:stroke fill markers"/><path d="m193.74 145.725-.044.003c-.25.022-.748.066-1.078.188-.33.121-.493.322-.894.574s-1.04.555-1.82.747c-.781.193-1.702.274-2.162.336-.461.063-.46.106-.45.406s.033.86.128 1.125c.094.265.262.238.579.282s.783.156 1.013.42c.23.262.225.674.271 1.654.046.981.143 2.53.138 3.275s-.114.686-.474.466-.972-.598-1.845-.777c-.872-.179-2.004-.158-2.893.11-.888.269-1.533.784-2.215 1.402-.683.617-1.404 1.337-1.883 2.234s-.717 1.97-.847 3.46-.152 3.396.192 4.81 1.053 2.335 1.776 3.053 1.46 1.232 2.338 1.527a6.4 6.4 0 0 0 2.753.258c.855-.114 1.549-.417 2.096-.88s.948-1.087 1.132-1.217.152.233.138.648c-.013.414-.008.88.114 1.091s.36.168.723.12c.363-.05.851-.104 1.352-.277s1.016-.466 1.69-.663c.675-.198 1.51-.301 1.95-.39.442-.09.491-.166.491-.494s-.049-.907-.152-1.216-.26-.347-.525-.384c-.266-.038-.64-.076-.827-.269-.186-.192-.186-.538-.249-4.171-.062-3.633-.186-10.55-.249-14.01-.058-3.243-.062-3.445-.267-3.44zm-98.56.265q-.135.006-.274.034c-.369.073-.723.251-1.272.524-.548.272-1.29.638-1.998.846-.707.209-1.379.26-1.727.293s-.372.046-.384.052c-.012.007-.013.007-.025.183s-.036.528-.047.775c-.01.246-.008.388.046.463s.16.087.413.108.654.055.885.122c.23.068.29.171.28 3.392s-.089 9.56-.137 12.79c-.05 3.232-.068 3.357-.184 3.423-.117.067-.33.075-.504.091s-.306.04-.373.197c-.066.155-.066.443-.068.654s-.009.346 1.226.424c1.236.077 3.712.096 4.997.113s1.38.034 1.423-.192.035-.695.03-.947-.008-.287-.192-.315-.55-.05-.798-.113c-.248-.062-.378-.165-.454-1.055s-.097-2.566-.096-3.49.026-1.094.622-.35c.596.746 1.763 2.406 2.408 3.328s.767 1.107.815 1.295c.05.188.025.38-.093.471s-.33.08-.5.078-.3.002-.368.204-.074.6-.022.815c.051.216.16.248 1.396.252 1.237.004 3.602-.02 4.836-.035s1.336-.02 1.363-.151c.027-.132-.02-.389-.064-.564s-.082-.267-.307-.437c-.225-.171-.636-.42-1.212-1.06-.576-.638-1.315-1.668-2.168-2.93-.854-1.26-1.82-2.752-2.364-3.551s-.662-.906-.65-1.025.156-.251.57-.686c.412-.435 1.095-1.172 1.74-1.82.644-.65 1.251-1.21 1.739-1.488.487-.277.856-.272 1.171-.31s.578-.12.71-.279c.131-.16.131-.398.117-.613-.015-.216-.045-.408-1.026-.51-.98-.104-2.912-.117-4.02-.119-1.108 0-1.392.01-1.521.28-.129.269-.102.797-.007 1.049s.258.227.428.253.35.102.41.225 0 .294-.666 1.115a96 96 0 0 1-2.606 3.034c-.67.742-.74.755-.77-1.626s-.02-7.156.01-9.754c.028-2.598.074-3.018-.094-3.244-.126-.17-.373-.23-.643-.219m-56.883 1.09c-.964-.008-.964-.008-.972.111-.008.12-.025.357-.041.642-.016.284-.033.615.273.85.306.236.935.377 1.315.497.379.119.509.216.587.966.079.75.106 2.154.1 5.112s-.043 7.47-.062 9.982c-.02 2.51-.02 3.02-.282 3.29-.263.272-.788.304-1.159.334s-.588.057-.67.314c-.08.258-.026.745 0 1.06.028.314.028.455 1.371.514 1.344.06 4.031.038 6.382.03s4.367-.002 5.86-.087c1.492-.084 2.462-.257 3.95-1.024 1.486-.766 3.49-2.126 4.66-3.619 1.171-1.492 1.507-3.117 1.75-4.794s.396-3.405.174-4.917c-.222-1.511-.818-2.806-1.324-3.82-.507-1.012-.924-1.744-1.747-2.475s-2.054-1.463-3.237-1.972a11.3 11.3 0 0 0-3.555-.905c-1.232-.108-2.56-.037-4-.016-1.442.022-2.996-.006-4.738-.027-1.742-.022-3.67-.038-4.635-.046m9.588 2.116a7.4 7.4 0 0 1 1.976.384 8.7 8.7 0 0 1 1.908.913c.614.393 1.19.875 1.646 1.383a6.6 6.6 0 0 1 1.054 1.602c.265.56.463 1.149.613 1.672s.253.98.302 1.782.044 1.947.002 2.856-.121 1.58-.235 2.136c-.114.555-.263.995-.464 1.586-.202.592-.457 1.337-.813 1.907s-.814.966-1.275 1.325-.923.68-1.523.92-1.337.397-2.122.483c-.786.085-1.62.099-2.154.026s-.766-.233-.905-.367c-.138-.134-.181-.243-.197-3.274s-.006-8.985 0-11.962l.005-3.031c0-.055 0-.163.372-.244.373-.081 1.118-.135 1.81-.098m96.129 5.048c-.611-.015-1.254.008-1.831.133-.576.124-1.086.35-1.613.641a9 9 0 0 0-1.582 1.098c-.512.45-.99.994-1.273 1.55-.284.555-.372 1.122-.414 1.715a9.7 9.7 0 0 0 .032 1.809c.071.593.209 1.16.43 1.668.22.508.522.956.9 1.331.377.376.829.679 1.02.849s.123.209-.317.513-1.253.875-1.747 1.324c-.495.448-.67.774-.73 1.178s-.002.886.155 1.302.414.764.707 1 .622.358.708.485c.086.126-.07.256-.411.5-.341.243-.866.6-1.214.996a2.27 2.27 0 0 0-.57 1.313c-.047.481.029 1.006.173 1.508.143.502.354.98 1.017 1.416.663.434 1.778.825 3.153.995s3.01.121 4.269.096c1.258-.025 2.14-.025 3.084-.454s1.952-1.287 2.586-2.051.894-1.435 1.017-2.237c.122-.803.107-1.737-.169-2.544-.275-.806-.812-1.485-1.302-1.97s-.935-.775-1.634-.96c-.699-.186-1.653-.267-2.753-.357s-2.344-.19-3.1-.293-1.025-.21-1.025-.343c0-.132.268-.29.69-.331.42-.042.995.03 1.798-.05.802-.08 1.833-.314 2.656-.624s1.441-.697 1.89-1.157c.447-.46.727-.992.951-1.565s.393-1.186.42-1.824a5.4 5.4 0 0 0-.303-1.93c-.215-.63-.529-1.228-.686-1.527l-.157-.299c.184.234.368.468.588.657.22.19.477.335.856.389.38.054.882.015 1.276-.255.395-.27.682-.772.753-1.285a2.27 2.27 0 0 0-.301-1.42 1.48 1.48 0 0 0-.967-.725c-.435-.107-.998-.085-1.483.009-.484.094-.89.259-1.183.496-.294.238-.474.548-.61.642s-.227-.029-.551-.28c-.324-.25-.88-.63-1.447-.846-.566-.217-1.145-.27-1.756-.286zm-14.042.165a4.5 4.5 0 0 0-1.603.35 6.6 6.6 0 0 0-1.557.937c-.474.385-.866.821-1.11 1.07-.244.247-.339.307-.412.166s-.125-.482-.125-.783c0-.3.052-.56.074-.811.022-.25.013-.492-.118-.634s-.386-.186-.619-.188a1.16 1.16 0 0 0-.695.196c-.25.161-.54.445-.92.638-.379.192-.847.292-1.38.412-.532.119-1.128.257-1.481.342s-.465.118-.531.248c-.067.13-.088.357-.087.569.001.21.026.406.236.527.21.12.605.166.849.216s.336.105.348 1.969c.012 1.863-.055 5.536-.222 7.382s-.432 1.865-.665 1.902-.433.09-.535.287c-.101.197-.105.535-.095.765s.031.352 1.292.453c1.261.1 3.762.178 5.102.214 1.341.035 1.523.027 1.6-.2.077-.228.05-.676.026-.945-.025-.27-.047-.361-.207-.413s-.457-.063-.703-.134c-.247-.072-.442-.204-.537-1.965-.095-1.76-.09-5.15.005-6.948.095-1.8.28-2.007.516-2.192.237-.184.527-.344.875-.425a3.3 3.3 0 0 1 1.118-.038c.363.046.682.141.965.36.283.22.53.564.626 2.372s.042 5.08-.015 6.803-.116 1.896-.303 1.995-.501.124-.685.132-.24 0-.278.234a11 11 0 0 0-.076.97c-.012.26-.012.304 1.29.345s3.91.078 6.515.116l-.008-.285c-.008-.286-.024-.858-.203-1.144s-.52-.285-.758-.39c-.239-.106-.374-.318-.43-2.098-.058-1.78-.036-5.127-.123-7.02-.086-1.894-.281-2.333-.589-2.846-.307-.514-.727-1.101-1.158-1.519a3.13 3.13 0 0 0-1.422-.813 6 6 0 0 0-1.787-.18m-16.957.113a7 7 0 0 0-1.741.178c-.763.173-1.498.46-2.159.924-.66.463-1.247 1.103-1.74 1.89-.491.787-.89 1.722-1.152 2.862s-.389 2.484-.33 3.547c.06 1.063.305 1.845.757 2.672s1.111 1.7 1.682 2.337c.57.636 1.053 1.034 1.768 1.347.714.312 1.66.538 2.513.566.852.03 1.61-.14 2.283-.423a6.6 6.6 0 0 0 1.781-1.141 9.5 9.5 0 0 0 1.398-1.552c.416-.571.788-1.191.96-1.712.173-.521.146-.943.038-1.184q-.162-.362-.555-.188c-.26.115-.594.406-1.05.766s-1.034.79-1.685 1.033a3.85 3.85 0 0 1-2.113.153 4.8 4.8 0 0 1-2.091-1.006 5.1 5.1 0 0 1-1.363-1.858c-.302-.693-.452-1.42-.522-1.83s-.063-.502 1.44-.554c1.504-.052 4.503-.064 6.003-.07 1.5-.005 1.5-.004 1.527-.02.026-.015.08-.046.067-.456a8.8 8.8 0 0 0-.303-1.935 6.4 6.4 0 0 0-.994-2.028 5.8 5.8 0 0 0-1.663-1.544 5.55 5.55 0 0 0-2.175-.732 6 6 0 0 0-.58-.042m-31.782.04c-.02 0-.058 0-.32.016-.263.015-.75.046-1.27.132-.521.086-1.077.228-1.56.454a4.2 4.2 0 0 0-1.24.894 4.4 4.4 0 0 0-.86 1.251c-.225.487-.385 1.053-.414 1.542-.029.488.074.898.446 1.193s1.011.475 1.605.495c.594.019 1.142-.123 1.506-.393s.544-.669.668-1.268c.125-.6.194-1.4.37-1.896s.46-.688.854-.79c.395-.101.9-.113 1.245.029s.529.437.64 1.119.15 1.75.142 2.386-.062.84-.288.981-.624.222-1.168.299-1.234.15-1.93.322a8.6 8.6 0 0 0-1.987.762 7 7 0 0 0-1.502 1.114c-.454.433-.898.935-1.2 1.414-.304.48-.464.935-.478 1.53-.013.596.121 1.332.376 1.97s.63 1.178 1.11 1.592c.482.413 1.067.7 1.805.811a5.5 5.5 0 0 0 2.392-.2c.767-.248 1.41-.677 1.86-1.052.45-.376.707-.697.852-.806s.18-.006.269.339c.088.344.23.93.454 1.277s.53.454 1.03.504 1.194.042 1.828-.106a4.7 4.7 0 0 0 1.612-.722c.405-.287.638-.574.766-.848.129-.274.152-.535.133-.745-.02-.21-.08-.372-.167-.441-.086-.069-.197-.046-.381.029s-.44.201-.56.228c-.118.027-.099-.046-.097-.709s-.013-1.915-.008-3.086c.006-1.17.033-2.258.014-3.154-.02-.897-.085-1.602-.2-2.146s-.28-.927-.475-1.371c-.195-.445-.421-.95-.784-1.369-.363-.418-.864-.75-1.377-.98-.514-.23-1.04-.358-1.657-.441a22 22 0 0 0-1.68-.14c-.355-.02-.355-.02-.374-.02zm-13.753.01a1.6 1.6 0 0 0-.287.045c-.383.09-.746.27-1.281.521-.535.25-1.242.572-1.824.745s-1.038.197-1.265.389c-.228.191-.226.55-.077.782.148.233.445.338.666.41.22.071.366.11.457.493s.13 1.112.15 2.936a262 262 0 0 1 0 6.276c-.03 1.531-.091 1.673-.256 1.776-.166.103-.434.167-.664.186-.23.02-.423-.005-.525.065s-.115.234-.126.455c-.012.22-.022.498.017.649.04.15.129.173 1.559.185 1.43.011 4.201.01 5.58-.047 1.379-.059 1.365-.175 1.352-.387s-.025-.522-.102-.701c-.077-.18-.22-.23-.5-.265-.281-.036-.701-.056-.978-.17-.277-.116-.411-.326-.503-1.885a98 98 0 0 1-.107-6.038c.034-1.57.149-1.798.336-2.003.188-.204.448-.385.584-.357.136.027.148.26.239.543.09.283.26.613.612.816s.888.277 1.357.287c.47.01.873-.044 1.17-.083.296-.038.486-.061.651-.244s.308-.526.407-1.007.152-1.1.155-1.59a4.4 4.4 0 0 0-.137-1.196c-.091-.341-.224-.66-.42-.911a1.56 1.56 0 0 0-.796-.539 3 3 0 0 0-1.178-.09 2.65 2.65 0 0 0-1.173.42c-.374.245-.733.61-1.026.97s-.521.714-.696.97a11 11 0 0 1-.357.497c-.017.021-.03.037-.038.039h-.003 0l-.002-.001h0l-.001-.001c-.018-.017-.02-.13-.026-.462-.01-.505-.027-1.516-.236-2.02-.158-.379-.423-.473-.708-.458m104.403.06a1.6 1.6 0 0 0-.288.045c-.382.09-.745.27-1.28.521-.535.25-1.242.572-1.824.744s-1.039.198-1.266.39c-.228.191-.226.55-.077.782s.445.338.666.41c.22.071.366.11.457.493s.13 1.112.151 2.936c.022 1.824.028 4.745 0 6.276-.03 1.531-.092 1.673-.257 1.776s-.433.167-.664.186c-.23.02-.422-.005-.525.065-.102.07-.114.234-.125.455-.012.22-.023.498.016.649.04.15.13.173 1.56.185 1.43.011 4.2.01 5.58-.047 1.378-.059 1.365-.175 1.352-.387s-.025-.522-.103-.702-.219-.23-.5-.264c-.28-.036-.7-.056-.977-.17-.277-.116-.412-.326-.503-1.885a98 98 0 0 1-.107-6.038c.033-1.57.148-1.798.336-2.003.187-.204.447-.385.584-.357.136.027.148.26.238.543.091.283.26.613.613.816.352.202.887.276 1.356.286s.873-.043 1.17-.082c.296-.038.486-.062.652-.245s.308-.525.406-1.006c.098-.48.152-1.1.155-1.59a4.4 4.4 0 0 0-.136-1.196c-.091-.341-.224-.66-.42-.911a1.57 1.57 0 0 0-.797-.539 3 3 0 0 0-1.178-.09 2.64 2.64 0 0 0-1.172.42c-.375.245-.734.61-1.027.97s-.52.714-.695.97c-.175.257-.297.417-.358.497-.017.021-.03.038-.038.039h-.004v-.001h-.003v-.001c-.018-.017-.02-.131-.026-.463-.01-.505-.026-1.515-.236-2.02-.158-.378-.423-.472-.708-.457zm-13.336.063c-.02 0-.058 0-.32.015-.262.016-.75.047-1.27.133-.521.086-1.077.227-1.56.453a4.2 4.2 0 0 0-1.24.895 4.4 4.4 0 0 0-.86 1.251c-.225.486-.385 1.053-.414 1.541-.029.489.075.899.446 1.194.372.295 1.011.475 1.605.494s1.142-.122 1.506-.393c.364-.27.544-.668.668-1.268.125-.6.194-1.4.37-1.896s.46-.687.854-.789c.395-.101.9-.113 1.245.029.345.141.529.437.64 1.118.111.682.15 1.75.142 2.387-.008.636-.062.839-.288.98s-.624.223-1.168.3-1.233.149-1.93.321a8.6 8.6 0 0 0-1.987.763 7 7 0 0 0-1.502 1.114c-.454.433-.898.935-1.2 1.414-.303.479-.464.934-.478 1.53s.121 1.332.376 1.97.63 1.177 1.111 1.591c.48.414 1.067.7 1.804.812a5.5 5.5 0 0 0 2.393-.201c.766-.247 1.41-.676 1.86-1.052.45-.375.706-.697.852-.806.145-.109.18-.006.268.34.088.344.23.93.454 1.277s.53.454 1.03.504 1.194.042 1.828-.106a4.7 4.7 0 0 0 1.613-.722c.404-.287.637-.574.765-.848.129-.274.152-.535.133-.746-.02-.21-.08-.371-.167-.44-.086-.07-.197-.046-.381.029-.184.074-.44.2-.56.227-.118.027-.099-.045-.097-.708s-.014-1.916-.008-3.086.033-2.258.013-3.154c-.019-.897-.084-1.602-.199-2.146s-.28-.927-.475-1.372c-.195-.444-.421-.95-.784-1.368s-.864-.75-1.378-.98-1.039-.358-1.656-.442a22 22 0 0 0-1.68-.14c-.355-.02-.355-.019-.374-.019zm-46.712 1.629c.355-.015.718.078 1.025.297.49.35.835 1.025 1.015 1.542s.196.877-.523 1.042c-.718.165-2.17.134-3.622.104l-.015-.01c-.016-.01-.046-.028-.017-.314.028-.285.117-.837.36-1.343.243-.505.641-.965 1.159-1.182a1.8 1.8 0 0 1 .618-.136zm31.308.03q.108-.005.2.003a.94.94 0 0 1 .45.15l.07.044c.372.44.743.881 1.039 1.43.296.55.516 1.21.662 1.797.145.588.216 1.105.244 1.67s.012 1.179-.159 1.59c-.171.41-.5.62-.852.702s-.73.038-1.085-.176c-.357-.214-.692-.596-.963-1.022-.271-.425-.478-.892-.652-1.574a14.4 14.4 0 0 1-.367-2.249c-.051-.67-.01-1.115.116-1.46.126-.344.34-.59.62-.734.212-.108.462-.16.677-.17zm43.98.514c.4-.01.817.089 1.107.225.331.155.496.358.651.602s.3.53.374.672c.072.143.072.143.093.973s.063 2.491.052 3.827-.077 2.348-.32 3.005-.665.96-1.11 1.109c-.443.149-.91.145-1.363-.035s-.889-.536-1.249-.933a3.4 3.4 0 0 1-.825-1.524c-.182-.692-.262-1.638-.299-2.42-.036-.781-.028-1.398.06-1.984a5.5 5.5 0 0 1 .507-1.643c.251-.502.584-.95.948-1.278.364-.327.759-.534 1.205-.584q.084-.009.17-.012m-104.348 5.554c.222-.004.24.063.25.098.01.04.01.04.012.71.001.669.004 2.007-.099 2.76s-.311.921-.61 1.096c-.3.175-.69.356-1.061.384a1.4 1.4 0 0 1-1.016-.34 1.7 1.7 0 0 1-.593-1.105c-.068-.498.03-1.132.295-1.702a3.26 3.26 0 0 1 1.23-1.4 3.8 3.8 0 0 1 1.484-.495 1 1 0 0 1 .108-.006zm77.314.132c.223-.004.24.064.25.099.01.04.01.04.012.71 0 .669.004 2.007-.099 2.76s-.311.92-.61 1.096c-.3.174-.69.356-1.061.384a1.4 1.4 0 0 1-1.016-.34 1.7 1.7 0 0 1-.593-1.105c-.068-.498.03-1.132.295-1.703a3.26 3.26 0 0 1 1.23-1.4 3.8 3.8 0 0 1 1.484-.494 1 1 0 0 1 .108-.006zm-18.098 8.752h.004c.023-.001.07-.003.766.026s2.042.088 3.058.24 1.702.397 2.11.699c.406.302.534.66.563 1.057.029.398-.042.834-.38 1.169-.336.334-.94.565-1.57.708a6.8 6.8 0 0 1-1.974.149c-.683-.048-1.389-.197-1.94-.47-.552-.273-.949-.67-1.145-1.094s-.193-.876-.078-1.295.341-.804.454-.996c.106-.18.113-.192.132-.193z" style="opacity:1;fill:#fff;fill-opacity:1;fill-rule:evenodd;stroke:#474f83;stroke-width:1;stroke-linecap:round;stroke-linejoin:round;stroke-dasharray:none;stroke-opacity:1;paint-order:stroke fill markers"/><circle cx="197.182" cy="166.118" r="1.419" style="display:inline;opacity:1;fill:none;fill-opacity:1;fill-rule:evenodd;stroke:#474f83;stroke-width:.4;stroke-linecap:round;stroke-linejoin:round;stroke-dasharray:none;stroke-opacity:1;paint-order:stroke fill markers"/><path d="m198.027 167.25-.529-1.046m-.745-1.207c.262-.011.525-.022.71.019.186.041.293.134.348.289a.87.87 0 0 1 .003.522c-.053.15-.16.232-.335.27-.174.04-.416.037-.657.033m-.074-1.135-.008 2.393" style="fill:none;fill-opacity:1;fill-rule:evenodd;stroke:#474f83;stroke-width:.4;stroke-linecap:round;stroke-linejoin:round;stroke-dasharray:none;stroke-opacity:1;paint-order:stroke fill markers"/></g></svg>