<svg xmlns="http://www.w3.org/2000/svg" xmlns:xlink="http://www.w3.org/1999/xlink" xml:space="preserve" width="612.382" height="311.384" viewBox="0 0 162.026 82.387"><defs><radialGradient xlink:href="#a" id="c" cx="157.001" cy="105.922" r="72.98" fx="157.001" fy="105.922" gradientTransform="matrix(1.72055 -.35614 .15518 .74967 -130.77 100.906)" gradientUnits="userSpaceOnUse"/><radialGradient xlink:href="#b" id="d" cx="31.376" cy="37.152" r="66.872" fx="31.376" fy="37.152" gradientTransform="matrix(1.3524 -.12087 .05213 .58332 -12.994 22.305)" gradientUnits="userSpaceOnUse"/><linearGradient id="b"><stop offset=".068" style="stop-color:#010b26;stop-opacity:1"/><stop offset=".338" style="stop-color:#0a0c26;stop-opacity:.95490718"/><stop offset=".59" style="stop-color:#473aae;stop-opacity:.79840851"/><stop offset=".837" style="stop-color:#220f9c;stop-opacity:.66843504"/><stop offset=".953" style="stop-color:#3525a2;stop-opacity:.76392573"/></linearGradient><linearGradient id="a"><stop offset="0" style="stop-color:#f7d337;stop-opacity:1"/><stop offset=".456" style="stop-color:#ea2131;stop-opacity:1"/><stop offset=".596" style="stop-color:#f23645;stop-opacity:1"/><stop offset="1" style="stop-color:#592120;stop-opacity:1"/></linearGradient></defs><g style="display:inline;opacity:1" transform="translate(-36.776 -105.208)"><path d="M45.115 185.317a7 7 0 0 1-.761.675c-.314.227-.645.385-.726.517-.081.133.087.241.504.306a6.6 6.6 0 0 0 1.47.04c.388-.045.496-.159.8-.164.303-.005.802.097 1.243.092s.826-.12 1.284-.247a9.4 9.4 0 0 1 1.671-.336c.683-.067 1.517-.062 2.032-.167s.71-.323 1.184-.41 1.227-.043 1.733.033c.507.076.767.184 1.279.184s1.276-.108 2.768-.17a94 94 0 0 1 4.963-.052c1.249.027 1.525.098 1.818.076.292-.022.6-.135.972-.12.371.017.804.163 1.279.16.474-.002.988-.154 1.595-.151s1.306.16 1.799.181c.493.022.78-.092 1.18-.04.402.051.916.268 1.255.268s.501-.217.853-.398.894-.328 1.336-.282c.441.046.782.285 1.186.314s.87-.149 1.216-.22c.347-.07.575-.032.867.028s.65.14 1.986.187 3.648.057 5.41.043c1.76-.013 2.968-.051 3.743.046.774.098 1.116.33 1.4.382.285.052.512-.078.97-.203.458-.124 1.146-.244 1.685-.233s.929.152 1.268.25c.338.097.625.151.799.086.173-.065.233-.25.512-.268.279-.02.777.127 1.24.13s.891-.138 1.341-.17c.45-.033.921.043 1.352.156.43.114.82.266 1.07.263.249-.003.357-.16.525-.181.168-.022.396.092.526.065s.162-.195.514-.293c.353-.097 1.024-.125 1.471-.03s.67.312.93.306c.26-.005.557-.233.79-.246.233-.014.401.187.613.208.21.022.465-.135 1.219-.233.753-.097 2.004-.135 2.857-.119s1.309.087 1.677.244.65.401.84.404.287-.236.43-.371a.425.425 0 0 1 .518-.068c.184.1.363.333.617.328.255-.005.586-.25.886-.369s.572-.113.78-.051.355.181.447.19c.092.008.13-.095.287-.1.158-.006.434.086.61.07.176-.017.252-.141.758-.209.507-.068 1.444-.078 2.056-.035s.9.14 1.12.138c.219-.003.37-.106.652-.097s.693.127.975.138c.282.01.434-.087.634-.098.2-.01.45.065.758.13.31.065.678.12.992.07.314-.048.574-.2.82-.249.247-.048.48.005.751-.046.27-.051.58-.208.878-.265s.585-.014.831.181c.247.195.453.542.661.566.209.025.42-.273.807-.446.388-.174.951-.223 1.38-.177.427.047.72.187.993.182.274-.005.529-.157.786-.255a1.47 1.47 0 0 1 .794-.092c.276.049.568.19.94.317.37.127.82.241 1.227.211.406-.03.769-.203 1.116-.219.346-.016.677.125.913.127.235.003.376-.132.734-.162.357-.03.931.046 1.262.027.33-.02.417-.133.734-.035.317.097.864.406 1.235.471s.566-.114.837-.19c.271-.075.618-.048.872.084.255.133.418.372.678.36.26-.01.617-.27 1.27-.387s1.601-.089 2.316-.008c.715.082 1.197.217 1.569.198.37-.019.63-.192.98-.255.35-.062.788-.013 1.214.114.425.128.837.333 1.617.41.78.075 1.928.021 2.69-.104.76-.124 1.135-.32 1.408-.284.274.035.447.3.648.341.2.04.428-.143.68-.162.251-.02.528.127.777.132.25.005.471-.13.68-.138.208-.008.403.111.655.109s.561-.128.851-.133.56.108.775.07.37-.227.653-.295c.281-.068.688-.013 1.124.135.436.15.902.393 1.238.374s.541-.3.902-.447c.36-.146.875-.157 1.17-.146.295.01.37.043.588-.162.216-.206.574-.65.923-.862s.691-.19 1.203-.628c.512-.44 1.195-1.338 1.812-2.1.618-.76 1.17-1.384 1.441-1.796.271-.411.26-.612.385-.79.125-.18.385-.336.664-.65.279-.315.577-.786.826-1.049s.45-.317.574-.46c.125-.144.173-.377.401-.748s.634-.88.918-1.441c.285-.56.447-1.173.62-1.49.174-.317.358-.339.434-.523s.043-.53.176-.731.43-.255.59-.436c.16-.182.182-.49.288-.7.105-.208.295-.316.986-1.264.69-.948 1.882-2.736 2.565-3.709s.856-1.13.943-1.292.086-.33.187-.417c.1-.086.3-.092.409-.23s.124-.41.273-.734c.15-.325.43-.704.629-.93.197-.224.311-.295.382-.416.07-.122.097-.296.235-.51s.388-.468.632-.768c.245-.299.484-.642.518-.824s-.138-.202-.36-.166c-.224.036-.497.13-.74.202a2.3 2.3 0 0 1-.764.119c-.308-.005-.714-.068-1.074-.047-.36.02-.673.125-.852.104s-.222-.17-.551-.147-.944.216-1.424.228-.826-.158-1.14-.155-.597.18-.753.167-.187-.211-.292-.249-.283.087-.637.135c-.353.048-.88.02-1.234.213-.354.194-.533.61-.903 1.059-.37.447-.93.926-1.308 1.174s-.573.264-.695.364-.17.284-.268.473c-.097.19-.243.384-.452.45-.208.067-.48.006-.863.16-.384.153-.88.52-1.22.682-.341.162-.527.12-.703.176s-.343.212-.696.274-.89.031-1.357.232c-.467.2-.863.632-1.38.834-.519.202-1.158.174-1.597.162-.438-.011-.677-.006-1.05.128-.372.135-.878.397-1.923.591s-2.626.318-3.715.49c-1.089.17-1.685.387-2.46.385-.776-.002-1.732-.224-2.892-.198s-2.527.298-3.355.452c-.828.153-1.119.189-1.284.086s-.205-.344-.32-.42c-.115-.074-.304.016-.567.153s-.599.32-1.64.449c-1.04.128-2.786.202-3.955.14-1.169-.064-1.76-.264-2.201-.267-.441-.002-.73.194-1.262.189s-1.306-.212-1.825-.182-.782.297-1.204.273c-.423-.025-1.005-.342-1.449-.324s-.75.37-.996.45c-.245.08-.43-.112-.68-.088s-.568.266-.81.27c-.24.006-.406-.227-.641-.29-.236-.063-.542.043-.85.178s-.615.298-.858.305c-.242.007-.419-.142-.615-.248-.197-.107-.414-.171-.867-.21s-1.143-.052-1.622.009c-.478.06-.745.194-.948.248-.204.053-.345.026-.745-.05-.401-.076-1.062-.2-1.546-.16-.485.042-.794.247-1.326.294s-1.288-.067-1.915-.028-1.126.23-1.704.268c-.579.037-1.237-.08-1.985-.113s-1.585.016-2.446-.023c-.861-.04-1.746-.167-2.741-.116s-2.102.281-3.075.356-1.813-.007-2.373-.02-.843.04-1.15-.017c-.307-.058-.64-.227-1.059-.226-.419 0-.925.17-1.499.154s-1.215-.222-1.7-.261c-.486-.04-.814.087-1.258.028-.444-.06-1.003-.304-1.548-.244s-1.075.426-1.408.605-.468.172-.72.059c-.254-.113-.625-.332-1.07-.313s-.964.275-1.29.165-.46-.59-.23-.911c.233-.322.83-.488 1.313-.594.483-.107.85-.154 1.126-.077.276.076.46.275.567.237s.138-.315.973-.793c.835-.48 2.475-1.161 3.49-1.709s1.406-.961 1.74-1.16c.333-.2.608-.185 1.5-.72.894-.537 2.403-1.625 4.732-2.326s5.478-1.015 7.095-1.253c1.616-.237 1.7-.398 1.934-.647.234-.25.617-.586 2.797-1.448s6.156-2.249 8.263-3.057c2.107-.809 2.344-1.038 2.628-1.123.283-.084.613-.023 1.065-.241s1.026-.716 1.501-.927c.475-.21.85-.134 1.065-.215s.269-.318.468-.421.544-.073.731-.172c.188-.1.219-.33.495-.464.275-.134.796-.172 1.222-.322s.754-.41 1.11-.517.74-.061 1.004-.153c.265-.092.41-.322.579-.414s.36-.046.528-.168.315-.414.544-.567c.23-.154.544-.169.736-.215s.26-.123.56-.291a9.4 9.4 0 0 1 1.198-.563c.372-.134.586-.142.701-.196.115-.053.13-.153.25-.207.118-.053.34-.06.54-.13.199-.069.375-.199.578-.276.203-.076.433-.1.575-.187.141-.088.195-.242.367-.318.173-.077.464-.077.644-.123s.249-.138.364-.257c.115-.118.276-.264.49-.363.215-.1.483-.154.69-.253.207-.1.352-.245.559-.307.207-.061.475-.038.716-.21.242-.173.456-.54.767-.747.31-.207.716-.253.953-.357.238-.103.307-.264.483-.367.176-.104.46-.15.655-.315.196-.164.303-.448.494-.662.192-.215.468-.36.747-.426.28-.065.563-.05.698-.145.134-.096.118-.303.245-.406.126-.104.394-.104.54-.192.145-.088.168-.264.352-.436.184-.173.529-.341 1.015-.613.487-.272 1.115-.648 1.48-.92.363-.272.463-.44.654-.624.192-.184.475-.383.72-.456.246-.073.452-.02.636-.119.184-.1.345-.352.437-.551s.115-.345.345-.625.666-.693 1.004-.912c.337-.218.574-.241.685-.375s.096-.38.242-.613c.145-.234.452-.456.716-.67s.486-.422.697-.56.41-.207.521-.364.134-.402.318-.747c.184-.344.529-.789 1.13-2.041.602-1.253 1.46-3.314 1.816-4.877s.21-2.628.134-3.283-.084-.9-.195-1.169c-.111-.268-.326-.559-.452-.884-.127-.326-.165-.686-.28-.912s-.306-.318-.425-.529c-.119-.21-.165-.54-.253-.75-.088-.211-.218-.303-.395-.552a6 6 0 0 1-.52-.935c-.123-.28-.146-.433-.25-.563-.103-.13-.287-.238-.551-.513-.265-.276-.61-.72-.897-1.042s-.517-.521-.666-.67-.219-.25-.445-.388-.609-.314-.83-.49c-.223-.176-.284-.353-.476-.506-.191-.153-.513-.283-.712-.425-.2-.142-.276-.295-.445-.425s-.429-.238-.793-.456-.831-.548-1.195-.701-.624-.13-.862-.245c-.237-.115-.452-.368-.655-.517s-.395-.196-.598-.334-.417-.367-.574-.436c-.157-.07-.257.023-.395-.05s-.314-.31-.563-.437c-.249-.126-.57-.142-.87-.291-.298-.15-.574-.433-.85-.579s-.552-.153-.781-.191c-.23-.038-.414-.107-.537-.21-.122-.104-.184-.242-.475-.3s-.812-.034-1.115-.1c-.302-.064-.386-.218-.762-.321-.375-.103-1.042-.157-1.421-.283-.38-.127-.471-.326-.785-.445s-.85-.157-1.146-.21c-.295-.054-.348-.123-.586-.196s-.659-.15-.866-.226-.199-.153-.955-.199c-.755-.045-2.274-.06-3.449-.172s-2.004-.32-3.136-.378-2.567.036-3.46-.011c-.892-.048-1.243-.236-1.658-.181s-.895.354-1.379.402c-.484.05-.973-.152-1.59-.158-.615-.006-1.359.185-2.178.257-.82.072-1.717.026-2.862.126s-2.54.345-3.233.513-.686.26-1.111.295-1.284.012-1.812.084c-.529.073-.728.242-1.073.341s-.835.13-1.15.184c-.313.054-.451.13-.692.188-.242.057-.587.096-.801.18s-.299.215-.556.299c-.256.084-.685.122-.965.207s-.41.214-.555.218-.307-.119-.468-.119c-.16 0-.322.123-.551.196-.23.072-.529.095-.686.138-.157.042-.173.103-.25.164-.076.062-.214.123-.486.246-.272.122-.678.306-1.015.452-.337.145-.605.252-.92.367-.313.115-.673.238-.911.322-.237.084-.352.13-.479.195-.126.066-.264.15-.414.161s-.31-.05-.655.104c-.344.153-.873.52-1.21.724s-.483.241-.62.241c-.139 0-.269-.038-.487.038-.219.077-.525.269-.79.414-.264.146-.486.245-.681.372-.196.126-.364.28-.583.39-.218.112-.486.18-.662.338-.177.157-.26.402-.36.544-.1.141-.215.18-.341.13s-.265-.188-.567-.176c-.303.011-.77.172-1.012.29-.241.12-.256.196-.352.257-.096.062-.272.108-.494.203s-.49.242-.77.35c-.28.106-.571.175-1.012.378-.44.203-1.03.54-1.26.82s-.1.502-.023.678.1.307-.061.38c-.161.072-.506.088-.697.141-.192.054-.23.146-.31.119-.081-.027-.204-.172-.43-.215-.226-.042-.555.02-.712.196s-.142.467-.18.666c-.039.2-.13.307-.272.353s-.334.03-.445.073-.142.141-.325.168-.521-.019-.67.08c-.15.1-.112.345-.166.518-.053.172-.199.272-.344.214-.146-.057-.291-.272-.48-.375-.187-.104-.417-.096-.528-.008-.11.088-.103.257-.302.326-.2.069-.606.038-.832.126s-.272.295-.417.387c-.146.092-.391.069-.49.203-.1.134-.054.425-.207.517-.154.092-.506-.015-.82.042-.314.058-.59.28-.763.452-.172.173-.24.295-.46.448a3.7 3.7 0 0 1-.892.433c-.306.096-.552.104-.732.203s-.295.291-.463.372c-.169.08-.39.05-.533.218-.141.169-.203.537-.272.766-.069.23-.145.322-.333.315s-.486-.115-.827-.05-.724.302-.931.536-.238.464-.437.563c-.2.1-.567.07-.923.215s-.701.467-.885.682c-.184.214-.207.321-.33.352-.122.03-.344-.015-.494.088-.15.104-.226.356-.344.52-.12.165-.28.24-.426.212s-.277-.16-.402-.204-.244.002-.316.126-.1.327-.177.44c-.078.112-.205.134-.29.252-.086.118-.129.332-.336.436s-.578.099-.83.238c-.252.14-.385.424-.618.548-.233.123-.566.085-.966.27-.4.186-.865.595-1.215.821-.349.226-.582.27-.8.394-.218.125-.421.33-.754.431-.334.1-.797.095-1.087.2-.29.103-.406.317-.33.698s.344.928.53 1.5c.185.57.288 1.167.422 1.438s.3.216.59.073c.292-.144.709-.377 1.001-.496.293-.12.461-.124.65-.222.187-.097.396-.287.617-.383s.454-.1.959-.377 1.282-.83 1.748-1.166.62-.455.8-.512c.178-.057.381-.051.524-.127.142-.076.223-.233.383-.354s.398-.204.605-.26c.207-.058.384-.088.514-.15s.214-.157.354-.24c.141-.082.339-.153.484-.292.145-.14.237-.348.542-.508.304-.16.822-.271 1.152-.392.33-.12.474-.25.745-.337.271-.086.67-.13.885-.24s.247-.285.357-.392.297-.145.45-.195.272-.113.432-.185c.16-.071.36-.153.532-.264.172-.11.316-.252.634-.348s.811-.147 1.088-.172c.276-.024.336-.021.482-.11.146-.09.379-.272.626-.417a3 3 0 0 1 .877-.342c.371-.09.853-.16 1.196-.278s.546-.283.994-.416c.449-.133 1.142-.233 1.543-.35.4-.116.51-.248.723-.34.214-.09.534-.139.72-.244.188-.106.242-.269.559-.346.317-.078.897-.07 1.243-.122.345-.05.456-.16.8-.209s.92-.037 1.291-.086.536-.158.695-.23c.16-.072.316-.106.492-.16s.373-.13.682-.169c.308-.038.727-.04.972-.096.244-.055.313-.164.55-.219.236-.054.64-.054.936-.007.296.048.484.144.759.168.274.024.636-.024.904-.08.267-.057.44-.122.623-.137.184-.014.38.022.522-.017.143-.04.233-.154.538-.217s.827-.075 1.198-.057c.372.018.594.066.805.145.21.078.41.188.637.16.227-.026.481-.189.89-.24s.972.01 1.354.122c.38.111.58.272.768.276.187.004.364-.15.553-.144s.393.17.546.24.257.042.703-.041c.447-.083 1.237-.223 1.75-.178s.75.273 1.058.336.689-.04 1.082.061c.393.1.799.404 1.292.464.494.059 1.077-.127 1.412-.101.336.025.425.26.786.392.36.131.993.158 1.395.35.402.193.573.55.808.69.235.138.533.058.682.09.15.033.15.178.255.256.105.077.316.088.444.122s.174.09.31.123.362.04.833.215c.472.174 1.188.515 1.638.693.45.179.634.194.837.366.203.173.425.502.619.697.193.196.358.257.52.399.164.142.325.364.535.498s.471.18.661.297.308.304.653.823c.345.52.916 1.37 1.155 1.855.24.484.148.603.184.768.036.164.201.375.34.576.137.201.248.393.235.805-.014.411-.152 1.044-.272 1.457s-.224.61-.485 1.142c-.26.532-.678 1.402-1.017 1.927s-.6.705-.868.948-.544.55-.795.873c-.25.324-.476.665-.695.866s-.429.262-.66.452-.485.508-.851 1.084-.845 1.412-1.167 1.873c-.321.462-.486.55-.59.677-.103.126-.145.29-.289.38-.143.09-.389.106-.592.183-.203.076-.364.214-.523.304s-.316.133-.434.22c-.12.089-.2.223-.337.288-.138.065-.334.061-.705.34-.372.28-.92.842-1.3 1.126s-.591.29-.78.4c-.19.112-.358.328-.559.423-.2.095-.433.068-.615.14-.181.074-.311.247-.883.71-.571.464-1.584 1.217-2.196 1.588s-.824.36-1.363.615-1.406.775-1.964 1.043-.807.284-1.078.466c-.27.181-.563.528-.878.753-.314.225-.65.328-.975.441-.325.114-.64.239-.894.312s-.45.095-.617.181c-.168.087-.31.239-.594.455s-.712.499-3.582 2.058a1263 1263 0 0 1-10.97 5.865c-2.786 1.468-3.046 1.568-5.463 2.698s-6.992 3.29-9.397 4.386-2.644 1.126-2.885 1.325-.487.567-.75.755c-.265.188-.549.195-.713.268-.165.073-.211.211-.35.257-.137.046-.367 0-.603.048s-.478.19-.762.342a8 8 0 0 1-.896.424c-.287.108-.536.162-.769.308-.233.147-.45.385-.683.466s-.482.005-.877.141c-.396.136-.937.482-1.328.661-.39.179-.628.19-.845.293s-.411.298-.655.379-.537.049-.807.173c-.271.125-.52.407-.9.602-.379.195-.888.303-1.257.563s-.596.672-1.717 1.262c-1.121.591-3.137 1.36-4.226 1.729-1.089.368-1.251.336-1.576.558s-.813.699-1.198.964c-.384.266-.666.32-1.05.596-.385.276-.873.775-1.214.964-.341.19-.536.07-.775.18-.238.107-.52.443-.867.682-.346.238-.758.379-1.208.476-.45.098-.937.152-1.31.277-.375.124-.635.32-.927.411-.293.093-.618.082-.824.136s-.292.173-.441.209c-.15.035-.36-.014-.466-.038-.106-.025-.106-.025-.255.124z" style="display:inline;opacity:1;fill:url(#c);fill-rule:evenodd;stroke:none;stroke-width:.499999;stroke-linejoin:round;paint-order:stroke fill markers" transform="matrix(1 0 0 .86097 2.115 16.373)"/><path d="M141.967 7.605c-.442-.004-.898.026-1.07.037-.393.061-1.634.055-2.378.265s-1.363.722-2.034.953c-.672.232-1.226.141-1.966.449-.739.308-1.606 1.063-2.355 1.494-.75.43-1.31.606-2.127 1.103-.818.498-1.997 1.63-2.735 1.93-.737.302-.578-.08-1.414.23-.835.313-2.57 1.729-3.332 2.058-.761.33-.762.069-1.023.276-.262.206-.195.599-.448.827-.254.23-.75.45-1.023.426s-.085-.27-.449-.288c-.363-.018-1.082.517-1.47.747-.389.23-.515.48-.874.598-.358.119-.774.047-1.207.046-.433 0-1.086-.25-1.39-.058s-.087.525-.3.701c-.212.177-.636.093-.872.196-.237.102-.137.242-.54.368-.404.125-1.452.068-1.885.011s-.41-.233-.713-.195c-.303.037-.5.432-.954.54s-1.23.082-1.7-.081-.444-.742-1.046-.747-1.353.775-1.92 1.322c-.566.546-1.216 1.387-1.425 1.919s-.364.701-.115 1.035c.25.333.853.263 1.437.252.584-.01 1.136-.67 1.517-.011.38.66-.733.61-1.529 1.16s-1.474.91-2.827 1.288c-1.353.377-3.862 1.013-4.976 1.08-1.114.066-.516-.133-1.551-.08-1.035.052-3.263.398-4.609.712-1.345.315-2.223.953-3 .868s-1.029-.378-1.379-.305-.376.555-.81.833-1.022.132-1.798.443c-.777.31-1.484.972-2.552 1.597-1.067.625-3.01 1.783-3.873 2.115s-.707.066-1.103.264c-.396.2-.6.695-1.172.977s-1.269 1.21-2.241.506-.952-3.438-.472-4.884 1.454-2.678 2.85-3.138 3.58 1.23 4.494.896c.913-.332.442-.678.782-.976.34-.299.81-.502 1.253-.759s.924-.677 1.402-.781c.477-.105.969.11 1.32.103.353-.007.445.043.783-.092.337-.135.929-.558 1.114-.84.186-.28.263-.31.15-.608s-.64-.464-1.058-.736c-.416-.272-.844-.567-1.447-.884s-1.58-.79-2.184-.977c-.604-.188-1.072-.094-1.38-.253-.306-.16-.434-.307-.482-.471-.048-.165-.073-.159.08-.345.154-.187.499-.326 1-.448.502-.123 1.418-.027 2-.115s.937-.199 1.483-.368c.546-.17 1.294-.568 1.781-.667s.813-.052 1.08-.046c.267.007.316.12.517.046.201-.073.515-.373.54-.54.013-.083.057-.1.06-.114v-.004c-.004-.014-.046-.032-.174-.1-.288-.154-.995.032-1.701.184s-1.574.66-2.494.816-2.154-.045-2.976.057-1.598-.007-1.943.449-.116.988.07 1.436c.185.449.553.786.987 1.092.435.306 1.006.453 1.586.655s1.4.284 1.897.54.893.609 1.08.862c.186.253.563-.162.184.471-.04.068-.677-.195-.993-.151-.336.046-.77.425-1.209.498-.62.104-1.256-.08-1.694.124-.838.393-.41.788-1.184 1.115s-2.789.45-3.413.15c-.625-.3-.335-.46-.437-.598s-.087-.004-.172-.23c-.086-.226.157-.784-.092-1.16-.249-.377-.546-.545-1.368-.713-.822-.169-2.682.102-3.482.264s-.89.49-1.333.448-.887-.38-1.103-.62c-.216-.241-.322-.438-.265-.62.057-.184.28-.072.403-.254.123-.181.03-.564.149-.827.118-.264.326-.367.551-.701s.457-1.004.759-1.322.846-.373.93-.597c.086-.225-.128-.158-.09-.322.037-.164.244-.266.447-.506s.93-.715.759-.942c-.172-.228-.289.142-.46.195s-.44.03-.563.115c-.124.085-.081.163-.172.276s-.206.26-.391.379c-.185.12-.542.15-.724.287-.182.139-.178.265-.357.472a9 9 0 0 1-.735.746c-.294.265-.767.726-1.035.828-.267.103-.215-.017-.39.023s-.433.162-.632.265c-.2.102-.28.22-.564.344-.283.125-.88.385-1.149.334-.27-.052-.248-.175-.356-.276s-.135-.25-.287-.328c-.152-.077-.368 0-.586-.052-.218-.05-.537-.152-.701-.276-.165-.123-.153-.272-.293-.379s-.38-.112-.535-.218c-.155-.107-.172-.32-.38-.402-.206-.082-.534.12-.78.046-.247-.075-.41-.5-.61-.46-.199.04-.12.301-.23.39s-.243.166-.379.127c-.136-.038-.118-.258-.287-.344-.17-.087-.451-.085-.69-.046-.238.038-.413.22-.7.287-.288.067-.769-.075-1.012.069s-.173.47-.368.574c-.194.105-.268-.087-.643-.011-.376.075-1.157.216-1.517.667-.36.45-.486 1.386-.345 1.769s.197.302.506.403c.308.1.936-.121 1.298-.058.363.063.777.121.84.345s-.163.313-.288.39-.228-.025-.391.07c-.163.094-.162.435-.47.563-.31.127-.943-.17-1.265-.115-.323.055-.37.236-.632.287-.263.052-.468-.048-.908-.035-.44.014-1.182.007-1.724.173-.543.166-1.015.715-1.471.793s-.782-.239-1.092-.172c-.31.066-.408.593-.667.436-.258-.157.256-.773.104-1.01-.153-.239-.531-.092-.644-.22-.112-.127-.1-.153-.069-.333s.452-.457.391-.643c-.06-.186-.256-.027-.39-.161-.136-.135-.223-.391-.276-.667a2.9 2.9 0 0 1 .011-.965c.054-.252.213-.272.23-.529s-.02-.809-.268-.934-.484.247-.65.244c-.165-.003-.217.097-.276-.114-.058-.21.341-.63.601-.812.26-.184.612-.068.862-.26.25-.193.38-.48.52-.845.14-.366.112-1.093.244-1.333.04-.075.058-.098.068-.1h.004c.015.008.018.061.139-.095.197-.255.402-.877.78-1.447.379-.57 1.122-1.528 1.544-1.918s.485-.255.813-.552.937-.898 1.072-1.284c.136-.386-.118-.551-.016-.78.103-.23.435-.27.553-.472s.333-.443.13-.666c-.203-.222-.257-.08-1.122.114-.864.194-2.645.84-3.949 1.398S45.7 13.244 44.5 14.01s-2.444 1.805-3.315 2.616c-.872.812-1.543 1.665-1.967 2.158-.425.494-.406.68-.62.765-.216.084-.272.005-.397-.058-.125-.062-.154-.123-.31-.31-.156-.188.35-1.019-.58-.845h-.001v.002c-.25-.096-.5-.193-.822-.394-.322-.203-.716-.51-.966-.618-.25-.109-.358-.018-.436.145s-.126.399-.308.498c-.182.1-.498.064-.754-.01-.256-.072-.453-.183-.578-.14-.126.043-.182.238-.214.478-.033.24-.042.524-.086.71s-.12.272-.248.314-.238-.05-.383-.082c-.144-.032-.265-.09-.337-.237-.071-.147-.163-.294-.195-.552-.033-.26-.064-.543-.104-.767a4 4 0 0 0-.125-.508c-.037-.12-.061-.196-.036-.233.026-.036.102-.034.184.017s.227.15.3.243c.075.094.09.15.129.163s.046-.015.033-.094c-.013-.08-.057-.177-.088-.278a.7.7 0 0 1-.037-.287c.01-.08.047-.139.106-.113s.14.135.195.266c.055.132.116.29.14.393s.013.153.036.168c.024.014.05-.012.067-.099a1.2 1.2 0 0 0 .001-.374c-.021-.14-.068-.273-.07-.343-.001-.07.044-.079.125-.02s.199.182.273.29c.073.108.152.186.2.256.05.07.068.13.112.12.043-.011.01-.098-.009-.207-.017-.109-.018-.24-.074-.379a1.6 1.6 0 0 0-.205-.392c-.092-.122-.22-.202-.207-.304.01-.085.037-.06.165-.015.116.04.228.08.359.182s.282.17.42.288c.136.117.274.238.373.3.099.064.158.069.172.045s-.019-.076-.085-.18c-.067-.103-.167-.258-.244-.392a2.4 2.4 0 0 1-.167-.345 2 2 0 0 1-.081-.27.8.8 0 0 1-.035-.237.38.38 0 0 1 .072-.22c.044-.05.108-.062.224-.039.117.023.286.081.434.165.149.083.276.192.362.297.085.106.128.209.166.303.04.094.073.18.107.186s.007-.098.022-.193c.016-.096-.011-.223-.028-.337a.6.6 0 0 0-.11-.292c-.066-.092-.085-.15-.174-.244a1.7 1.7 0 0 1-.224-.307c-.056-.098-.09-.18-.081-.256.008-.075.06-.142.155-.133.094.008.233.094.377.157.144.064.295.106.4.138.106.031.167.053.191.035l.005-.006v-.004c0-.018-.049-.046-.087-.086a2 2 0 0 0-.24-.2c-.111-.08-.224-.187-.398-.332a3.6 3.6 0 0 1-.467-.459c-.109-.135-.117-.24-.083-.307q.052-.102.231-.097c.12.002.28.037.407.085s.216.109.287.167c.07.057.12.111.16.11l.011-.002h.001v-.001h.001l.002-.001v-.001c.006-.014-.022-.05-.038-.115a.9.9 0 0 0-.163-.322 1 1 0 0 0-.361-.268c-.139-.066-.237-.126-.383-.151a1.6 1.6 0 0 1-.371-.107c-.098-.044-.168-.095-.197-.149-.03-.053-.02-.109.02-.136.042-.028.115-.028.249-.044a7 7 0 0 0 .476-.076c.15-.029.174-.052.244-.092.07-.041.12-.08.2-.148.04-.033-.056-.04-.143-.059-.086-.019-.188-.005-.34.003-.152.007-.286-.044-.387-.058q-.151-.022-.205-.115c-.037-.061-.043-.146-.126-.232-.083-.085-.244-.17-.374-.228-.13-.059-.23-.09-.298-.147s-.106-.14-.098-.21c.008-.072.063-.131.168-.151a.9.9 0 0 1 .339.021c.078.023.08.05.12.05.041 0 .121-.03.097-.08-.025-.052-.153-.127-.319-.18-.165-.051-.367-.081-.572-.13s-.414-.116-.523-.202-.122-.097-.153-.166c-.03-.069-.204-.103-.311-.098s-.146-.046-.282-.014-.244.053-.29.025-.03-.102.022-.181a.5.5 0 0 1 .246-.199c.104-.033.222-.014.308-.015.087-.002.174-.036.147-.058a.88.88 0 0 0-.74-.16c-.164.043-.29.169-.441.238s-.196.049-.303.022c-.107-.026-.167-.079-.15-.17.018-.09.114-.219.178-.349s.095-.261.105-.338 0-.1-.079-.04c-.078.063-.222.209-.347.324s-.23.2-.393.25c-.164.052-.387.07-.647.08s-.554.01-.761-.01c-.208-.018-.327-.056-.398-.202s-.094-.401-.108-.56c-.008-.086-.013-.144-.027-.153l-.002-.001-.001-.001h-.002q-.017.002-.054.09c-.065.155-.192.527-.368.739s-.402.264-.567.38c-.165.117-.27.298-.414.402s-.328.132-.459.24c-.13.107-.208.295-.338.432-.13.136-.313.22-.42.371-.108.152-.14.371-.262.486s-.234.063-.482.134c-.058.017-.196.034-.251.056-.172.07-.054.107.028.126.216.048.32.101.452.189.132.087.109.246.124.322.016.077-.007.104-.194.188s-.49.235-.64.353c-.283.222-.235.275-.093.257.083-.01.187-.03.338-.07.15-.04.314-.081.376-.066s.023.085-.042.144c-.065.06-.12.165-.169.215-.058.06-.044.097.025.065.067-.03.181-.076.25-.04.068.034.044.14.018.292-.027.151-.09.338-.117.492-.058.34-.077.318-.067.387.054-.018.107-.08.176-.116a.26.26 0 0 1 .219-.019c.065.029.111.098.122.26a2 2 0 0 1-.057.583 2.5 2.5 0 0 0-.086.418c-.019.159-.02.27 0 .46.013.112.073.217.099.214h.002v-.001h.001l.003-.003.003-.007c.079-.26.085-.358.18-.51.097-.158.079-.268.222-.386.133-.109.12-.07.242.102.013.061.065.142.112.315.048.172.237.228.377.473s.381.306.51.574c.128.268.208.54.321.718.113.179.259.263.341.346s.102.162.17.266c.07.103.189.23.246.404a.8.8 0 0 1-.023.559.57.57 0 0 1-.36.3.35.35 0 0 1-.353-.099c-.1-.1-.18-.264-.262-.413-.083-.15-.167-.284-.318-.208-.151.077-.37.364-.645.51-.276.145-.61.15-1.02.268s-.896.353-1.287.638-.685.623-.88 1.18c-.196.557-.292 1.335-.37 1.915s-.14.964-.215 1.251c-.074.288-.163.479-.255.586-.091.108-.187.13-.24.211-.055.08-.066.218.008.356s.236.276.26.357c.022.08-.092.103-.22.103-.13 0-.271-.023-.384.132s-.198.488-.293.837c-.096.349-.203.713-.291 1.015-.044.15-.097.914-.396.883-.314-.033-.595.085-.585.185.033.334-.272.67-1.305.333-.326-.105-.223.759-.221.884.013.814-.535.782-.555 1.407-.038 1.272.349 2.456.323 2.852-.046.73-.168 1.14-.243 1.478-.048.213-.402 1.52-.747 2.386-.124.31-.348-.38-.553-.54-.507-.398-.828-.367-1.116-.374-.716-.018-.718.14-1.041.093-.408-.058-.613-.197-.76-.309-.312-.238-.348-.837-.566-1.362a9 9 0 0 0-.514-1.037c-.306-.45-.502-1.456-.65-1.47-.256-.026-.56.21-.808.452-.247.242-.968.603-1.07.91-.1.305-.112.668-.064.882.047.214.153.28.276.289.123.01.264-.037.42-.15s.326-.29.425-.345.126.017.153.093c.027.075.054.157.181.207.128.05.355.069.48.234s.146.477.118.953c-.029.477-.107 1.12-.3 1.607-.192.488-.498.82-.628 1s-.084.208.094.22c.177.012.486.01.647.058.161.05.175.15.455.496.28.347.828.94 1.45 1.598.621.659 1.317 1.382 1.822 1.795s.82.516.982.679c.162.162.173.384.35.517.178.133.522.176.994.22.47.045 1.07.091 1.79.17.718.079 1.558.19 2.083.359s.737.396.867.772c.13.375.179.898.243 1.162.063.264.142.27.353.29s.555.055.756.26c.2.204.257.578.371.798.114.219.284.284.39.42.105.138.146.346.135.534a.8.8 0 0 1-.223.519c-.15.162-.389.32-.474.444-.085.125-.018.217.137.458.154.241.395.631.55.944.154.313.222.549.15.694s-.283.198-.3.361.158.433.257.657c.099.223.12.4.057.571-.064.172-.213.34-.33.652-.116.312-.2.767-.178 1.293.021.527.149 1.126.317 1.601.167.476.376.828.47 1.11.093.284.071.498.166.623.095.124.306.16.466.55s.268 1.135.344 1.676c.076.542.12.88.217 1.185s.249.576.355.998c.106.421.166.994.128 1.464-.04.47-.177.838-.275 1.282-.097.445-.155.966-.29 1.34-.137.373-.351.599-.386.882-.034.284.111.625.282.9.17.276.366.487.532.746.167.258.305.565.4.957.096.393.15.872.332 1.264.182.393.492.7.822.859s.678.17.877.404c.2.233.249.69.126 1.103-.122.414-.417.785-.567 1.017s-.153.324-.044.446c.11.123.331.276.533.535.2.258.381.622.643.93.263.309.608.562.952.782.345.22.69.408 1.025.44s.66-.09.914-.271c.253-.182.432-.424.61-.682.179-.259.355-.535.463-.857.107-.321.145-.69.097-1.03s-.182-.655-.241-1.011c-.06-.357-.044-.755-.154-1.09-.109-.335-.342-.607-.51-.948a2.7 2.7 0 0 1-.275-1.151 2.7 2.7 0 0 1 .276-1.17c.178-.38.435-.748.555-1.09s.106-.661.21-1.09c.103-.43.325-.97.436-1.55s.111-1.2.11-1.994c-.003-.793-.007-1.758.22-2.446.226-.687.682-1.098 1-1.33s.497-.285.581-.55c.085-.267.074-.746-.072-.965s-.425-.176-.571-.306-.157-.433-.067-.662.282-.387.316-.57c.031-.163-.065-.347-.174-.532.024-.173.026-.614.098-.7.11-.133.57.273.52-.025-.051-.298-.462-.476-.44-.698.023-.223-.02-.122.578-.195s.969.836 1.414 1.316 1.57.437 1.373.894-.787.42-1.43.658c-1.308-.064-1.495.74-1.479 1.796.016 1.055 1.146-.927 1.804-.91s1.071.182 1.324.585c.254.404.388.656.269 1.121-.12.466-.74 1.224-.91 1.821s-.27 1.475.032 1.771c.302.297.482.12.805-.056.323-.177.594-.682.828-1.138s.253-1.023.471-1.349c.178-.266.523-.777.576-.777h.002v.001h.001v.001h.001v.001q.008.014-.018.083c-.123.328-.924 1.162-.585 1.65s.811.835 1.3.666c.488-.168 1.1-1.47 1.495-1.536s-.267-.039.17.407 1.153-.25 1.552-.26c.4-.011.831.324 1.203.373.372.05.891.172 1.106-.097.214-.269.16-.513.349-.788.189-.276.485-.429.545-.398.059.03.206-.5.52-.716.313-.214 1.121-.125 1.348-.357s.01-.39.13-.537c.122-.146.08.01.537-.244s1.274-1.075 2.12-1.413c.847-.34 2.365-.083 2.878-.504.512-.422.083-.73.381-.992.3-.262.731-.156 1.285-.308.553-.153 1.636-.296 2.025-.634.388-.338-.003-.6.414-.874.416-.273 1.554-.088 2.022-.069.468.02.693-.156.782.092.089.249-.425.274-.308.51.118.236.426-.085.635.12.21.204.116 0-.19.818-.305.818-2.094 2.75-2.482 3.471-.231.43-.434.281-.461.257.015.016.085.095.231.34.466.783 3.077.716 4.781.622 1.704-.095 3.34-.676 5.264-1.288s4.607-1.571 6.229-2.459 2.11-1.884 3.563-2.575c1.453-.69 3.337-.997 5.079-1.356 1.742-.358 3.29-.083 5.356-.781s5.278-2.761 6.711-3.724c1.433-.962 1.33-1.01 2.092-1.678s1.574-1.203 2.459-2.344c.886-1.141 1.88-3.276 2.575-4.597s.954-2.221 1.632-3.31 1.78-2.373 2.436-3.172.344-1.335 1.448-1.655 3.42 2.073 4.505 1.333c1.086-.74.852-2.48.276-3.171-.577-.692-.943-.219-2.207-.208s-4.226.36-5.332.598c-1.107.238-.725-.113-1.356.437s-.863 1.595-1.563 3.24-1.272 5.304-2.483 6.69c-1.21 1.385-1.692 1.003-3.448 1.838-1.755.836-5.447 2.699-7.148 3.011s-1.3-.198-2.62-.092-4.034.449-5.218 1.034c-1.184.586-1.198 1.582-1.954 1.724-.755.143-.36-.727-1.884-.689s-4.649 2.053-6.574 2.781-4.211 2.361-4.942 1.655-.121-.38.253-.85c.375-.47 1.65-.8 2.368-1.333.717-.535 1.262-.664 1.908-1.84.646-1.175.15-4.292 1.08-5.286.928-.994 2.234-.186 2.666-.735.432-.55.348-1.005.046-1.426-.302-.42-1.253-.23-1.61-.482-.355-.253-.852.347-.55-.758.3-1.106 3.517-1.808 5.447-2.368s4.25-.453 6.045-.942c1.795-.49 3.958-1 4.689-1.862s-.653-.339.367-1.701 5.717-3.426 7.447-4.046 1.739-.916 2.506-.482-.198 2.215.94 2.569c1.139.353 2.806-2.157 3.6-2.558.793-.4.036-.048.873-.287.837-.24 3.422-.586 4.183-1.023s.307-.477.667-.69c.36-.211 1.112-.372 1.494-.402s.65-.153.747.08c.097.235-.5.424-.483.599.017.174-.164.217.218.183s.893-1.177 1.288-1.551c.394-.375.751-.453 1-.747.248-.294.437-.609.482-.942.045-.334-.27-.64-.195-.943.074-.303.198-.511.574-.7.377-.19 1.174-.121 1.621-.081s.758.05 1.045.24c.288.191.291.605.587.806.296.2.756.292 1.115.287s.673-.367.965-.276.268.573.529.643c.26.07.427-.17.735-.275s.611-.272 1.115-.345c.503-.073 1.34.08 1.885.023.545-.058 1.044-.132 1.367-.31s.344-.455.575-.575.491.09.735-.126c.244-.217.137-.684.345-1.161.21-.477.603-1.31.977-1.643.374-.334.426-.212 1-.449s1.758-.715 2.46-.93c.7-.217 1.316-.466 1.723-.415s.407.263.61.322c.202.06.338.047.574.046.236 0 .66.056.839-.069s.22-.266.195-.425-.099-.309-.333-.368-.664.316-.896.322c-.233.007-.286-.061-.426-.126s.095-.186-.402-.265-1.703.437-2.448.667-1.429.43-2.023.701-1.151.49-1.54.885c-.388.395-.599.923-.746 1.356s.018.992-.184 1.184c-.203.19-.23-.055-.472.046-.24.1-.524.52-.839.7-.314.181-.457.295-1.017.368s-1.752-.186-2.3-.203c-.546-.018-.759.163-.975.024-.215-.14.008-.342-.22-.52-.226-.179-1.005.025-1.153-.187s-.008-.293.073-.374c.082-.08.161-.012.301-.057s.259-.18.52-.244c.261-.065.704.142 1.04-.048.336-.191.486-.807.707-1.065s.22-.375.56-.512c.342-.137 1.212.153 1.447-.033.236-.185-.075-.183.09-.34.164-.159.907-.043.991-.22a.1.1 0 0 1 .092-.059 3 3 0 0 1-.165-.088c-.49-.278-2.622-.034-3.21.228s-.015.289-.463.447c-.449.159-1.695-.168-2.202-.195s-.635.168-.837-.016-.136-.608-.09-.796-.098-.13.203-.301 1.227.06 1.715-.09c.488-.148.563-.507 1.154-.69.591-.184 2.091.19 2.365-.147.23-.282-.006-.17-.04-.195l-.003-.002q-.005-.008.01-.03c.078-.116.034-.042.593-.139.558-.096 2.072-.266 2.771-.316s1.036.173 1.414-.041c.378-.215-.134-.33.642-1.008.775-.677 3.515-1.565 4.527-2.084 1.01-.519 1.14-.803 1.596-.906.457-.104.576.275.971.069.396-.206.557-1.117.874-1.463.316-.345.415-.344.898-.65a28 28 0 0 1 2.031-1.117c.555-.273 1.084-.301 1.272-.553s.166-.363.061-.495c-.105-.133-.444.047-.512-.054-.067-.1 0-.087.061-.207.063-.12.186-.35.37-.467.183-.117.643.018.69-.162.049-.18-.19-.182-.3-.28-.11-.1-.267-.27-.362-.314-.088-.041-.125-.01-.143-.021l-.002-.001-.001-.001v-.001h-.001c-.118-.126-.545-.164-.987-.168m-14.9 12.254a.3.3 0 0 0 .095.035l.001-.001v-.003a.16.16 0 0 0-.096-.03m13.83-12.217c.081-.012.114-.018.12-.02V7.62c-.018-.003-.2.017-.212.023v.001c.006.002.034.001.093-.003m-5.337 1.952h.008v.001h.001v.001h.001l.001.001h.001v.001l.004.006-.013-.003v.001l.015.005-.001-.001v-.001q.004 0 .007.002l-.001.001c.052.015.13.053.294.14.164.086.414.329.681.398s.597-.03.864-.02c.268.01.634-.08.739.071.104.15-.104.236-.093.344.011.109.016.175.133.267.116.092.494.001.577.134.084.133.057.21-.076.34s-.44.054-.753.146c-.312.093-.724.22-1.103.446-.378.226-.814.635-1.118.926s-.44.559-.72.798c-.28.24-.497.36-.952.62-.454.262-1.19.605-1.793.905-.602.3-1.317.646-1.82.897-.503.25-.746.438-1.2.603a7.7 7.7 0 0 1-1.514.353c-.512.07-1.173.104-1.54.066-.368-.037-.391-.178-.656-.165-.264.013-.57.246-.858.312-.29.065-.633.111-.86.084-.228-.028-.36-.164-.484-.17s-.188.063-.225.053l-.002-.001v-.001h-.002c-.004.01-.016.035 0 0-.024-.006-.009-.002 0 0l.001-.005c.022-.049.15-.199.194-.253l.007-.01v-.001h-.001c-.014.007-.096.088.056-.063.186-.186.813-.784 1.144-.947.332-.163.55-.251.714-.163s-.043.295.135.36c.179.067.348-.23.661-.363.313-.134.764-.205 1.229-.381a11 11 0 0 0 1.545-.702c.518-.296 1.199-.774 1.54-1.078s.328-.452.573-.646.609-.264.889-.48c.28-.217.401-.59.758-.816s.922-.19 1.354-.428.922-.724 1.176-.994.302-.475.41-.549a.3.3 0 0 1 .072-.041zm-84.914 2.442h.01l-.046.006a1 1 0 0 1 .104.025h.009c.007-.003.011-.013.015-.017h.004l.002.001q.006.004.022.041c.035.084-.141.283-.156.462-.015.178.11.38.095.579-.016.199-.12.385-.194.58-.073.196-.109.362-.244.59s-.317.379-.596.739-.716.88-1.061 1.431-.664 1.356-.982 1.877-.601.983-.888 1.264c-.287.28-.482.267-.716.479s-.415.524-.656.797c-.24.273-.685.49-.789.838s-.033.723.18 1.008c.215.286.745.274 1 .498.256.223.397.476.517.762s.183.58.188.923-.151.74-.188 1.1c-.036.36-.113.75-.033 1.057.08.308.083.586.436.727s.95-.275 1.383-.384.893-.154 1.214-.272c.321-.117.44-.242.716-.374.276-.133.673-.303.943-.412.27-.11.45-.228.675-.252.224-.024.4.09.627.09s.492-.09.72-.107.516-.228.64-.003c.124.224-.087.319-.482.758-.395.44-1.354 1.28-2.069 1.652s-1.021.521-2.102.618-2.95-.289-4.297-.464c-1.345-.176-2.908-.096-3.776-.578-.868-.481-1.126-.835-1.393-1.621-.267-.787.188-2.062.157-2.84-.032-.778-.267-1.313-.248-1.813s.137-.756.247-1.145c.11-.39.16-.699.415-1.182.255-.484.742-1.104 1.195-1.636.452-.531.896-.97 1.52-1.538.623-.567 1.481-1.31 2.24-1.832s1.463-.92 2.287-1.307 2.086-.83 2.65-.988c.56-.158.556-.12.668-.131v-.001zM25.023 27.933c.09.001.18.023.256.065.151.084.248.252.237.642s-.13 1.001-.196 1.318-.08.34-.087.35l-.12.243c-.113.232-.339.694-.455 1.896s-.12 3.142-.128 4.52c-.007 1.378-.015 2.194-.238 2.817s-.661 1.053-1.017 1.39a14 14 0 0 1-.812.73c-.183.145-.276.192-.36.072-.085-.12-.16-.406-.194-.628s-.029-.38-.132-.484a.52.52 0 0 0-.485-.104c-.17.052-.296.209-.387.472s-.146.633-.207.842c-.06.21-.127.26-.203.27-.075.011-.16-.016-.219-.216s-.088-.572-.151-.86c-.064-.288-.16-.492-.201-.693s-.028-.4-.049-.624c-.02-.225-.075-.476.006-.789.081-.312.299-.687.438-1.142.14-.455.2-.99.248-1.394.048-.405.084-.681.166-.936.08-.255.208-.49.486-.678s.708-.332 1.08-.915.687-1.606.812-2.161c.126-.555.062-.644.137-.781.074-.138.286-.326.32-.494.032-.168-.114-.317-.108-.496.005-.18.162-.389.343-.694.18-.306.385-.709.54-.984.156-.276.263-.425.42-.499a.6.6 0 0 1 .26-.055m-9.177 10.138c.158.01.273.064.343.186.093.162.106.445.019.604s-.275.194-.495.162a1.33 1.33 0 0 1-.635-.266c-.163-.138-.235-.316-.27-.405l-.037-.09c.327-.083.653-.167.902-.188q.094-.008.173-.003m-2.683.416c.043-.002.082.025.105.041l.033.024c.382.144.764.288 1.003.43.238.14.334.28.649.569.314.289.848.73 1.152 1.133s.378.77.397 1.173c.018.404-.018.844-.116 1.051-.097.208-.256.183-.442.082-.186-.102-.4-.279-.644-.486-.243-.206-.516-.442-.66-.654s-.16-.402-.317-.741c-.157-.34-.455-.828-.696-1.093s-.424-.306-.535-.462c-.11-.156-.15-.427-.136-.636s.08-.358.146-.409a.1.1 0 0 1 .061-.022m4.346 3.18q.02-.001.037.001c.099.018.187.135.234.248s.056.222.12.3c.065.08.185.128.273.222.088.093.142.232.235.304.092.072.223.078.29.031.065-.047.067-.146.146-.208.08-.062.235-.088.38-.08a.74.74 0 0 1 .363.108c.087.06.127.137.175.258s.103.285.123.421c.02.137.007.246-.405.299-.41.052-1.22.048-1.65.036-.43-.011-.483-.03-.52-.331-.037-.3-.059-.88-.07-1.171-.01-.29-.01-.29.044-.332.048-.036.137-.102.225-.107m21.345 5.053.011.013h.008v.001h.001v.008l-.009-.009.009.011v.001l.001.001c.051.06.262.063.46.101.199.039.564.095.733.123s.132-.007.285.044.207.098.597.318.64.686 1.727 1.03c1.086.346 3.606.42 4.814.37 1.207-.052 1.756-.43 2.394-.39.639.038.713.21 1.355.395.641.185 1.614.583 2.495.712.88.13 1.865.058 2.746.035.881-.022 2.115-.68 2.536-.162.42.519-.192.949-.393 1.414s-.386 1.086-.816 1.346-.953-.052-1.438.09c-.485.141-.989.33-1.39.772-.4.441-.458 1.373-.793 1.823s-.593.45-1.05.885c-.459.434-1.092 1.16-1.652 1.758s-1.015 1.32-1.711 1.83c-.697.509-1.632 1.047-2.412 1.145-.779.099-1.021.032-2.005-.39s-2.27-1.544-3.57-2.539a99 99 0 0 1-4.206-3.455c-.886-.782-1.087-.801-1.196-1.136s.143-.285.085-.452c-.059-.166-.41-.198-.453-.392-.042-.194.053-.339.244-.54.19-.202.732-.21.952-.494s.213-.769.237-1.056c.025-.288-.073-.513-.033-.65.04-.135.082-.084.118-.162s-.022-.168.074-.309.282-.274.579-.398c.296-.124 1.006-.076 1.204-.231.199-.156.181-.087.12-.26-.063-.171-.56-.186-.733-.352s-.332-.38-.297-.553.262-.24.338-.268l.045-.014z" style="display:inline;opacity:1;fill:url(#d);fill-opacity:1;fill-rule:evenodd;stroke:none;stroke-width:.4;stroke-linecap:round;stroke-linejoin:round;stroke-dasharray:none;paint-order:stroke fill markers" transform="translate(36.776 105.208)"/><path d="M25.395 25.27a.74.74 0 0 0-.313.117c-.31.18-.797.602-1.24 1.07a8.7 8.7 0 0 0-1.234 1.66 13 13 0 0 0-1.01 2.192c-.228.677-.293 1.191-.346 1.852-.054.66-.095 1.466-.111 1.988-.017.521-.007.758.048 1.038.056.28.158.605.355 1.156.197.552.489 1.33.732 1.845s.438.765.718 1.04c.28.277.647.578 1.201.895s1.295.651 2.093 1.087c.797.436 1.65.973 2.215 1.587.565.615.844 1.305 1.34 1.2.495-.103 1.21-1.003 2.366-1.811 1.156-.81 2.755-1.527 3.624-1.94.87-.412 1.008-.52 1.228-.742s.522-.56.85-1.172c.33-.612.687-1.497.883-1.975.196-.477.23-.546.272-.741s.09-.515.098-1.143a30 30 0 0 0-.074-2.262c-.05-.697-.117-1.156-.316-1.739a11.6 11.6 0 0 0-1.972-3.48c-.379-.466-.77-.886-1.09-1.19-.32-.305-.568-.495-.715-.493s-.19.194-.021.449.551.572.937 1.043c.386.47.775 1.093 1.086 1.642.31.55.542 1.025.716 1.602q.263.867.342 2.03c.052.774.04 1.643.04 2.267 0 .625.012 1.005-.185 1.595s-.603 1.39-.947 1.926a5 5 0 0 1-.834 1.006c-.207.195-.34.313-.442.364s-.25-.37-.32-.147c-.718 2.253-5.462 4.885-5.843 4.657-.823-.492-4.397-3.656-4.735-4.612-.431-.225-.774-.577-1.131-1.165a12.3 12.3 0 0 1-.937-1.998c-.208-.584-.254-.927-.28-1.58a74 74 0 0 1-.033-2.239c-.002-.621-.001-.9.107-1.33.11-.431.327-1.015.512-1.52.186-.506.339-.932.552-1.345s.486-.81.81-1.181.7-.714.92-.95c.221-.237.286-.367.251-.462-.02-.053-.07-.096-.167-.09z" style="display:inline;fill:#fff;fill-opacity:1;fill-rule:evenodd;stroke:#474f83;stroke-width:.342207;stroke-linejoin:round;stroke-dasharray:none;stroke-opacity:1;paint-order:stroke fill markers" transform="translate(36.776 105.208)"/><path d="M30.69 20.089c.038.074.112.223.105.962-.007.74-.095 2.07-.17 3.01-.073.941-.134 1.493-.11 1.766.023.273.13.269.46.246.332-.024.888-.065 1.368-.237s.883-.472 1.106-.547c.222-.074.264.08.164.373-.1.295-.34.73-.412.976s.025.301.324.438.8.355 1.212.505.737.234.853.41c.116.177.023.445-.12.55-.144.104-.339.044-.392.079-.054.034.034.164.303.63.27.466.719 1.268 1.154 1.77.436.503.858.707 1.34.886.482.178 1.024.331 1.673.458.649.128 1.404.23 4.331.378 2.927.149 8.026.343 10.783.487 2.758.144 3.175.236 3.358.336s.132.206-.804.278-2.758.109-5.11.17c-2.352.06-5.235.143-7.606.22-2.37.076-4.229.145-5.427.206-1.198.06-1.736.11-2.079.245s-.491.352-.667.413c-.176.06-.38-.037-.66-.385a6 6 0 0 1-.84-1.478c-.201-.533-.248-1.002-.382-1.43-.134-.43-.357-.818-.496-1.072s-.195-.372-.315-.537a3.6 3.6 0 0 0-.413-.469c-.106-.094-.134-.07-.097.012s.14.223.21.392.11.364.176.442.159.037.266.155.231.393.317.676c.087.283.137.572.079.636s-.224-.098-.361-.173c-.138-.074-.247-.06-.307.033s-.072.264-.048.408.08.26.202.238c.122-.02.307-.178.434-.247.126-.07.193-.051.227.1.033.15.033.433-.049.58-.082.15-.247.163-.374.194-.128.032-.218.08-.24.173s.024.23.127.257c.104.028.263-.053.407-.108.144-.054.271-.082.372-.039s.175.157.195.265c.02.11-.015.214-.133.348-.119.135-.32.3-.41.427-.091.127-.07.217.012.21s.226-.115.355-.198a1.6 1.6 0 0 1 .341-.174c.1-.033.186-.042.27.04a.55.55 0 0 1 .151.408c-.017.152-.135.281-.244.384-.11.104-.209.18-.259.262s-.05.17.006.21.167.03.263-.004c.096-.035.178-.095.33-.157.151-.061.374-.124.62-.164a3.5 3.5 0 0 1 .748-.045c.234.014.433.06.683.186s.552.333 1.153.635c.602.302 1.504.701 2.574 1.202 1.07.5 2.31 1.104 3.627 1.69 1.317.587 2.714 1.157 3.867 1.672s2.065.973 2.927 1.38 1.675.76 2.628 1.189 2.049.934 3.002 1.36c.954.426 1.767.774 2.183 1.033s.436.429.275.494c-.16.066-.501.027-1.452-.295-.95-.32-2.51-.924-4.168-1.58-1.659-.655-3.415-1.363-5.192-2.021-1.776-.66-3.572-1.269-5.424-1.93-1.851-.663-3.759-1.377-4.91-1.793-1.15-.417-1.543-.535-1.936-.59-.393-.056-.787-.05-.973.065-.187.115-.167.338-.06.656.109.318.305.73.584 1.193.279.462.64.973 1.078 1.55.44.577.957 1.219 1.544 1.973s1.242 1.619 1.894 2.454 1.301 1.642 2.003 2.488c.701.846 1.455 1.73 2.245 2.707s1.615 2.045 2.917 3.654c1.3 1.61 3.077 3.76 4.493 5.48s2.47 3.012 2.976 3.743c.504.73.458.901.285 1.003s-.476.134-1.813-1.275c-1.337-1.41-3.71-4.26-5.99-6.948-2.282-2.688-4.47-5.211-6.27-7.309s-3.209-3.769-4.221-4.949-1.63-1.868-2.183-2.426c-.554-.558-1.046-.985-1.383-1.28-.338-.294-.521-.454-.7-.521a.57.57 0 0 0-.447.009.19.19 0 0 0-.113.18c-.002.056.011.096-.043.129-.054.032-.175.059-.238.086-.062.028-.065.058.002.061s.205-.02.275.025c.071.044.074.155.082.237s.022.135.084.108c.062-.026.174-.13.336-.188s.267-.201.449-.144.44.316.546.406c.104.09.244.185.262.277s-.041.146-.113.233-.238.167-.46.296c-.22.13-.541.343-.809.675-.267.333-.48.785-.658 1.213s-.323.83-.444 1.146c-.122.314-.22.54-.276 1.181-.055.64-.069 1.696-.136 3.228s-.188 3.541-.257 5.6-.085 4.165-.126 6.51-.107 4.927-.148 7.818-.057 6.09-.08 8.277c-.023 2.188-.052 3.364-.15 4.04-.1.678-.266.855-.406.873-.139.018-.25-.123-.334-1.433-.083-1.309-.14-3.786-.183-6.046a690 690 0 0 1-.097-6.163c-.02-1.862-.026-3.543-.054-4.84-.028-1.299-.077-2.213-.13-3.757a252 252 0 0 1-.127-5.733c-.02-2.018-.004-3.88-.08-5.044-.078-1.165-.248-1.634-.399-2.034-.15-.4-.282-.73-.486-1.04a3.2 3.2 0 0 0-.812-.833 4.2 4.2 0 0 0-1.016-.524c-.311-.11-.557-.15-.716-.218-.159-.069-.23-.167-.196-.29s.175-.27.31-.359c.134-.089.262-.118.6-.12.337-.001.884.025 1.263.017s.588-.051.765-.094c.177-.042.321-.085.488-.173.167-.089.357-.223.602-.464.244-.241.542-.588.766-.938.225-.349.376-.7.453-1.133.077-.435.08-.953.137-1.252s.17-.382.282-.417c.113-.034.228-.02.421-.152.194-.131.466-.406.774-.601s.652-.31.994-.554c.343-.244.684-.618.9-.897.216-.278.308-.462.305-.547s-.102-.072-.272-.067-.413.002-.52-.041c-.106-.043-.077-.125-.054-.27s.04-.356-.001-.536a.6.6 0 0 0-.358-.433c-.218-.101-.555-.154-.698-.136s-.09.107.036.25c.127.145.327.345.472.506.146.16.238.281.263.458a.78.78 0 0 1-.187.607c-.17.196-.464.357-.626.513-.162.155-.192.306-.297.437s-.285.243-.39.398-.134.356-.218.512a.9.9 0 0 1-.37.349c-.15.082-.31.134-.421.206a.48.48 0 0 0-.213.32c-.04.155-.056.375-.105.553-.05.18-.131.317-.233.379-.101.062-.223.05-.326-.028-.103-.077-.188-.218-.257-.378a2.7 2.7 0 0 1-.153-.494c-.03-.152-.04-.277-.146-.355-.104-.079-.304-.112-.51-.228a1.75 1.75 0 0 1-.558-.523c-.138-.206-.2-.42-.272-.597-.072-.178-.154-.32-.323-.41s-.424-.128-.6-.217a.58.58 0 0 1-.31-.405c-.042-.173-.029-.38.006-.588.034-.208.09-.418.201-.593s.28-.316.382-.46a.7.7 0 0 0 .138-.441c-.005-.15-.054-.3-.136-.374s-.197-.07-.364.044c-.167.115-.387.341-.547.56-.16.217-.262.427-.323.609-.06.182-.08.336-.056.534.025.198.094.44.108.588.015.148-.024.2-.13.121-.107-.078-.28-.288-.451-.55a3.6 3.6 0 0 1-.438-.913c-.1-.336-.133-.693-.167-1.013s-.07-.601-.066-.875c.006-.273.051-.539.153-.788.101-.249.259-.482.414-.68.156-.198.31-.362.446-.485s.254-.205.357-.346a.95.95 0 0 0 .19-.547c-.001-.207-.093-.42-.124-.549s-.002-.175.106-.188a.64.64 0 0 1 .482.165c.187.159.374.457.457.777s.064.66-.02.908c-.083.247-.23.401-.422.575s-.428.367-.587.545c-.16.178-.243.341-.286.453a.4.4 0 0 0-.04.194c.004.021.012.004.101-.109.09-.112.26-.32.437-.445a.74.74 0 0 1 .524-.148c.163.022.305.11.422.23.117.119.21.27.293.447s.157.38.216.514.101.197.164.217c.064.019.147-.005.21-.092a.48.48 0 0 0 .068-.384c-.037-.147-.155-.293-.223-.41a.46.46 0 0 1-.08-.273c.007-.067.038-.113.078-.119s.09.029.131.076c.042.048.076.108.137.137.06.029.147.025.202-.048.055-.072.078-.215.091-.353.013-.139.016-.273.044-.36.028-.085.08-.123.138-.125.057-.001.12.033.175.102s.102.172.173.234c.072.062.167.084.232-.009.066-.092.102-.299.165-.44s.153-.22.23-.219c.075.001.138.08.169.18s.031.221.075.323c.044.101.133.183.266.172.132-.012.31-.117.441-.146.132-.03.219.016.233.073s-.045.124-.126.201-.185.167-.18.23c.004.065.115.105.228.085a.42.42 0 0 0 .28-.199.39.39 0 0 0 0-.34c-.05-.117-.147-.23-.271-.37-.125-.138-.278-.303-.455-.393s-.38-.105-.575-.112c-.197-.008-.388-.008-.536-.06-.148-.051-.254-.156-.358-.236a.7.7 0 0 0-.309-.152c-.102-.014-.202.014-.248.104a.38.38 0 0 0 .01.318c.048.076.134.075.237.019.103-.057.222-.17.324-.124.103.045.188.25.228.371.04.122.035.16.013.184-.021.024-.059.032-.213.042s-.424.021-.56.047-.138.064-.127.118c.01.054.033.123.068.167.036.043.083.061.094.111s-.016.132-.09.177a.4.4 0 0 1-.272.034c-.075-.02-.101-.068-.131-.118-.03-.051-.065-.105-.09-.113-.024-.007-.04.032-.048.08-.01.046-.012.1-.08.129a.7.7 0 0 1-.323.015.63.63 0 0 1-.308-.113.33.33 0 0 1-.12-.22c-.006-.074.017-.137.063-.167s.114-.027.181-.026c.067 0 .134-.003.165-.288.031-.286.027-.854.037-1.205.01-.35.035-.483.08-.547.047-.063.114-.056.207-.053s.21.004.266.04c.055.037.049.111.115.146.065.035.203.032.282-.008.08-.039.1-.114.265-.154.164-.039.47-.042.65-.006.179.037.231.114.339.153.107.038.27.038.362.082.092.043.115.13.152.18s.088.063.144.016c.055-.048.116-.156.177-.214s.12-.067.152-.114c.031-.048.033-.134.121-.157a.44.44 0 0 1 .354.11c.09.093.096.237.162.374s.194.266.299.433.187.372.283.584.206.432.27.512.084.023.08-.277a8.5 8.5 0 0 0-.113-1.273 2.8 2.8 0 0 0-.408-1.058 3.8 3.8 0 0 0-.72-.825c-.264-.224-.533-.377-.884-.438-.35-.062-.784-.031-1.141.025-.357.057-.637.14-.939.282-.3.141-.623.34-.924.534a6 6 0 0 0-.828.604c-.245.222-.456.48-.635.722-.178.242-.324.469-.471.694s-.296.447-.398.707-.157.556-.194.853a10 10 0 0 0-.066.985c-.01.389-.013.866.059 1.288.072.421.218.788.404 1.118s.414.624.708.914c.295.29.656.575 1.036.86s.779.57 1.082.84.513.525.697.828c.184.304.344.656.454.857s.17.249.212.496c.042.246.065.691.01 1.032-.056.34-.19.577-.274.765s-.116.327-.183.424a.42.42 0 0 1-.278.171c-.11.019-.225 0-.308-.09-.084-.09-.135-.253-.191-.395-.056-.141-.118-.263-.446-.482-.328-.22-.922-.535-1.258-.731s-.654-.333-.661-.432.233-.22.355-.358c.123-.139.35-.335.558-.365.21-.03.566.232.778.305s.297.06.39.053c.092-.008.09-.072.014-.25-.076-.18-.225-.471-.41-.581s-.403-.039-.767.21a9.6 9.6 0 0 0-1.353 1.165c-.481.494-.934 1.057-1.533 1.739-.598.681-1.342 1.481-2.194 2.466s-1.81 2.155-2.587 3.085c-.776.93-1.37 1.62-1.977 2.323s-1.228 1.416-1.907 2.175-1.416 1.563-1.853 2.046-.573.645-1.482 1.66C11.114 58.132 9.434 60 8.19 61.383c-1.243 1.383-2.05 2.283-2.596 2.864s-.834.845-1.09.994-.483.186-.533.142.073-.169.382-.58c.308-.412.8-1.11 1.383-1.867s1.258-1.573 2.47-3.053 2.963-3.623 4.576-5.609 3.087-3.814 4.21-5.191 1.892-2.3 2.613-3.168c.721-.866 1.393-1.676 2.21-2.693.819-1.018 1.782-2.244 2.336-3.03.554-.787.698-1.134.767-1.459.069-.324.062-.626-.118-.781s-.534-.166-.96-.1c-.427.065-.925.206-1.634.462-.71.255-1.63.626-2.76 1.07s-2.466.962-3.687 1.425-2.325.874-3.76 1.403c-1.436.53-3.202 1.178-4.679 1.71-1.476.53-2.663.943-3.603 1.268-.94.324-1.636.56-2.078.694-.442.135-.633.168-.792.148-.158-.02-.286-.092-.272-.187.015-.095.173-.213.577-.415.405-.201 1.057-.486 1.944-.878.886-.391 2.007-.89 3.128-1.385 1.12-.494 2.242-.986 3.54-1.563 1.297-.577 2.772-1.239 4.217-1.883 1.446-.644 2.862-1.27 4.022-1.786s2.064-.922 2.854-1.296 1.465-.714 1.916-1.004.677-.53.716-.708c.04-.179-.108-.297-.598-.397s-1.323-.182-3.215-.24c-1.893-.057-4.846-.09-7.332-.145-2.486-.056-4.504-.134-6.094-.193-1.59-.06-2.75-.099-3.374-.158s-.713-.137-.691-.226c.02-.088.152-.187.79-.265.637-.079 1.78-.138 3.04-.199 1.261-.06 2.637-.122 4.525-.155s4.287-.036 6.275-.176a31 31 0 0 0 4.701-.671c1.137-.258 1.835-.497 2.404-.869s1.008-.877 1.37-1.264a9 9 0 0 1 .984-.925 11 11 0 0 1 1.094-.765c.376-.232.743-.43 1.143-.56s.833-.191 1.28-.198c.448-.006.91.041 1.365.184s.902.38 1.278.637c.376.258.68.535.968.858.288.324.558.694.788 1.065.229.372.417.744.535.939s.166.213.195.185c.03-.028.041-.102-.007-.26-.049-.16-.157-.404-.331-.76a13 13 0 0 0-.648-1.193 4.3 4.3 0 0 0-.685-.846 3.5 3.5 0 0 0-.717-.522 9 9 0 0 0-.815-.387 2.9 2.9 0 0 0-.896-.25 8 8 0 0 0-1.404-.005c-.44.037-.758.108-1.118.273s-.761.426-1.146.675c-.385.248-.754.484-1.015.695-.26.212-.413.398-.524.544s-.182.251-.27.313a.4.4 0 0 1-.283.068c-.088-.015-.157-.064-.157-.176-.001-.111.066-.285.249-.58.182-.293.48-.708.785-1.056s.617-.63.947-.923.679-.599 1.023-.93.683-.691.947-1.038c.264-.346.453-.68.632-1.087.18-.406.35-.885.457-1.267s.152-.667.21-1.061c.06-.395.133-.9.22-1.185.085-.285.182-.351.231-.384s.049-.032.086.042z" style="display:inline;fill:#fff;fill-opacity:1;fill-rule:evenodd;stroke:#474f83;stroke-width:.342207;stroke-linejoin:round;stroke-dasharray:none;stroke-opacity:1;paint-order:stroke fill markers" transform="translate(36.776 105.208)"/><path d="M30.16 38.515q0 0 0 0a1.7 1.7 0 0 1-.156.32.9.9 0 0 1-.212.201m.698-.691c.122.003.244.006.346-.043.103-.05.186-.153.27-.256m-.08-.494-.263.388q-.133.2-.27.412m.866-.671q0 0 0 0c-.146-.005-.292-.01-.34-.146-.049-.137 0-.406.048-.675m-.535-.51q0 0 0 0c.171.174.343.35.485.437q.211.131.343-.002c.089-.09.153-.268.218-.446m-1.849 1.86q0 0 0 0c.15-.051.299-.102.374-.188s.077-.206.078-.327m-.428.125q0 0 0 0l-.57-.278m.191-.295-.236-.296m1.012 3.028c-.015-.184-.03-.368-.089-.52a1.2 1.2 0 0 0-.274-.383 2 2 0 0 0-.415-.333c-.177-.102-.405-.193-.51-.39-.104-.196-.084-.498-.12-.7-.037-.201-.13-.302-.223-.403m.08-.546a3 3 0 0 0-.225.369.54.54 0 0 0-.055.263c.006.066.026.11.047.154m-.66-1.366c-.064.127-.128.255-.122.41.006.157.081.34.215.48.133.139.324.233.515.327m.063-1.985q-.12.18-.237.361m1.997.842a1.5 1.5 0 0 0-.272.136c-.112.072-.226.173-.27.304a.44.44 0 0 0 .09.422.66.66 0 0 0 .468.224.57.57 0 0 0 .435-.215c.103-.125.15-.286.075-.441s-.274-.303-.373-.377-.099-.074-.153-.053m.068-.49-.031.49m.96-1.328q0 0 0 0l-.932.876m-.904-.932.918.918m-.032-2.49c.01 0 .032 0 .129.03s.271.087.379.245c.108.16.15.419.12.668s-.128.488-.243.64c-.115.154-.244.22-.409.163-.165-.058-.364-.241-.47-.428a.9.9 0 0 1-.099-.572c.022-.196.08-.398.183-.523a.7.7 0 0 1 .326-.198c.074-.024.074-.024.084-.024m.497 5.25q0 0 0 0c.193-.047.385-.093.526-.196a.8.8 0 0 0 .286-.45c.053-.186.07-.4.098-.528a.4.4 0 0 1 .112-.217m.285.515c.051-.049.102-.098.134-.217.031-.12.043-.31.054-.5m-.557.252a.9.9 0 0 0 .25-.13c.065-.056.104-.135.144-.214m.482-1.288c.154.251.308.502.338.709a.56.56 0 0 1-.169.478.6.6 0 0 1-.342.176c-.118.017-.236 0-.317-.072-.08-.073-.125-.203-.17-.332m-.156-1.115.55.697m-2.48-5.304c.033.083.065.167.167.204s.274.028.408.016.23-.03.374.025c.143.055.333.18.547.32.214.142.451.298.615.535s.251.556.294 1.008.039 1.039-.019 1.462c-.058.422-.17.681-.29.849s-.25.244-.38.347-.262.233-.394.363" style="display:inline;fill:none;fill-opacity:1;fill-rule:evenodd;stroke:#474f83;stroke-width:.171104;stroke-linecap:round;stroke-linejoin:round;stroke-dasharray:none;stroke-opacity:1;paint-order:stroke fill markers" transform="translate(36.776 105.208)"/><path d="M116.63 130.939c-.028.003-.067.04-.124.09-.19.174-.57.521-1.131.685-.56.164-1.302.145-2.007.147-.704 0-1.37.023-1.982.138a5.2 5.2 0 0 0-1.683.622 5.3 5.3 0 0 0-1.382 1.176 4.6 4.6 0 0 0-.918 1.732c-.199.699-.273 1.54-.252 2.268.02.73.136 1.346.344 1.867s.509.946.877 1.354.803.8 1.226 1.113a5.3 5.3 0 0 0 1.249.71c.414.158.833.238 1.357.28.524.044 1.152.05 1.72.04.57-.01 1.08-.035 1.435-.12.356-.083.557-.226.716-.305s.274-.092.405-.11c.13-.018.277-.04.361-.091s.106-.131.106-.936-.022-2.334.015-3.121c.038-.787.134-.83.255-.89s.267-.134.338-.192c.07-.058.064-.099-.645-.115a82 82 0 0 0-2.833.008c-.521.012-.663.029-.678.052v.002l-.001.002v.004q.004.01.023.021c.059.04.183.091.305.201.123.11.245.279.3.827.055.549.044 1.477.045 2.012s.015.676-.074.756c-.09.08-.283.098-.605.08-.323-.02-.774-.078-1.22-.307a3.14 3.14 0 0 1-1.154-1.046c-.266-.417-.357-.853-.41-1.418a12 12 0 0 1-.026-1.807c.04-.549.134-.951.345-1.329a2.4 2.4 0 0 1 1.033-.978c.495-.248 1.156-.392 1.733-.33s1.071.33 1.455.684c.383.354.655.795.877 1.032s.393.27.5.284c.108.014.152.008.17-.857.018-.866.01-2.591.006-3.454-.003-.606-.004-.787-.07-.78zm19.73.861a7.762 7.762 0 0 0-1.311.149 6.6 6.6 0 0 0-1.714.584c-.572.3-1.085.715-1.562 1.23-.476.513-.917 1.125-1.164 1.897-.074.23-.13.477-.172.728-.45-.044-.873-.089-1.243-.131-1.225-.142-1.876-.266-2.474-.439a16 16 0 0 1-1.65-.6c-.505-.209-.97-.405-1.303-.523-.332-.119-.53-.16-.63-.18-.099-.021-.099-.021-.172.099s-.219.36-.393.607a7 7 0 0 1-.54.685c-.165.18-.295.286-.627.332s-.867.036-1.182.068c-.316.032-.412.106-.715.238-.304.133-.813.323-1.049.453-.236.129-.197.198.066.378s.751.473 1.049.637.405.2.752.229.934.05 1.29.132c.355.081.48.222.66.506.18.283.418.71.623.934.205.223.379.243.638.13s.603-.359 1.196-.615a12.6 12.6 0 0 1 2.275-.7c.831-.174 1.663-.26 3.348-.472.047.774.19 1.399.512 2.06a6.7 6.7 0 0 0 1.392 1.89c.564.527 1.187.88 1.863 1.102.677.221 1.407.312 2.17.36.764.046 1.56.049 2.287-.13a5 5 0 0 0 1.904-.962c.522-.422.91-.904 1.27-1.552.357-.648.686-1.46.836-2.29s.123-1.676-.048-2.426a5.3 5.3 0 0 0-.914-1.983 6.1 6.1 0 0 0-1.54-1.46 5.3 5.3 0 0 0-1.788-.748c-.628-.139-1.293-.18-1.625-.2-.166-.01-.249-.016-.315-.017zm-57.547.167c-1.126.006-1.937.03-2.33.095-.395.064-.372.17-.361.222.01.052.01.052.016.062s.016.029.143.172.37.41.49.589c.122.177.122.266.122 1.711s0 4.249-.065 5.759c-.064 1.51-.194 1.728-.26 1.956-.066.23-.07.469.257.596.327.126.983.14 2.067.127s2.598-.055 3.753-.254c1.155-.198 1.951-.554 2.626-1.14a5.8 5.8 0 0 0 1.534-2.196c.305-.79.36-1.55.288-2.38-.071-.83-.27-1.728-.634-2.45-.363-.722-.893-1.268-1.527-1.713s-1.372-.79-2.462-.969-2.531-.193-3.657-.187m24.107.177c-.693-.007-1.975-.023-2.609.007s-.62.108-.559.216c.06.11.168.25.238.395.07.144.104.293.043.639-.06.346-.215.889-.372 1.439s-.317 1.106-.463 1.63-.278 1.014-.48 1.564c-.2.55-.471 1.16-.68 1.712s-.359 1.048-.5 1.435c-.143.388-.278.666-.396.818-.119.151-.22.176-.357.067s-.307-.351-.6-.803c-.294-.452-.71-1.114-1.116-1.721-.405-.608-.799-1.162-.982-1.485-.183-.322-.156-.413.056-.564.212-.152.61-.364.907-.67s.496-.706.595-1.157c.1-.45.1-.952.01-1.4a2.5 2.5 0 0 0-.549-1.167 2.38 2.38 0 0 0-1.162-.729c-.503-.147-1.129-.186-1.968-.206a43 43 0 0 0-2.76.015c-.869.038-1.552.118-1.894.158s-.342.04-.224.171c.117.13.35.393.468.714.117.321.117.701.117 2.15 0 1.45 0 3.97-.03 5.275s-.091 1.396-.2 1.522-.266.29-.35.453c-.084.162-.095.325-.065.405s.102.077.867.074 2.223-.005 2.957-.062c.735-.056.746-.166.674-.296s-.226-.279-.349-.506-.213-.533-.228-1.15c-.015-.615.045-1.541.092-1.961s.08-.336.386.286c.306.621.884 1.78 1.23 2.455s.46.868.6.986c.14.119.309.163 1.504.178 1.194.015 3.415.002 4.527-.023s1.115-.061.955-.21-.482-.41-.645-.615c-.162-.204-.165-.35-.053-.665.111-.316.337-.8.438-1.23s.076-.806.178-.988.33-.17.755.024 1.044.572 1.527.931.827.702 1.02.984.234.506.19.711a1.1 1.1 0 0 1-.313.529c-.14.135-.288.217-.37.31-.08.092-.094.194-.07.245.022.05.083.05.986.047.902-.004 2.647-.013 3.534-.054.888-.041.918-.116.903-.228a.76.76 0 0 0-.194-.39c-.119-.13-.295-.24-.474-.414-.18-.175-.361-.415-.554-.798s-.397-.91-.565-1.368c-.169-.46-.3-.851-.448-1.29-.147-.437-.31-.922-.493-1.476-.184-.554-.388-1.177-.606-1.749a16 16 0 0 0-.632-1.455c-.183-.363-.318-.567-.401-.826s-.113-.573-.18-.729c-.068-.155-.173-.153-.866-.16zm49.925.1c-.538-.004-1.563-.006-2.078.027-.514.034-.518.102-.483.167s.11.128.232.252c.123.123.294.309.368 1.316s.05 2.838.018 3.73c-.034.893-.076.848-.674.09-.597-.756-1.749-2.226-2.446-3.116-.696-.891-.938-1.203-1.144-1.511-.207-.308-.378-.612-.477-.768s-.124-.167-.67-.167c-.547 0-1.615.01-2.155.014-.54.005-.551.005-.537.043.015.037.056.11.148.192.093.082.237.172.38.302.142.13.282.303.365.961.082.659.108 1.805.116 3.19s-.002 3.011-.025 3.878c-.024.866-.06.973-.173 1.112-.112.138-.299.307-.44.479-.14.171-.233.345-.28.432a1 1 0 0 0-.042.083v.002h0l.001.001h.004l.547-.01c.517-.01 1.533-.03 2.06-.066.529-.037.57-.092.496-.244s-.263-.4-.366-.783c-.104-.382-.121-.897-.132-1.826-.01-.93-.014-2.274-.012-2.937.003-.662.013-.643.51.055.498.698 1.483 2.073 2.222 3.016.74.942 1.232 1.452 1.706 1.875s.93.759 1.399.977c.47.217.953.317 1.204.279.25-.038.267-.213.282-1.876.016-1.662.029-4.81.065-6.455.036-1.644.095-1.783.22-1.948.124-.166.315-.358.398-.488s.058-.196.02-.232-.09-.042-.627-.046zm-61.749 1.637a1.5 1.5 0 0 1 .406.047c.217.055.467.164.653.353s.308.458.347.81c.04.351-.005.786-.102 1.104a1.3 1.3 0 0 1-.443.672c-.195.154-.435.26-.596.336-.16.075-.242.118-.288.127s-.055-.017-.068-.583-.028-1.673-.036-2.227-.008-.553-.016-.569-.023-.047.062-.062a1 1 0 0 1 .081-.008zm45.114.068c.374-.01.77.066 1.099.227.44.213.762.574 1.023.95q.389.565.598 1.174c.139.405.22.823.259 1.325s.04 1.086-.043 1.598c-.083.513-.248.954-.499 1.281-.25.327-.587.539-.933.714s-.701.312-1.133.285c-.43-.028-.938-.22-1.35-.509a3 3 0 0 1-.96-1.13 4.6 4.6 0 0 1-.44-1.528 7 7 0 0 1-.04-.631c.903-.122 1.745-.238 2.34-.324 1.352-.194 1.434-.23 1.425-.28-.01-.052-.112-.118-.717-.184-.585-.064-1.642-.128-3.027-.235.015-.417.035-.78.158-1.106.135-.357.394-.671.712-.955s.696-.538 1.164-.631q.176-.036.364-.04m-54.892.454c.27.005.56.033.81.115.498.163.827.536 1.042 1.064.214.528.313 1.21.34 1.946.026.736-.02 1.526-.193 2.083s-.47.883-.91 1.09-1.02.297-1.395.312c-.374.015-.541-.046-.626-1.152s-.087-3.257-.088-4.333c0-1.076 0-1.076.332-1.1.167-.012.417-.03.688-.025m20.266.862c.044-.004.092.11.182.358.171.464.494 1.398.663 1.88.169.483.183.513-.104.432a33 33 0 0 1-1.176-.38c-.303-.103-.323-.115-.332-.121h0-.001 0l-.001-.001v0h0l-.001-.001v0-.001 0c-.003-.013.014-.068.118-.38.126-.377.378-1.131.512-1.51.063-.178.1-.273.14-.276m14.93 7.842c-.027.003-.067.04-.123.091-.19.174-.57.521-1.131.685s-1.303.145-2.007.146-1.37.024-1.983.138a5.2 5.2 0 0 0-1.682.623 5.3 5.3 0 0 0-1.383 1.176 4.6 4.6 0 0 0-.917 1.732c-.199.698-.273 1.539-.253 2.268s.137 1.346.345 1.867.509.945.877 1.353c.367.408.803.8 1.226 1.114a5.3 5.3 0 0 0 1.248.71c.415.158.834.238 1.358.28s1.152.049 1.72.04c.57-.01 1.08-.035 1.435-.12.356-.084.557-.227.715-.305.159-.079.275-.093.406-.11.13-.018.277-.04.36-.091.085-.051.107-.131.107-.936s-.022-2.335.015-3.121c.037-.787.134-.831.255-.89s.267-.134.337-.192.065-.1-.644-.116a82 82 0 0 0-2.833.008c-.527.013-.666.03-.678.053v.002l-.001.002v.004q.004.01.022.021c.06.039.184.09.306.201.123.11.244.279.3.827s.044 1.477.045 2.012c0 .534.015.675-.074.755-.09.08-.283.1-.606.08-.322-.02-.774-.077-1.22-.306a3.14 3.14 0 0 1-1.154-1.046c-.266-.418-.357-.853-.409-1.418a12 12 0 0 1-.026-1.808c.04-.548.134-.95.344-1.328a2.4 2.4 0 0 1 1.034-.978c.495-.249 1.156-.392 1.733-.33s1.071.33 1.454.684.656.794.878 1.031c.222.238.393.27.5.285.108.014.152.008.17-.858.017-.865.01-2.59.006-3.453-.003-.607-.004-.787-.07-.78zm7.302.76a7.762 7.762 0 0 0-1.311.149 6.6 6.6 0 0 0-1.714.583c-.572.3-1.085.715-1.562 1.229s-.918 1.126-1.164 1.898c-.247.771-.3 1.703-.254 2.483s.189 1.408.513 2.072a6.7 6.7 0 0 0 1.392 1.891c.563.527 1.186.88 1.863 1.101.676.222 1.407.313 2.17.36.764.047 1.56.05 2.286-.13a5 5 0 0 0 1.905-.961c.522-.422.91-.905 1.269-1.552.358-.648.686-1.46.836-2.29s.123-1.676-.048-2.426a5.3 5.3 0 0 0-.913-1.983 6.1 6.1 0 0 0-1.54-1.46 5.3 5.3 0 0 0-1.788-.748c-.629-.139-1.293-.18-1.625-.2-.166-.011-.25-.016-.315-.017zm12.61.005a7.762 7.762 0 0 0-1.311.149 6.6 6.6 0 0 0-1.714.584c-.572.3-1.085.715-1.561 1.229-.477.514-.918 1.126-1.165 1.898-.246.771-.299 1.703-.253 2.483s.188 1.408.512 2.072a6.7 6.7 0 0 0 1.392 1.891c.564.527 1.187.88 1.863 1.101.677.222 1.407.313 2.17.36.764.047 1.56.05 2.287-.13a5 5 0 0 0 1.904-.961c.522-.422.911-.905 1.27-1.552.358-.648.686-1.46.836-2.29s.123-1.676-.048-2.426a5.3 5.3 0 0 0-.914-1.983 6.1 6.1 0 0 0-1.54-1.46 5.3 5.3 0 0 0-1.788-.748c-.628-.139-1.292-.18-1.624-.2-.166-.011-.25-.016-.316-.017zm-57.728.264c-1.126.006-1.937.03-2.331.095s-.372.17-.36.222c.01.052.01.052.016.062.005.01.016.029.143.172s.37.41.49.589c.122.177.122.266.122 1.711s0 4.249-.065 5.759-.194 1.728-.26 1.956c-.066.23-.07.469.257.596s.983.14 2.067.127 2.598-.055 3.753-.254c1.155-.198 1.95-.554 2.626-1.14a5.8 5.8 0 0 0 1.534-2.196c.304-.79.36-1.55.288-2.38-.071-.83-.27-1.728-.634-2.45s-.893-1.268-1.527-1.713-1.372-.79-2.462-.969-2.532-.193-3.657-.187m24.107.177c-.693-.007-1.975-.023-2.609.007s-.62.108-.56.216c.062.11.169.25.24.395.07.144.103.293.042.639s-.215.889-.372 1.439-.317 1.106-.463 1.63-.278 1.014-.48 1.564c-.2.55-.471 1.16-.68 1.712s-.359 1.048-.501 1.435c-.142.388-.277.666-.395.818-.119.151-.22.176-.357.067s-.307-.351-.6-.803c-.294-.452-.71-1.114-1.116-1.721-.405-.608-.8-1.162-.982-1.484-.184-.323-.156-.414.056-.565.212-.152.61-.364.907-.67s.496-.706.595-1.157c.1-.45.1-.952.01-1.4a2.5 2.5 0 0 0-.549-1.167 2.38 2.38 0 0 0-1.163-.728c-.503-.148-1.128-.187-1.967-.207a43 43 0 0 0-2.76.015c-.87.038-1.553.118-1.894.158-.342.04-.342.04-.225.171.117.13.351.393.469.714s.117.701.117 2.15c0 1.45 0 3.97-.03 5.275-.031 1.305-.091 1.396-.2 1.522s-.266.29-.35.453c-.085.162-.095.325-.065.405s.102.077.867.074c.764-.003 2.223-.006 2.957-.062s.746-.166.674-.296-.226-.279-.349-.506-.213-.533-.228-1.15c-.016-.615.045-1.541.092-1.961.046-.42.08-.336.386.286.306.621.884 1.78 1.23 2.455s.459.868.6.986c.14.119.308.163 1.503.178s3.416.002 4.528-.023 1.115-.061.955-.21c-.16-.15-.482-.41-.645-.615-.162-.204-.165-.35-.054-.665s.338-.8.439-1.23.075-.806.177-.988.332-.17.756.024 1.044.572 1.526.931c.483.36.828.702 1.02.984.194.283.235.506.19.711a1.1 1.1 0 0 1-.312.528c-.14.135-.288.218-.37.31-.08.093-.095.194-.071.245.023.051.084.052.986.047.903-.004 2.648-.012 3.535-.053.887-.042.918-.116.903-.228a.76.76 0 0 0-.195-.39c-.118-.13-.294-.24-.473-.414-.18-.175-.361-.415-.554-.798s-.398-.91-.566-1.369-.3-.85-.447-1.288-.31-.923-.494-1.477c-.183-.554-.387-1.177-.605-1.749a16 16 0 0 0-.632-1.455c-.184-.363-.319-.567-.401-.826-.083-.26-.113-.573-.18-.729-.068-.155-.173-.153-.866-.16zm50.052.024c-.537-.004-1.562-.006-2.077.028-.514.033-.518.101-.483.167.035.065.11.127.232.25.123.124.294.31.368 1.317s.05 2.838.017 3.73c-.033.893-.076.848-.673.09-.597-.756-1.75-2.226-2.446-3.116s-.938-1.203-1.144-1.51c-.207-.309-.378-.613-.477-.77s-.124-.166-.67-.166c-.547 0-1.615.01-2.155.014-.54.005-.552.005-.537.042a.54.54 0 0 0 .148.193c.093.082.237.172.38.302.141.13.282.302.365.96.083.66.108 1.806.116 3.191.008 1.386-.002 3.011-.026 3.878-.023.866-.06.973-.172 1.111-.112.139-.299.308-.44.48a2.7 2.7 0 0 0-.322.516h0v.001h.001v.001h.005l.546-.01c.518-.01 1.533-.029 2.061-.066s.57-.091.495-.243-.263-.402-.366-.784-.12-.896-.131-1.826-.015-2.274-.012-2.937.012-.643.51.054c.497.698 1.482 2.074 2.221 3.017s1.233 1.452 1.707 1.875.93.76 1.399.977c.47.218.953.317 1.204.279.25-.038.267-.213.282-1.875.015-1.663.029-4.812.065-6.456s.094-1.782.22-1.948c.124-.166.315-.358.398-.488.082-.13.057-.196.02-.232-.039-.036-.09-.042-.628-.046zm-29.192 1.679c.375-.011.77.066 1.1.226.44.214.762.575 1.022.95q.39.566.598 1.174c.14.405.22.824.26 1.325.04.502.04 1.086-.043 1.599s-.248.954-.499 1.28c-.25.327-.587.539-.933.714s-.702.313-1.133.285c-.431-.027-.938-.22-1.35-.508a3 3 0 0 1-.961-1.13 4.6 4.6 0 0 1-.44-1.529c-.061-.534-.04-1.069-.023-1.536.016-.467.028-.867.163-1.224.135-.356.394-.67.712-.955.318-.283.696-.537 1.163-.631q.177-.035.364-.04m12.611.006c.374-.011.77.066 1.1.226.439.214.761.575 1.022.95q.39.566.598 1.174c.139.405.22.824.26 1.325.04.502.039 1.086-.044 1.599s-.248.954-.498 1.28c-.251.327-.588.539-.934.714s-.701.313-1.132.285c-.432-.027-.939-.22-1.35-.508a3 3 0 0 1-.961-1.13 4.6 4.6 0 0 1-.44-1.529c-.062-.534-.04-1.069-.023-1.536.016-.467.027-.867.162-1.224.135-.356.394-.67.712-.955.318-.283.697-.537 1.164-.631q.176-.035.364-.04m-45.295.028c.098-.004.243.007.406.048a1.4 1.4 0 0 1 .652.352c.187.19.31.458.348.81.04.352-.005.787-.103 1.104a1.3 1.3 0 0 1-.442.672c-.195.154-.435.261-.596.336s-.242.118-.288.127-.056-.016-.068-.582c-.013-.567-.028-1.674-.036-2.227-.008-.554-.008-.554-.016-.57s-.023-.046.061-.062a1 1 0 0 1 .082-.008zm-9.779.522c.27.005.562.034.81.115.499.163.828.537 1.042 1.065s.314 1.21.34 1.946-.02 1.525-.192 2.082c-.173.558-.47.883-.91 1.09s-1.02.298-1.395.312c-.374.015-.542-.045-.626-1.151-.085-1.106-.087-3.258-.088-4.334s-.001-1.075.332-1.1c.167-.012.417-.03.687-.025m20.266.862c.045-.004.093.111.183.358.17.465.494 1.398.663 1.88.168.483.182.514-.104.432a33 33 0 0 1-1.176-.38c-.303-.103-.323-.115-.333-.12v-.001h0-.001 0v-.001h-.001 0v-.001h-.001v-.001c-.002-.013.015-.067.12-.38.125-.377.376-1.131.51-1.51.064-.178.1-.273.14-.276" style="display:inline;opacity:1;fill:#fff;fill-opacity:1;fill-rule:evenodd;stroke:#474f83;stroke-width:.4;stroke-linecap:round;stroke-linejoin:round;stroke-dasharray:none;stroke-opacity:1;paint-order:stroke fill markers"/><ellipse cx="118.395" cy="48.984" rx="1.197" ry="1.247" style="fill:#474f83;fill-opacity:1;fill-rule:evenodd;stroke:#fff;stroke-width:.458862;stroke-linecap:round;stroke-linejoin:round;stroke-dasharray:none;stroke-opacity:1;paint-order:stroke fill markers" transform="translate(36.776 105.208)"/><path d="M118.766 49.742c0-.17 0-.34-.025-.454-.025-.115-.076-.175-.127-.236m-.532-.797c.111 0 .223-.002.345.002.123.004.257.014.327.111.071.098.08.284.066.407-.012.123-.046.183-.16.21-.113.028-.307.023-.501.018m-.07.73q-.001-.808-.004-1.617" style="fill:none;fill-opacity:1;fill-rule:evenodd;stroke:#fff;stroke-width:.275553;stroke-linecap:butt;stroke-linejoin:round;stroke-dasharray:none;stroke-opacity:1;paint-order:stroke fill markers" transform="matrix(1.27134 0 0 1.27134 4.645 91.952)"/><path d="M113.826 52.648c.012-.193.023-.386.076-.53a.45.45 0 0 1 .324-.293c.179-.054.442-.066.648-.043.207.022.357.079.447.251a.71.71 0 0 1-.05.71c-.169.248-.535.456-.81.618-.277.162-.462.277-.551.446s-.084.39-.078.612m1.988-.415-2.246.018m-3.671.245c.352-.003.705-.007 1.035-.146s.635-.411.882-.74c.246-.33.433-.716.62-1.101m-2.52-.445a1 1 0 0 1 .161.087c.095.06.25.165.394.29.143.126.274.272.404.418m-4.145.52 2.993-.011m-5.712 1.321c.018 0 .036 0 .223-.07.187-.072.543-.214.812-.393.27-.18.45-.396.605-.6.155-.205.284-.398.345-.61.062-.211.056-.441.05-.671m-1.52.392 1.526.005m-2.52.474c.203-.02.39-.038.564-.1a.83.83 0 0 0 .389-.28c.095-.122.195-.313.24-.5s.043-.387.04-.587m-4.004 2.876c.031.002.062.004.205-.002a2.7 2.7 0 0 0 .665-.1c.266-.081.543-.23.726-.409s.273-.39.318-.632c.046-.243.048-.517.05-.792m-2.397.41 2.672-.007m-2.339-.906.412-.004 1.869-.02m-3.14 1.62c-.29-.208-.58-.417-.85-.575-.268-.158-.516-.265-.764-.372m-.1-1.035-.01 2.994m-4.134-.234c.487-.129.974-.258 1.373-.464.398-.207.708-.491.872-.807s.181-.663.199-1.01m-2.433-.157c.121.072.242.144.41.266.17.122.386.293.602.465m-4.233 1.373 1.824-1.537m-.04-.819c.015.83.03 1.66.031 2.136s-.012.597-.14.643-.37.02-.61-.007m-1.06-1.941 2.608-.053m-6.337 1.958c.454-.01.908-.019 1.273-.213.366-.194.642-.572.785-.915.142-.344.15-.653.157-.962m-1.538.372 1.349.016m-2.25.404c.265-.078.446-.13.604-.228s.277-.233.388-.507.144-.498.187-.788m-3.893.825.254.985m.614-1.257.249.988m.862-.713c.004.454.008.908-.262 1.259s-.814.598-1.358.846m-3.426-.167c.501.015 1.002.03 1.355-.088a.98.98 0 0 0 .65-.67c.092-.301.07-.656.048-1.01m-2.286.38 2.686.014m-2.552-.938h2.356m-3.192 1.303c-.241-.16-.482-.32-.64-.412a.9.9 0 0 0-.358-.133c-.126-.02-.304-.038-.481-.057m-.176 1.871.012-3.034" style="display:inline;opacity:1;fill:none;fill-opacity:1;fill-rule:evenodd;stroke:#fff;stroke-width:.799999;stroke-linecap:butt;stroke-linejoin:round;stroke-dasharray:none;stroke-opacity:1;paint-order:stroke fill markers" transform="translate(36.776 105.208)"/><path d="m79.503 51.772.294.421m.144-.682q.133.256.265.513m9.33-.629.035.102.123.357m-.641-.372.182.504m9.828-.18.076.095.296.379m.234-.825.26.48m6.019-.448.207.395m.307-.459.199.4" style="display:inline;opacity:1;fill:none;fill-opacity:1;fill-rule:evenodd;stroke:#fff;stroke-width:.3;stroke-linecap:butt;stroke-linejoin:round;stroke-dasharray:none;stroke-opacity:1;paint-order:stroke fill markers" transform="translate(36.776 105.208)"/><path d="M142.71 74.133c-.039.011-.078.022-.243.16s-.457.402-.45.676c.006.275.312.559.618.842m-.976-2.376-.02 2.405m-2.357-1.465c-.226-.138-.452-.276-.643-.282-.19-.006-.345.121-.432.323-.086.202-.105.479-.059.737s.157.498.28.605c.124.108.26.082.412.005.151-.078.318-.208.484-.338m-3.659-.55c-.025.005-.05.011-.19.03-.14.018-.394.049-.582.112q-.282.098-.371.281a.38.38 0 0 0 .012.37c.069.102.205.158.364.16.16 0 .342-.053.525-.106m-.915-1.237q0 0 0 0c.058-.132.116-.265.268-.347s.4-.113.566.008c.166.122.252.396.305.727.053.332.074.722.095 1.111m-3.7-2.777c-.008.048-.014.095-.014.556 0 .46.007 1.332.013 2.204M128.3 74.46q0 0 0 0c.233-.11.466-.22.679-.232a.52.52 0 0 1 .508.271c.104.195.12.497.082.739-.038.24-.13.422-.25.51-.12.09-.269.087-.426.012s-.323-.222-.49-.369m-.09-2.142-.048 2.583m-5.751-.906c.452-.006.905-.012 1.113-.105s.17-.274.07-.422a.75.75 0 0 0-.436-.3.57.57 0 0 0-.467.104.78.78 0 0 0-.269.437 1.3 1.3 0 0 0-.003.593c.043.198.128.381.237.494s.24.156.405.151c.165-.004.364-.055.563-.106m-3.562-1.312c-.114-.153-.227-.305-.37-.38a.55.55 0 0 0-.471-.005.74.74 0 0 0-.373.37c-.082.176-.11.396-.072.646s.142.53.27.687a.47.47 0 0 0 .437.182c.16-.012.331-.075.418-.16.087-.087.089-.197.091-.307m-4.76-1.016c.229-.107.457-.215.665-.261s.395-.033.504.115.138.43.147.717-.006.578-.02.868m-1.358.077.034-1.872m-3.804.822c.088 0 .176 0 .433-.015.258-.014.685-.042.875-.125s.14-.222.038-.374c-.103-.153-.26-.32-.427-.377-.166-.058-.341-.007-.485.065a.57.57 0 0 0-.314.34 1.4 1.4 0 0 0-.026.654c.042.221.137.407.26.536a.65.65 0 0 0 .449.207c.172.009.364-.045.555-.098m-3.707-2.49v2.625m-2.467-1.025c-.025-.005-.05-.01-.14-.01-.088 0-.24.005-.394.012s-.309.015-.431.107a.63.63 0 0 0-.225.42.4.4 0 0 0 .152.36c.1.077.237.102.409.095a4 4 0 0 0 .588-.086m-1.102-1.372c.067-.127.134-.254.242-.317.109-.064.26-.064.415-.046.156.019.318.055.405.2s.102.4.111.72c.01.321.014.708.019 1.094m-3.375-1.99q0 0 0 0l-.686 1.762m-.658-1.753.63 1.753m-2.972-1.762.007 1.83m.02-2.685.008.17m-3.604.956q0 0 0 0c.176-.073.351-.146.526-.16a.53.53 0 0 1 .466.184c.12.149.184.397.18.634a1.44 1.44 0 0 1-.162.621c-.083.158-.176.249-.313.236-.138-.013-.32-.129-.461-.223-.141-.095-.24-.168-.34-.242m-.034-2.125.014 2.684m-3.583-1.465q0 0 0 0c.268-.155.536-.31.729-.312.193-.001.31.151.374.444.064.292.073.724.082 1.156m-2.21-1.178c.265-.225.53-.451.712-.472.181-.022.278.162.33.495.05.333.055.816.06 1.298m-1.241-.084.02-1.685m-2.397.787q0 0 0 0c-.245 0-.49 0-.693.052-.203.053-.365.157-.43.308a.5.5 0 0 0 .06.474c.098.126.262.18.453.132.192-.048.412-.198.631-.348m-1.247-1.134c.094-.144.19-.288.338-.372a.78.78 0 0 1 .527-.066c.174.04.32.141.396.47s.083.885.09 1.441m-5.197.77c.095-.078.19-.157.254-.317.065-.16.1-.4.057-.557s-.163-.235-.208-.213c-.045.02-.015.14.015.258m-3.555-1.338c-.166-.141-.333-.282-.493-.353a.57.57 0 0 0-.446-.018c-.13.052-.237.156-.305.357a1.75 1.75 0 0 0-.062.745c.036.248.137.449.269.552s.293.108.46.011c.166-.097.337-.298.508-.498m.11-2.05-.027 2.736m-4.878-1.033c.455-.003.91-.006 1.107-.1.198-.092.138-.276.043-.425a.73.73 0 0 0-.395-.32.84.84 0 0 0-.53.01c-.147.058-.228.171-.277.356s-.069.442-.026.689.147.484.27.603c.122.118.263.118.4.101s.271-.05.38-.094.192-.098.275-.151m-3.36-1.448c-.116.02-.232.04-.352.091-.12.052-.245.137-.37.222m-.138 1.32.007-1.71m-4.56 1.61c-.2.07-.402.14-.594.126a.67.67 0 0 1-.502-.292 1.06 1.06 0 0 1-.163-.673.9.9 0 0 1 .283-.579.62.62 0 0 1 .522-.162.7.7 0 0 1 .43.318c.094.15.121.316.086.399s-.136.083-.369.08c-.233-.002-.6-.008-.968-.014m-2.21-.762-.59 1.787m-.658-1.685.596 1.524m-3.528-1.712c-.05.007-.15.021-.257.086a.83.83 0 0 0-.295.325 1.05 1.05 0 0 0-.101.484c.002.168.037.332.133.5s.253.34.428.4c.176.061.37.01.523-.111a.83.83 0 0 0 .298-.538 1.03 1.03 0 0 0-.146-.679c-.127-.197-.33-.336-.432-.405s-.102-.069-.151-.062m-2.965-.77v2.668m85.439-4.471c.115.178.23.356.306.52.075.163.11.313.144.462m-1.677-1.024c.053.175.107.35.14.492s.047.253.061.363m-1.323.17a4 4 0 0 1-.053-.516c-.002-.16.018-.3.039-.442m-1.746.957a.53.53 0 0 0 .27-.211c.08-.127.148-.34.215-.55m.228-3.732 3.264-.065m.049-1.953-.04 1.94m-3.17 1.258 3.166-.036m-3.71 1.21 4.307.024m-2.288-4.366-.049 4.36m-1.622-3.431c.115.012.229.024.793.032.565.01 1.579.015 2.593.021m-3.39-1.018.004 1.989m.044-1.983.581-.004 2.766-.02m-12.553 1c-.013.016-.026.032-.02.23.005.196.03.573-.054 1.08a6.6 6.6 0 0 1-.508 1.637c-.235.493-.513.842-.73.96-.217.12-.374.008-.512-.27-.138-.28-.257-.724-.241-1.236.015-.512.165-1.091.408-1.52.242-.427.577-.705.953-.843a1.94 1.94 0 0 1 1.192-.023c.4.113.784.337 1.05.621.265.285.412.63.436 1.159.023.529-.076 1.241-.312 1.767-.235.526-.606.866-.976 1.205m-12.025-.934.12-.001c.074-.002.2-.004.288.073.089.078.142.236.166.532s.02.731.13.992c.112.262.338.35.642.363s.685-.045.863-.197.152-.398.127-.644m-1.463-3.82c.028.41.056.82.15 1.24.093.42.252.852.412 1.284m.36-2.464.042 1.27m.99-1.27c0 .028 0 .056-.007.275a8 8 0 0 1-.069.871c-.043.243-.115.32-.152.474-.037.156-.04.39.013.628.052.239.158.482.264.724m-2.751-1.634c.06.014.12.028.556.031.435.003 1.246-.006 2.056-.014m-2.716-1.406c.016.918.032 1.835.007 2.325s-.092.552-.181.636c-.09.085-.2.192-.322.237-.123.046-.257.029-.39.012m.325-3.557c.02.011.041.023.153.08.112.058.316.163.853.216.537.054 1.408.057 2.278.06m-3.72 4.734-.008-4.048m-.423.745.182-.44.63-1.525m1.98-1.694q0 0 0 0l-.068 2.177m-1.393-1.304c.065.005.13.011.608-.013.48-.024 1.374-.078 2.268-.131m-3.306-.754-1.247 1.516m-9.597 3.404c.023-.003.046-.005.51-.004.465.001 1.37.007 2.275.013m-2.757-.796c.034 0 .069 0 .512-.024l2.148-.12m-2.667-.729.153-.038c.117-.027.332-.075.549-.053.217.02.436.111.753.132.316.022.73-.026 1.143-.074m-3.09-2.389 1.15-.025m-1.476 1.677c.02-.023.042-.045.13-.102.09-.056.246-.147.454-.227s.467-.151.726-.222m.214-1.888c0 .03 0 .062-.01.422s-.031 1.049-.036 1.54c-.005.49.007.784.019 1.078m2.564-2.71c-.273.144-.546.288-.79.412-.243.124-.458.229-.672.333m1.718 1.034c-.282.203-.564.406-.853.441-.29.036-.588-.097-.75-.547s-.187-1.218-.213-1.986m.721 5.979c.09-.17.18-.34.213-.861.032-.523.007-1.398-.019-2.273m-2.591.381c.002.062.005.124 0 .698-.002.573-.012 1.657-.021 2.74m-7.165-.228a5 5 0 0 0-.17-.635c-.07-.178-.158-.305-.246-.432m-5.442-.135c-.038.004-.075.008-.537.011-.461.003-1.346.005-2.231.007m1.24-4.623-.055 4.617M91.791 66.4c.362.01.725.02 1.097-.033.372-.052.755-.168 1.137-.284m-2.778 3.294-1.514.101m-.167 2.545c.013-.002.026-.004.108-.135.082-.132.232-.394.307-.664s.075-.55.173-.716a.334.334 0 0 1 .459-.125c.165.091.299.327.443.467s.3.183.455.227m-.994-3.353c.02.207.042.415-.01.615s-.178.39-.177.59c0 .2.128.408.203 1.04.075.631.098 1.687.12 2.743m-.259-6.856c.002.16.003.319-.074.512-.078.192-.235.418-.297.632s-.029.418.065.548.249.186.434.073c.186-.113.401-.394.617-.676m-9.599 4.779c.252-.124.503-.248.752-.493.25-.246.496-.613.638-1.027a3.2 3.2 0 0 0 .137-1.338c-.044-.464-.168-.929-.365-1.289s-.466-.616-.789-.748c-.322-.133-.698-.143-1.078-.07s-.763.228-1.07.567c-.306.338-.534.859-.653 1.275a2.7 2.7 0 0 0-.095 1.065c.03.337.101.7.207.973.106.272.249.454.378.492.13.038.248-.068.398-.27.15-.201.333-.498.494-.854.161-.355.3-.768.4-1.212s.163-.92.182-1.269a4.4 4.4 0 0 0-.03-.796m-10.359-.18c.062.008.124.016.41.016s.796-.008 1.305-.016m.03-.251c.006.052.013.104.024.487s.028 1.098-.039 1.55a1.53 1.53 0 0 1-.368.837m-1.283 3.772c0-.051 0-.103-.015-1.193l-.073-5.346m-2.343 3.174c.03-.004.06-.008.461-.004.402.004 1.176.016 1.95.028m-.686-1.748q0 0 0 0l-1.705.107m1.705-2.095-1.656.694m-.108 4.575c-.016-.036-.032-.072-.039-.88-.006-.809-.003-2.39 0-3.97m-8.878.467c-.056-.016-.111-.032-.383-.032-.27 0-.757.016-1.244.032m2.695 2.946-.324-.91m1.098-3.102c.016 2.076.033 4.152.006 5.335-.026 1.184-.094 1.475-.182 1.55-.089.073-.196-.07-.304-.214m-2.862-4.216c.069-.004.137-.008.394-.01.256-.002.7-.002.98-.066s.393-.191.812-.267c.418-.076 1.14-.1 1.862-.124m-3.989 1.796h1.098m-.657-3.784.02 5.293m-1.157.276 1.656-.587" style="fill:none;fill-opacity:1;fill-rule:evenodd;stroke:#000;stroke-width:.499999;stroke-linecap:round;stroke-linejoin:round;stroke-dasharray:none;stroke-opacity:1;paint-order:stroke fill markers" transform="matrix(1.19322 0 0 .97636 9.024 107.022)"/></g></svg>